{
.appVersion = "3260";
.formatVersion = 3;
axes = (
{
name = Weight;
tag = wght;
}
);
classes = (
{
automatic = 1;
code = "A Aacute Abreve Acircumflex Adieresis Adotbelow Agrave Amacron Aogonek Aring Aringacute Atilde AE AEacute B C Cacute Ccaron Ccedilla Ccedillaacute Ccircumflex Cdotaccent D Dcaron Dcroat Ddotbelow Dmacronbelow Eth E Eacute Ebreve Ecaron Ecedillabreve Ecircumflex Edieresis Edotaccent Edotbelow Egrave Emacron Emacronacute Emacrongrave Eogonek Etilde Schwa F G Gbreve Gcaron Gcircumflex Gcommaaccent Gdotaccent Gmacron H Hbar Hbrevebelow Hcircumflex Hdotbelow I IJ Iacute Ibreve Icircumflex Idieresis Idieresisacute Idotaccent Idotbelow Igrave Imacron Iogonek Itilde J Jacute Jcircumflex K Kcommaaccent L Lacute Lcaron Lcommaaccent Ldot Ldotbelow Lmacronbelow Lslash M Mdotbelow N Nacute Ncaron Ncommaaccent Ndotaccent Ndotbelow Nhookleft Nmacronbelow Ntilde Eng O Oacute Obreve Ocircumflex Odieresis Odotbelow Ograve Ohungarumlaut Omacron Omacronacute Omacrongrave Oogonek Oslash Oslashacute Otilde Otildeacute Otildedieresis OE P Thorn Q R Racute Rcaron Rcommaaccent Rdotbelow Rmacronbelow S Sacute Sacutedotaccent Scaron Scarondotaccent Scedilla Scircumflex Scommaaccent Sdotaccent Sdotbelow Sdotbelowdotaccent Germandbls T Tbar Tcaron Tcedilla Tcommaaccent Tdotbelow Tmacronbelow U Uacute Ubreve Ucircumflex Udieresis Udotbelow Ugrave Uhungarumlaut Umacron Umacrondieresis Uogonek Uring Utilde Utildeacute V W Wacute Wcircumflex Wdieresis Wgrave X Y Yacute Ycircumflex Ydieresis Ydotaccent Ygrave Ymacron Ytilde Z Zacute Zcaron Zdotaccent Zdotbelow Delta Omega";
name = Uppercase;
}
);
customParameters = (
{
name = blueScale;
value = 0.037;
},
{
name = fsType;
value = (
);
},
{
name = "Use Typo Metrics";
value = 1;
},
{
name = "gasp Table";
value = {
"21" = 7;
"65535" = 15;
"9" = 10;
};
},
{
name = panose;
value = (
2,
11,
3,
4,
4,
4,
2,
0,
2,
3
);
},
{
name = unicodeRanges;
value = (
0,
1
);
},
{
name = codePageRanges;
value = (
"1252"
);
},
{

glyphs = (
{
glyphname = A;
kernLeft = A;
kernRight = A;
lastChange = "2024-07-19 22:38:26 +0000";
layers = (
{
anchors = (
{
name = bottom;
pos = (310,0);
},
{
name = ogonek;
pos = (557,0);
},
{
name = top;
pos = (310,660);
}
);
layerId = "F5467FAD-1970-4982-B3D3-939C01050498";
shapes = (
{
closed = 1;
nodes = (
(63,0,l),
(162,246,l),
(123,207,l),
(498,207,l),
(458,246,l),
(557,0,l),
(602,0,l),
(334,660,l),
(287,660,l),
(19,0,l)
);
},
{
closed = 1;
nodes = (
(320,636,l),
(301,636,l),
(480,192,l),
(488,235,l),
(133,235,l),
(141,192,l)
);
}
);
width = 639;
},
{
anchors = (
{
name = bottom;
pos = (383,0);
},
{
name = ogonek;
pos = (576,0);
},
{
name = top;
pos = (384,660);
}
);
layerId = "6DD95C5A-998B-41AB-BDFB-84A73C209871";
shapes = (
{
closed = 1;
nodes = (
(190,0,l),
(275,207,l),
(217,167,l),
(550,167,l),
(491,207,l),
(576,0,l),
(729,0,l),
(461,660,l),
(306,660,l),
(38,0,l)
);
},
{
closed = 1;
nodes = (
(400,509,l),
(367,509,l),
(481,232,l),
(507,272,l),
(259,272,l),
(286,232,l)
);
}
);
width = 767;
},
{
anchors = (
{
name = bottom;
pos = (299,0);
},
{
name = ogonek;
pos = (554,0);
},
{
name = top;
pos = (299,660);
}
);
layerId = "1FDC7037-1F88-4969-8535-0F79C1EF19DB";
shapes = (
{
closed = 1;
nodes = (
(42,0,l),
(144,253,l),
(108,213,l),
(489,213,l),
(453,253,l),
(554,0,l),
(581,0,l),
(313,660,l),
(284,660,l),
(16,0,l)
);
},
{
closed = 1;
nodes = (
(306,655,l),
(290,655,l),
(480,186,l),
(485,229,l),
(113,229,l),
(117,186,l)
);
}
);
width = 620;
},
{
anchors = (
{
name = bottom;
pos = (401,0);
},
{
name = ogonek;
pos = (581,0);
},
{
name = top;
pos = (402,660);
}
);
guides = (
{
pos = (0,-330);
},
{
pos = (0,-220);
},
{
pos = (0,-110);
},
{
},
{
pos = (0,110);
},
{
pos = (0,220);
},
{
pos = (0,330);
},
{
pos = (0,440);
},
{
pos = (0,550);
},
{
pos = (0,660);
},
{
pos = (0,770);
},
{
pos = (0,-330);
},
{
pos = (0,-220);
},
{
pos = (0,-110);
},
{
},
{
pos = (0,110);
},
{
pos = (0,220);
},
{
pos = (0,330);
},
{
pos = (0,440);
},
{
pos = (0,550);
},
{
pos = (0,660);
},
{
pos = (0,770);
}
);
layerId = "3ED9E848-BE83-4CAC-8EFF-D71BD2B4F667";
shapes = (
{
closed = 1;
nodes = (
(428,660,ls),
(411,660,o),
(395,650,o),
(387,634,cs),
(371,605,ls),
(356,577,o),
(379,550,o),
(419,550,cs),
(533,550,ls),
(573,550,o),
(602,585,o),
(592,623,cs),
(592,625,ls),
(585,649,o),
(569,660,o),
(544,660,cs)
);
},
{
closed = 1;
nodes = (
(604,110,ls),
(563,110,o),
(543,74,o),
(563,37,cs),
(568,26,ls),
(576,10,o),
(592,0,o),
(609,0,cs),
(680,0,ls),
(721,0,o),
(741,36,o),
(721,73,cs),
(716,84,ls),
(708,100,o),
(692,110,o),
(675,110,cs)
);
},
{
closed = 1;
nodes = (
(178,110,l),
(229,110,ls),
(246,110,o),
(260,120,o),
(264,136,cs),
(271,154,ls),
(275,168,o),
(265,184,o),
(255,177,cs),
(255,177,ls),
(247,171,o),
(339,157,o),
(387,157,cs),
(387,157,ls),
(436,157,o),
(525,171,o),
(515,177,cs),
(515,177,ls),
(504,184,o),
(504,155,o),
(513,135,cs),
(513,135,ls),
(521,120,o),
(536,110,o),
(553,110,cs),
(625,110,ls),
(666,110,o),
(686,146,o),
(667,183,cs),
(662,194,ls),
(654,210,o),
(638,220,o),
(621,220,cs),
(190,220,l),
(139,220,ls),
(122,220,o),
(108,210,o),
(104,194,cs),
(95,165,ls),
(86,137,o),
(116,110,o),
(156,110,cs),
(178,110,l),
(156,110,l),
(105,110,ls),
(88,110,o),
(74,100,o),
(69,84,cs),
(60,55,ls),
(51,27,o),
(81,0,o),
(121,0,cs),
(195,0,ls),
(212,0,o),
(226,10,o),
(231,25,cs),
(240,55,ls),
(248,83,o),
(218,110,o),
(178,110,cs),
(156,110,l)
);
},
{
closed = 1;
nodes = (
(328,330,l),
(380,330,ls),
(397,330,o),
(414,340,o),
(422,355,cs),
(454,414,ls),
(463,430,o),
(479,440,o),
(496,440,cs),
(567,440,ls),
(607,440,o),
(637,476,o),
(627,513,cs),
(624,524,ls),
(620,540,o),
(606,550,o),
(589,550,cs),
(424,550,l),
(374,550,ls),
(357,550,o),
(341,540,o),
(333,524,cs),
(316,495,ls),
(301,467,o),
(324,440,o),
(364,440,cs),
(383,440,l),
(436,440,ls),
(453,440,o),
(467,430,o),
(471,415,cs),
(486,356,ls),
(490,340,o),
(503,330,o),
(520,330,cs),
(594,330,ls),
(635,330,o),
(664,366,o),
(654,403,cs),
(651,414,ls),
(648,430,o),
(634,440,o),
(617,440,c),
(468,440,l),
(479,459,o),
(481,478,o),
(472,478,cs),
(472,478,ls),
(463,478,o),
(455,468,o),
(458,459,cs),
(458,459,ls),
(461,450,o),
(424,440,o),
(383,440,cs),
(313,440,ls),
(296,440,o),
(280,430,o),
(271,414,cs),
(255,385,ls),
(240,357,o),
(263,330,o),
(303,330,cs),
(328,330,l),
(303,330,l),
(253,330,ls),
(236,330,o),
(220,320,o),
(211,304,cs),
(195,275,ls),
(180,247,o),
(203,220,o),
(243,220,cs),
(624,220,ls),
(664,220,o),
(693,256,o),
(684,293,cs),
(680,304,ls),
(677,320,o),
(663,330,o),
(646,330,cs),
(573,330,ls),
(532,330,o),
(498,308,o),
(505,286,cs),
(505,286,ls),
(511,265,o),
(526,251,o),
(535,261,cs),
(535,261,ls),
(543,270,o),
(491,281,o),
(442,281,cs),
(442,281,ls),
(393,281,o),
(338,270,o),
(344,261,cs),
(344,261,ls),
(351,251,o),
(371,264,o),
(383,286,cs),
(383,286,ls),
(395,309,o),
(369,330,o),
(328,330,cs),
(303,330,l)
);
}
);
width = 798;
}
);
note = A;
unicode = 65;
},
{
glyphname = AE;
kernLeft = A;
kernRight = E;
lastChange = "2024-07-19 12:14:04 +0000";
layers = (
{
anchors = (
{
name = top;
pos = (666,660);
}
);
layerId = "F5467FAD-1970-4982-B3D3-939C01050498";
shapes = (
{
closed = 1;
nodes = (
(110,0,l),
(248,243,l),
(468,243,l),
(468,0,l),
(965,0,l),
(965,28,l),
(507,28,l),
(507,319,l),
(944,319,l),
(944,349,l),
(507,349,l),
(507,631,l),
(954,631,l),
(954,660,l),
(436,660,l),
(60,0,l)
);
},
{
closed = 1;
nodes = (
(468,633,l),
(468,269,l),
(262,269,l)
);
}
);
width = 1009;
},
{
anchors = (
{
name = top;
pos = (636,660);
}
);
layerId = "6DD95C5A-998B-41AB-BDFB-84A73C209871";
shapes = (
{
closed = 1;
nodes = (
(171,0,l),
(264,165,l),
(459,165,l),
(459,0,l),
(1005,0,l),
(1005,117,l),
(604,117,l),
(604,279,l),
(986,279,l),
(986,396,l),
(604,396,l),
(604,543,l),
(996,543,l),
(996,660,l),
(383,660,l),
(8,0,l)
);
},
{
closed = 1;
nodes = (
(459,510,l),
(459,270,l),
(323,270,l)
);
}
);
width = 1009;
},
{
anchors = (
{
name = top;
pos = (670,660);
}
);
layerId = "1FDC7037-1F88-4969-8535-0F79C1EF19DB";
shapes = (
{
closed = 1;
nodes = (
(101,0,l),
(245,256,l),
(469,256,l),
(469,0,l),
(958,0,l),
(958,14,l),
(492,14,l),
(492,325,l),
(937,325,l),
(937,341,l),
(492,341,l),
(492,645,l),
(948,645,l),
(948,660,l),
(444,660,l),
(69,0,l)
);
},
{
closed = 1;
nodes = (
(469,653,l),
(469,269,l),
(252,269,l)
);
}
);
width = 1009;
},
{
anchors = (
{
name = top;
pos = (628,660);
}
);
guides = (
{
pos = (0,-330);
},
{
pos = (0,-220);
},
{
pos = (0,-110);
},
{
},
{
pos = (0,110);
},
{
pos = (0,220);
},
{
pos = (0,330);
},
{
pos = (0,440);
},
{
pos = (0,550);
},
{
pos = (0,660);
},
{
pos = (0,770);
}
);
layerId = "3ED9E848-BE83-4CAC-8EFF-D71BD2B4F667";
shapes = (
{
closed = 1;
nodes = (
(971,0,ls),
(1000,0,o),
(1016,16,o),
(1016,45,cs),
(1016,94,ls),
(1016,123,o),
(1000,139,o),
(971,139,cs),
(673,139,ls),
(644,139,o),
(628,152,o),
(628,175,cs),
(628,175,ls),
(628,204,o),
(612,220,o),
(583,220,cs),
(156,220,ls),
(132,220,o),
(114,211,o),
(102,189,cs),
(88,164,ls),
(70,133,o),
(84,110,o),
(119,110,cs),
(212,110,ls),
(237,110,o),
(251,115,o),
(258,128,cs),
(258,128,ls),
(265,141,o),
(279,146,o),
(304,146,cs),
(412,146,ls),
(441,146,o),
(457,133,o),
(457,110,cs),
(457,110,l),
(457,0,l)
);
},
{
closed = 1;
nodes = (
(406,660,ls),
(382,660,o),
(364,651,o),
(352,629,cs),
(338,604,ls),
(321,573,o),
(335,550,o),
(370,550,cs),
(961,550,ls),
(990,550,o),
(1006,566,o),
(1006,595,cs),
(1006,660,l)
);
},
{
closed = 1;
nodes = (
(93,110,ls),
(69,110,o),
(51,101,o),
(39,79,cs),
(25,54,ls),
(7,23,o),
(21,0,o),
(56,0,cs),
(150,0,ls),
(174,0,o),
(192,9,o),
(204,31,cs),
(218,56,ls),
(235,87,o),
(221,110,o),
(186,110,cs)
);
},
{
closed = 1;
nodes = (
(502,330,ls),
(473,330,o),
(457,314,o),
(457,285,cs),
(457,270,l),
(339,270,l),
(343,276,ls),
(360,307,o),
(346,330,o),
(311,330,cs),
(219,330,ls),
(195,330,o),
(177,321,o),
(165,299,cs),
(151,274,ls),
(133,243,o),
(147,220,o),
(182,220,cs),
(583,220,ls),
(612,220,o),
(628,236,o),
(628,265,cs),
(628,270,l),
(952,270,ls),
(981,270,o),
(997,281,o),
(997,300,cs),
(997,300,ls),
(997,319,o),
(981,330,o),
(952,330,cs)
);
},
{
closed = 1;
nodes = (
(281,440,ls),
(257,440,o),
(239,431,o),
(227,409,cs),
(213,384,ls),
(196,353,o),
(210,330,o),
(245,330,cs),
(337,330,ls),
(361,330,o),
(379,339,o),
(391,361,cs),
(405,386,ls),
(422,417,o),
(408,440,o),
(373,440,cs)
);
},
{
closed = 1;
nodes = (
(502,440,ls),
(473,440,o),
(457,424,o),
(457,395,cs),
(457,375,ls),
(457,346,o),
(473,330,o),
(502,330,cs),
(952,330,ls),
(981,330,o),
(997,344,o),
(997,369,cs),
(997,369,ls),
(997,394,o),
(981,407,o),
(952,407,cs),
(628,407,l),
(628,407,ls),
(628,428,o),
(612,440,o),
(583,440,cs)
);
},
{
closed = 1;
nodes = (
(344,550,ls),
(320,550,o),
(302,541,o),
(290,519,cs),
(276,494,ls),
(258,463,o),
(272,440,o),
(307,440,cs),
(399,440,ls),
(424,440,o),
(440,450,o),
(452,472,cs),
(457,480,l),
(457,480,ls),
(457,454,o),
(473,440,o),
(502,440,cs),
(583,440,ls),
(612,440,o),
(628,456,o),
(628,485,cs),
(628,521,l),
(961,521,ls),
(990,521,o),
(1006,527,o),
(1006,536,cs),
(1006,536,ls),
(1006,545,o),
(990,550,o),
(961,550,cs)
);
}
);
width = 1009;
}
);
note = AE;
unicode = 198;
},
{
glyphname = B;
kernLeft = B;
kernRight = B;
lastChange = "2024-07-19 21:21:30 +0000";
layers = (
{
layerId = "F5467FAD-1970-4982-B3D3-939C01050498";
shapes = (
{
closed = 1;
nodes = (
(276,0,ls),
(422,0,o),
(521,62,o),
(521,196,cs),
(521,323,o),
(438,385,o),
(292,389,c),
(356,405,o),
(400,443,o),
(400,521,cs),
(400,627,o),
(320,660,o),
(217,660,cs),
(53,660,l),
(53,0,l)
);
},
{
closed = 1;
nodes = (
(93,369,l),
(272,369,ls),
(389,369,o),
(479,316,o),
(479,196,cs),
(479,80,o),
(392,29,o),
(267,29,cs),
(93,29,l)
);
},
{
closed = 1;
nodes = (
(93,631,l),
(217,631,ls),
(307,631,o),
(360,583,o),
(360,511,cs),
(360,440,o),
(309,389,o),
(213,389,cs),
(93,389,l)
);
}
);
width = 565;
},
{
layerId = "6DD95C5A-998B-41AB-BDFB-84A73C209871";
shapes = (
{
closed = 1;
nodes = (
(297,0,ls),
(448,0,o),
(566,73,o),
(566,212,cs),
(566,320,o),
(503,372,o),
(420,395,c),
(446,422,o),
(460,457,o),
(460,498,cs),
(460,620,o),
(352,660,o),
(245,660,cs),
(47,660,l),
(47,0,l)
);
},
{
closed = 1;
nodes = (
(191,332,l),
(278,332,ls),
(372,332,o),
(421,297,o),
(421,212,cs),
(421,136,o),
(365,108,o),
(280,108,cs),
(191,108,l)
);
},
{
closed = 1;
nodes = (
(191,552,l),
(245,552,ls),
(293,552,o),
(325,532,o),
(325,479,cs),
(325,436,o),
(293,413,o),
(242,413,cs),
(191,413,l)
);
}
);
width = 594;
},
{
layerId = "1FDC7037-1F88-4969-8535-0F79C1EF19DB";
shapes = (
{
closed = 1;
nodes = (
(273,0,ls),
(418,0,o),
(513,60,o),
(513,193,cs),
(513,323,o),
(427,387,o),
(272,388,c),
(341,402,o),
(390,440,o),
(390,525,cs),
(390,628,o),
(315,660,o),
(212,660,cs),
(54,660,l),
(54,0,l)
);
},
{
closed = 1;
nodes = (
(77,374,l),
(271,374,ls),
(391,374,o),
(488,319,o),
(488,193,cs),
(488,72,o),
(397,17,o),
(265,17,cs),
(77,17,l)
);
},
{
closed = 1;
nodes = (
(77,643,l),
(212,643,ls),
(309,643,o),
(366,591,o),
(366,516,cs),
(366,441,o),
(312,385,o),
(208,385,cs),
(77,385,l)
);
}
);
width = 560;
},
{
guides = (
{
pos = (0,-330);
},
{
pos = (0,-220);
},
{
pos = (0,-110);
},
{
},
{
pos = (0,110);
},
{
pos = (0,220);
},
{
pos = (0,330);
},
{
pos = (0,440);
},
{
pos = (0,550);
},
{
pos = (0,660);
},
{
pos = (0,770);
}
);
layerId = "3ED9E848-BE83-4CAC-8EFF-D71BD2B4F667";
shapes = (
{
closed = 1;
nodes = (
(541,550,ls),
(577,550,o),
(605,578,o),
(584,604,cs),
(552,644,o),
(487,660,o),
(422,660,cs),
(261,660,ls),
(232,660,o),
(212,644,o),
(204,615,cs),
(187,550,l)
);
},
{
closed = 1;
nodes = (
(89,110,ls),
(60,110,o),
(44,94,o),
(45,65,cs),
(45,45,ls),
(46,16,o),
(62,0,o),
(91,0,cs),
(302,0,ls),
(378,0,o),
(447,19,o),
(495,55,cs),
(527,78,o),
(509,110,o),
(469,110,cs)
);
},
{
closed = 1;
nodes = (
(451,220,l),
(451,219,o),
(451,217,o),
(451,216,cs),
(437,149,o),
(384,128,o),
(310,128,cs),
(242,128,l),
(252,175,ls),
(258,204,o),
(245,220,o),
(216,220,cs),
(136,220,ls),
(107,220,o),
(88,204,o),
(82,175,cs),
(78,155,ls),
(72,126,o),
(85,110,o),
(114,110,cs),
(535,110,ls),
(560,110,o),
(580,119,o),
(593,142,cs),
(607,164,o),
(616,189,o),
(622,216,cs),
(622,217,o),
(622,217,o),
(622,218,cs),
(622,219,o),
(606,220,o),
(577,220,cs)
);
},
{
closed = 1;
nodes = (
(50,330,ls),
(21,330,o),
(7,314,o),
(10,285,cs),
(13,265,ls),
(17,236,o),
(35,220,o),
(64,220,cs),
(144,220,ls),
(173,220,o),
(187,236,o),
(183,265,cs),
(176,323,l),
(239,323,ls),
(307,323,o),
(348,305,o),
(367,261,cs),
(380,234,o),
(394,220,o),
(421,220,cs),
(503,220,ls),
(533,220,o),
(549,237,o),
(539,267,cs),
(534,279,o),
(530,290,o),
(524,300,cs),
(511,322,o),
(491,330,o),
(467,330,cs)
);
},
{
closed = 1;
nodes = (
(345,440,ls),
(323,440,o),
(310,430,o),
(288,423,cs),
(279,420,o),
(269,419,o),
(257,419,cs),
(223,419,l),
(223,419,ls),
(223,432,o),
(207,440,o),
(178,440,cs),
(98,440,ls),
(69,440,o),
(53,424,o),
(52,395,cs),
(52,375,ls),
(52,346,o),
(67,330,o),
(96,330,cs),
(460,330,ls),
(502,330,o),
(519,366,o),
(482,385,cs),
(474,389,o),
(465,393,o),
(457,396,c),
(461,403,o),
(465,410,o),
(468,417,cs),
(473,431,o),
(452,440,o),
(419,440,cs)
);
},
{
closed = 1;
nodes = (
(206,550,ls),
(177,550,o),
(157,534,o),
(151,505,cs),
(147,485,ls),
(141,456,o),
(154,440,o),
(183,440,cs),
(263,440,ls),
(292,440,o),
(311,456,o),
(317,485,cs),
(327,532,l),
(363,532,ls),
(401,532,o),
(425,520,o),
(415,472,cs),
(414,466,o),
(412,460,o),
(410,455,cs),
(405,445,o),
(420,440,o),
(452,440,cs),
(519,440,ls),
(546,440,o),
(567,453,o),
(575,481,cs),
(576,484,o),
(577,488,o),
(577,492,cs),
(580,503,o),
(581,512,o),
(582,522,cs),
(583,541,o),
(566,550,o),
(540,550,cs)
);
}
);
width = 601;
}
);
note = B;
unicode = 66;
},
{
glyphname = C;
kernLeft = C;
kernRight = C;
lastChange = "2024-07-19 21:21:30 +0000";
layers = (
{
anchors = (
{
name = bottom;
pos = (361,0);
},
{
name = top;
pos = (361,660);
}
);
layerId = "F5467FAD-1970-4982-B3D3-939C01050498";
shapes = (
{
closed = 1;
nodes = (
(469,-5,o),
(554,34,o),
(611,101,c),
(571,120,l),
(521,60,o),
(441,25,o),
(361,25,cs),
(198,25,o),
(83,155,o),
(83,328,cs),
(83,503,o),
(199,636,o),
(361,636,cs),
(443,636,o),
(524,598,o),
(575,535,c),
(614,554,l),
(556,624,o),
(470,665,o),
(361,665,cs),
(162,665,o),
(32,515,o),
(32,328,cs),
(32,143,o),
(163,-5,o),
(361,-5,cs)
);
}
);
width = 653;
},
{
anchors = (
{
name = bottom;
pos = (390,0);
},
{
name = top;
pos = (390,660);
}
);
layerId = "6DD95C5A-998B-41AB-BDFB-84A73C209871";
shapes = (
{
closed = 1;
nodes = (
(522,-5,o),
(631,58,o),
(682,142,c),
(554,205,l),
(514,134,o),
(459,104,o),
(390,104,cs),
(282,104,o),
(202,194,o),
(202,328,cs),
(202,464,o),
(283,556,o),
(390,556,cs),
(461,556,o),
(517,524,o),
(556,450,c),
(684,514,l),
(632,601,o),
(523,665,o),
(390,665,cs),
(183,665,o),
(47,507,o),
(47,328,cs),
(47,151,o),
(185,-5,o),
(390,-5,cs)
);
}
);
width = 703;
},
{
anchors = (
{
name = bottom;
pos = (356,0);
},
{
name = top;
pos = (356,660);
}
);
layerId = "1FDC7037-1F88-4969-8535-0F79C1EF19DB";
shapes = (
{
closed = 1;
nodes = (
(460,-5,o),
(541,30,o),
(600,94,c),
(574,107,l),
(521,49,o),
(438,12,o),
(356,12,cs),
(185,12,o),
(64,148,o),
(64,328,cs),
(64,509,o),
(186,648,o),
(356,648,cs),
(440,648,o),
(525,609,o),
(578,548,c),
(603,561,l),
(544,628,o),
(461,665,o),
(356,665,cs),
(158,665,o),
(29,516,o),
(29,328,cs),
(29,142,o),
(159,-5,o),
(356,-5,cs)
);
}
);
width = 646;
},
{
anchors = (
{
name = bottom;
pos = (398,0);
},
{
name = top;
pos = (398,660);
}
);
guides = (
{
pos = (0,-330);
},
{
pos = (0,-220);
},
{
pos = (0,-110);
},
{
},
{
pos = (0,110);
},
{
pos = (0,220);
},
{
pos = (0,330);
},
{
pos = (0,440);
},
{
pos = (0,550);
},
{
pos = (0,660);
},
{
pos = (0,770);
}
);
layerId = "3ED9E848-BE83-4CAC-8EFF-D71BD2B4F667";
shapes = (
{
closed = 1;
nodes = (
(595,660,l),
(574,663,o),
(554,665,o),
(532,665,cs),
(510,665,o),
(488,663,o),
(468,660,c)
);
},
{
closed = 1;
nodes = (
(335,0,l),
(355,-3,o),
(376,-5,o),
(398,-5,cs),
(420,-5,o),
(441,-3,o),
(462,0,c)
);
},
{
closed = 1;
nodes = (
(203,110,ls),
(161,110,o),
(151,77,o),
(189,54,cs),
(226,32,o),
(265,15,o),
(307,5,cs),
(328,1,o),
(342,0,o),
(362,0,cs),
(435,0,ls),
(455,0,o),
(469,1,o),
(488,5,cs),
(529,16,o),
(567,32,o),
(596,54,cs),
(628,77,o),
(608,110,o),
(566,110,cs)
);
},
{
closed = 1;
nodes = (
(545,220,ls),
(547,220,o),
(544,223,o),
(541,225,cs),
(541,225,l),
(540,224,o),
(540,223,o),
(539,222,cs),
(539,221,o),
(542,220,o),
(545,220,cs)
);
},
{
closed = 1;
nodes = (
(529,220,ls),
(525,220,o),
(519,210,o),
(507,189,cs),
(479,143,o),
(438,124,o),
(385,124,cs),
(334,124,o),
(286,148,o),
(251,189,cs),
(234,210,o),
(217,220,o),
(193,220,cs),
(103,220,ls),
(69,220,o),
(55,198,o),
(75,167,cs),
(82,156,o),
(89,146,o),
(97,136,cs),
(113,117,o),
(132,110,o),
(155,110,cs),
(623,110,ls),
(647,110,o),
(671,131,o),
(671,131,cs),
(671,131,o),
(671,131,o),
(671,131,cs),
(679,144,o),
(666,161,o),
(636,174,cs),
(563,207,ls),
(543,216,o),
(533,220,o),
(529,220,cs)
);
},
{
closed = 1;
nodes = (
(102,330,l),
(102,329,o),
(102,329,o),
(101,328,cs),
(98,304,o),
(96,281,o),
(98,258,cs),
(100,232,o),
(116,220,o),
(142,220,cs),
(234,220,ls),
(266,220,o),
(280,238,o),
(279,270,cs),
(277,288,o),
(278,307,o),
(281,328,cs),
(282,329,o),
(282,329,o),
(282,330,c)
);
},
{
closed = 1;
nodes = (
(37,440,ls),
(11,440,o),
(-6,428,o),
(-7,402,cs),
(-8,394,o),
(-7,385,o),
(-8,377,cs),
(-7,347,o),
(14,330,o),
(44,330,cs),
(134,330,ls),
(162,330,o),
(173,345,o),
(173,373,cs),
(173,379,o),
(173,385,o),
(173,390,cs),
(174,422,o),
(161,440,o),
(129,440,cs)
);
},
{
closed = 1;
nodes = (
(658,440,l),
(659,436,o),
(660,433,o),
(661,429,c),
(661,429,ls),
(670,433,o),
(677,440,o),
(672,440,cs)
);
},
{
closed = 1;
nodes = (
(89,550,ls),
(66,550,o),
(49,543,o),
(38,524,cs),
(33,514,o),
(28,503,o),
(24,493,cs),
(11,462,o),
(31,440,o),
(65,440,cs),
(155,440,ls),
(179,440,o),
(194,450,o),
(205,471,cs),
(229,513,o),
(270,537,o),
(321,537,cs),
(375,537,o),
(420,517,o),
(460,471,cs),
(478,450,o),
(488,440,o),
(497,440,cs),
(497,440,ls),
(507,440,o),
(518,444,o),
(535,453,cs),
(590,483,ls),
(615,496,o),
(611,528,o),
(611,528,cs),
(611,528,o),
(611,528,o),
(611,528,cs),
(597,544,o),
(579,550,o),
(556,550,cs)
);
},
{
closed = 1;
nodes = (
(286,660,ls),
(266,660,o),
(252,659,o),
(233,654,cs),
(194,644,o),
(158,628,o),
(129,606,cs),
(96,583,o),
(115,550,o),
(157,550,cs),
(519,550,ls),
(561,550,o),
(572,583,o),
(534,606,cs),
(498,628,o),
(457,645,o),
(414,655,cs),
(393,659,o),
(379,660,o),
(359,660,cs)
);
}
);
width = 715;
}
);
note = C;
unicode = 67;
},
{
glyphname = D;
kernLeft = B;
kernRight = D;
lastChange = "2024-07-19 21:21:30 +0000";
layers = (
{
anchors = (
{
name = bottom;
pos = (295,0);
},
{
name = top;
pos = (295,660);
}
);
layerId = "F5467FAD-1970-4982-B3D3-939C01050498";
shapes = (
{
closed = 1;
nodes = (
(222,0,ls),
(419,0,o),
(567,98,o),
(567,331,cs),
(567,568,o),
(399,660,o),
(205,660,cs),
(53,660,l),
(53,0,l)
);
},
{
closed = 1;
nodes = (
(92,620,l),
(205,621,ls),
(378,622,o),
(521,552,o),
(521,331,cs),
(521,118,o),
(401,39,o),
(222,39,cs),
(92,39,l)
);
}
);
width = 600;
},
{
anchors = (
{
name = bottom;
pos = (323,0);
},
{
name = top;
pos = (323,660);
}
);
layerId = "6DD95C5A-998B-41AB-BDFB-84A73C209871";
shapes = (
{
closed = 1;
nodes = (
(259,0,ls),
(468,0,o),
(618,103,o),
(618,331,cs),
(618,565,o),
(447,660,o),
(245,660,cs),
(47,660,l),
(47,0,l)
);
},
{
closed = 1;
nodes = (
(192,552,l),
(245,552,ls),
(378,552,o),
(468,498,o),
(468,331,cs),
(468,166,o),
(399,108,o),
(259,108,cs),
(191,108,l)
);
}
);
width = 651;
},
{
anchors = (
{
name = bottom;
pos = (290,0);
},
{
name = top;
pos = (290,660);
}
);
layerId = "1FDC7037-1F88-4969-8535-0F79C1EF19DB";
shapes = (
{
closed = 1;
nodes = (
(216,0,ls),
(411,0,o),
(558,97,o),
(558,331,cs),
(558,568,o),
(391,660,o),
(198,660,cs),
(54,660,l),
(54,0,l)
);
},
{
closed = 1;
nodes = (
(76,632,l),
(198,633,ls),
(378,634,o),
(530,560,o),
(530,331,cs),
(530,110,o),
(401,27,o),
(216,27,cs),
(76,27,l)
);
}
);
width = 591;
},
{
anchors = (
{
name = bottom;
pos = (330,0);
},
{
name = top;
pos = (330,660);
}
);
guides = (
{
pos = (0,-330);
},
{
pos = (0,-220);
},
{
pos = (0,-110);
},
{
},
{
pos = (0,110);
},
{
pos = (0,220);
},
{
pos = (0,330);
},
{
pos = (0,440);
},
{
pos = (0,550);
},
{
pos = (0,660);
},
{
pos = (0,770);
}
);
layerId = "3ED9E848-BE83-4CAC-8EFF-D71BD2B4F667";
shapes = (
{
closed = 1;
nodes = (
(552,550,ls),
(594,550,o),
(614,584,o),
(582,606,cs),
(524,643,o),
(447,660,o),
(361,660,cs),
(196,660,ls),
(167,660,o),
(149,644,o),
(144,615,cs),
(134,550,l)
);
},
{
closed = 1;
nodes = (
(76,110,ls),
(47,110,o),
(33,94,o),
(37,65,cs),
(40,45,ls),
(44,16,o),
(62,0,o),
(91,0,cs),
(269,0,ls),
(356,0,o),
(430,17,o),
(484,54,cs),
(517,76,o),
(498,110,o),
(456,110,cs)
);
},
{
closed = 1;
nodes = (
(438,220,ls),
(413,220,o),
(401,209,o),
(391,187,cs),
(369,143,o),
(322,125,o),
(247,125,cs),
(195,125,l),
(186,175,ls),
(181,204,o),
(162,220,o),
(133,220,cs),
(52,220,ls),
(23,220,o),
(10,204,o),
(15,175,cs),
(19,155,ls),
(24,126,o),
(43,110,o),
(72,110,cs),
(505,110,ls),
(528,110,o),
(544,117,o),
(555,137,cs),
(559,146,o),
(563,157,o),
(567,168,cs),
(576,198,o),
(554,220,o),
(521,220,cs)
);
},
{
closed = 1;
nodes = (
(54,330,ls),
(25,330,o),
(11,314,o),
(14,285,cs),
(16,265,ls),
(20,236,o),
(37,220,o),
(66,220,cs),
(147,220,ls),
(176,220,o),
(191,236,o),
(187,265,cs),
(185,285,ls),
(182,314,o),
(164,330,o),
(135,330,cs)
);
},
{
closed = 1;
nodes = (
(587,330,ls),
(559,330,o),
(540,315,o),
(529,286,cs),
(527,280,o),
(525,274,o),
(522,269,cs),
(510,238,o),
(517,220,o),
(548,220,cs),
(633,220,ls),
(660,220,o),
(682,233,o),
(693,260,cs),
(697,268,o),
(700,276,o),
(703,284,cs),
(714,314,o),
(701,330,o),
(672,330,cs)
);
},
{
closed = 1;
nodes = (
(41,440,ls),
(12,440,o),
(-2,424,o),
(1,395,cs),
(3,375,ls),
(7,346,o),
(24,330,o),
(53,330,cs),
(134,330,ls),
(163,330,o),
(178,346,o),
(174,375,cs),
(172,395,ls),
(169,424,o),
(151,440,o),
(122,440,cs)
);
},
{
closed = 1;
nodes = (
(459,440,ls),
(428,440,o),
(419,422,o),
(426,391,cs),
(430,373,o),
(432,353,o),
(434,331,cs),
(434,331,o),
(434,330,o),
(434,330,c),
(609,330,l),
(609,330,o),
(609,331,o),
(609,331,cs),
(607,356,o),
(603,379,o),
(598,401,cs),
(592,428,o),
(573,440,o),
(546,440,cs)
);
},
{
closed = 1;
nodes = (
(73,550,ls),
(44,550,o),
(28,534,o),
(29,505,cs),
(30,485,ls),
(31,456,o),
(47,440,o),
(76,440,cs),
(157,440,ls),
(186,440,o),
(202,456,o),
(201,485,cs),
(199,535,l),
(238,535,ls),
(310,535,o),
(368,518,o),
(403,471,cs),
(419,451,o),
(433,440,o),
(458,440,cs),
(544,440,ls),
(577,440,o),
(595,462,o),
(578,492,cs),
(571,504,o),
(565,514,o),
(558,524,cs),
(543,543,o),
(525,550,o),
(502,550,cs)
);
}
);
width = 663;
}
);
note = D;
unicode = 68;
},
{
glyphname = Eth;
kernLeft = Eth;
kernRight = D;
lastChange = "2024-07-19 12:15:04 +0000";
layers = (
{
layerId = "F5467FAD-1970-4982-B3D3-939C01050498";
shapes = (
{
closed = 1;
nodes = (
(325,0,ls),
(522,0,o),
(670,98,o),
(670,331,cs),
(670,568,o),
(503,660,o),
(308,660,cs),
(157,660,l),
(157,306,l),
(45,306,l),
(45,274,l),
(157,274,l),
(157,0,l)
);
},
{
closed = 1;
nodes = (
(196,274,l),
(412,274,l),
(412,306,l),
(196,306,l),
(196,620,l),
(308,621,ls),
(482,621,o),
(625,552,o),
(625,331,cs),
(625,118,o),
(505,39,o),
(325,39,cs),
(196,39,l)
);
}
);
width = 733;
},
{
layerId = "6DD95C5A-998B-41AB-BDFB-84A73C209871";
shapes = (
{
closed = 1;
nodes = (
(388,0,ls),
(596,0,o),
(746,103,o),
(746,331,cs),
(746,565,o),
(575,660,o),
(373,660,cs),
(175,660,l),
(175,345,l),
(56,345,l),
(56,236,l),
(175,236,l),
(175,0,l)
);
},
{
closed = 1;
nodes = (
(321,236,l),
(488,236,l),
(488,345,l),
(321,345,l),
(321,552,l),
(373,552,ls),
(506,552,o),
(596,498,o),
(596,331,cs),
(596,166,o),
(527,108,o),
(388,108,cs),
(320,108,l)
);
}
);
width = 760;
},
{
layerId = "1FDC7037-1F88-4969-8535-0F79C1EF19DB";
shapes = (
{
closed = 1;
nodes = (
(315,0,ls),
(511,0,o),
(658,97,o),
(658,331,cs),
(658,568,o),
(491,660,o),
(298,660,cs),
(154,660,l),
(154,300,l),
(43,300,l),
(43,281,l),
(154,281,l),
(154,0,l)
);
},
{
closed = 1;
nodes = (
(176,281,l),
(400,281,l),
(400,300,l),
(176,300,l),
(176,632,l),
(298,633,ls),
(478,633,o),
(630,560,o),
(630,331,cs),
(630,110,o),
(501,27,o),
(315,27,cs),
(176,27,l)
);
}
);
width = 729;
},
{
guides = (
{
pos = (0,-330);
},
{
pos = (0,-220);
},
{
pos = (0,-110);
},
{
},
{
pos = (0,110);
},
{
pos = (0,220);
},
{
pos = (0,330);
},
{
pos = (0,440);
},
{
pos = (0,550);
},
{
pos = (0,660);
},
{
pos = (0,770);
}
);
layerId = "3ED9E848-BE83-4CAC-8EFF-D71BD2B4F667";
shapes = (
{
closed = 1;
nodes = (
(598,550,ls),
(640,550,o),
(656,585,o),
(619,606,cs),
(555,643,o),
(475,660,o),
(389,660,cs),
(225,660,ls),
(196,660,o),
(180,644,o),
(180,615,cs),
(180,550,l)
);
},
{
closed = 1;
nodes = (
(225,110,ls),
(196,110,o),
(180,94,o),
(180,65,cs),
(180,45,ls),
(180,16,o),
(196,0,o),
(225,0,cs),
(403,0,ls),
(490,0,o),
(567,17,o),
(627,54,cs),
(663,76,o),
(647,110,o),
(605,110,cs)
);
},
{
closed = 1;
nodes = (
(610,220,ls),
(585,220,o),
(571,209,o),
(557,187,cs),
(528,142,o),
(478,125,o),
(403,125,cs),
(351,125,l),
(351,175,ls),
(351,204,o),
(335,220,o),
(306,220,cs),
(225,220,ls),
(196,220,o),
(180,204,o),
(180,175,cs),
(180,155,ls),
(180,126,o),
(196,110,o),
(225,110,cs),
(659,110,ls),
(682,110,o),
(700,117,o),
(714,137,cs),
(720,146,o),
(726,157,o),
(731,168,cs),
(746,198,o),
(728,220,o),
(695,220,cs)
);
},
{
closed = 1;
nodes = (
(103,330,ls),
(74,330,o),
(58,314,o),
(58,285,cs),
(58,271,ls),
(58,242,o),
(74,226,o),
(103,226,cs),
(180,226,l),
(180,226,ls),
(180,223,o),
(196,220,o),
(225,220,cs),
(351,220,l),
(351,226,l),
(462,226,ls),
(491,226,o),
(507,242,o),
(507,271,cs),
(507,285,ls),
(507,314,o),
(491,330,o),
(462,330,cs)
);
},
{
closed = 1;
nodes = (
(632,330,ls),
(604,330,o),
(589,315,o),
(586,286,cs),
(586,280,o),
(585,274,o),
(584,269,cs),
(580,238,o),
(592,220,o),
(623,220,cs),
(710,220,ls),
(737,220,o),
(755,233,o),
(759,260,cs),
(761,268,o),
(762,276,o),
(763,284,cs),
(766,314,o),
(748,330,o),
(719,330,cs)
);
},
{
closed = 1;
nodes = (
(225,440,ls),
(196,440,o),
(180,424,o),
(180,395,cs),
(180,355,l),
(103,355,ls),
(74,355,o),
(58,350,o),
(58,342,cs),
(58,342,ls),
(58,334,o),
(74,330,o),
(103,330,cs),
(462,330,ls),
(491,330,o),
(507,335,o),
(507,343,cs),
(507,343,ls),
(507,351,o),
(491,355,o),
(462,355,cs),
(351,355,l),
(351,395,ls),
(351,424,o),
(335,440,o),
(306,440,cs)
);
},
{
closed = 1;
nodes = (
(621,440,ls),
(590,440,o),
(579,422,o),
(584,391,cs),
(587,373,o),
(588,353,o),
(588,331,cs),
(588,331,o),
(588,330,o),
(588,330,c),
(765,330,l),
(765,330,o),
(765,331,o),
(765,331,cs),
(765,356,o),
(763,379,o),
(759,401,cs),
(755,428,o),
(737,440,o),
(710,440,cs)
);
},
{
closed = 1;
nodes = (
(225,550,ls),
(196,550,o),
(180,534,o),
(180,505,cs),
(180,485,ls),
(180,456,o),
(196,440,o),
(225,440,cs),
(306,440,ls),
(335,440,o),
(351,456,o),
(351,485,cs),
(351,535,l),
(389,535,ls),
(462,535,o),
(518,518,o),
(552,471,cs),
(567,451,o),
(581,440,o),
(606,440,cs),
(694,440,ls),
(727,440,o),
(745,462,o),
(729,492,cs),
(723,504,o),
(717,514,o),
(710,524,cs),
(696,543,o),
(678,550,o),
(655,550,cs)
);
}
);
width = 767;
}
);
note = Eth;
unicode = 208;
},
{
glyphname = E;
kernLeft = B;
kernRight = E;
lastChange = "2024-07-19 21:21:30 +0000";
layers = (
{
anchors = (
{
name = bottom;
pos = (314,0);
},
{
name = ogonek;
pos = (539,0);
},
{
name = top;
pos = (314,660);
}
);
layerId = "F5467FAD-1970-4982-B3D3-939C01050498";
shapes = (
{
closed = 1;
nodes = (
(553,0,l),
(553,28,l),
(95,28,l),
(95,319,l),
(532,319,l),
(532,349,l),
(95,349,l),
(95,631,l),
(542,631,l),
(542,660,l),
(56,660,l),
(56,0,l)
);
}
);
width = 597;
},
{
anchors = (
{
name = bottom;
pos = (333,0);
},
{
name = ogonek;
pos = (483,0);
},
{
name = top;
pos = (333,660);
}
);
layerId = "6DD95C5A-998B-41AB-BDFB-84A73C209871";
shapes = (
{
closed = 1;
nodes = (
(593,0,l),
(593,117,l),
(192,117,l),
(192,279,l),
(574,279,l),
(574,396,l),
(192,396,l),
(192,543,l),
(584,543,l),
(584,660,l),
(47,660,l),
(47,0,l)
);
}
);
width = 631;
},
{
anchors = (
{
name = bottom;
pos = (311,0);
},
{
name = ogonek;
pos = (549,0);
},
{
name = top;
pos = (311,660);
}
);
layerId = "1FDC7037-1F88-4969-8535-0F79C1EF19DB";
shapes = (
{
closed = 1;
nodes = (
(546,0,l),
(546,14,l),
(80,14,l),
(80,325,l),
(525,325,l),
(525,341,l),
(80,341,l),
(80,645,l),
(536,645,l),
(536,660,l),
(57,660,l),
(57,0,l)
);
}
);
width = 591;
},
{
anchors = (
{
name = bottom;
pos = (338,0);
},
{
name = ogonek;
pos = (469,0);
},
{
name = top;
pos = (338,660);
}
);
guides = (
{
pos = (0,-330);
},
{
pos = (0,-220);
},
{
pos = (0,-110);
},
{
},
{
pos = (0,110);
},
{
pos = (0,220);
},
{
pos = (0,330);
},
{
pos = (0,440);
},
{
pos = (0,550);
},
{
pos = (0,660);
},
{
pos = (0,770);
}
);
layerId = "3ED9E848-BE83-4CAC-8EFF-D71BD2B4F667";
shapes = (
{
closed = 1;
nodes = (
(15,660,ls),
(-14,660,o),
(-29,644,o),
(-25,615,cs),
(-23,595,ls),
(-20,566,o),
(-2,550,o),
(27,550,cs),
(486,550,ls),
(515,550,o),
(529,566,o),
(526,595,cs),
(519,660,l)
);
},
{
closed = 1;
nodes = (
(100,110,ls),
(71,110,o),
(54,94,o),
(51,65,cs),
(49,45,ls),
(46,16,o),
(61,0,o),
(90,0,cs),
(559,0,ls),
(588,0,o),
(605,16,o),
(608,45,cs),
(610,65,ls),
(613,94,o),
(598,110,o),
(569,110,cs)
);
},
{
closed = 1;
nodes = (
(133,220,ls),
(104,220,o),
(85,204,o),
(79,175,cs),
(75,155,ls),
(70,126,o),
(82,110,o),
(111,110,cs),
(580,110,ls),
(609,110,o),
(627,116,o),
(628,125,cs),
(628,125,ls),
(630,134,o),
(615,139,o),
(586,139,cs),
(243,139,l),
(250,175,ls),
(256,204,o),
(243,220,o),
(214,220,cs)
);
},
{
closed = 1;
nodes = (
(41,330,ls),
(12,330,o),
(-2,314,o),
(3,285,cs),
(6,265,ls),
(10,236,o),
(28,220,o),
(57,220,cs),
(138,220,ls),
(167,220,o),
(181,236,o),
(177,265,cs),
(176,270,l),
(500,270,ls),
(529,270,o),
(543,281,o),
(540,300,cs),
(540,300,ls),
(537,319,o),
(520,330,o),
(491,330,cs)
);
},
{
closed = 1;
nodes = (
(192,440,ls),
(163,440,o),
(143,424,o),
(136,395,cs),
(132,375,ls),
(125,346,o),
(137,330,o),
(166,330,cs),
(616,330,ls),
(645,330,o),
(665,344,o),
(670,369,cs),
(670,369,ls),
(676,394,o),
(663,407,o),
(634,407,cs),
(310,407,l),
(310,407,ls),
(315,428,o),
(302,440,o),
(273,440,cs)
);
},
{
closed = 1;
nodes = (
(150,550,ls),
(121,550,o),
(103,534,o),
(100,505,cs),
(98,485,ls),
(95,456,o),
(109,440,o),
(138,440,cs),
(219,440,ls),
(248,440,o),
(266,456,o),
(269,485,cs),
(273,521,l),
(606,521,ls),
(635,521,o),
(651,527,o),
(652,536,cs),
(652,536,ls),
(653,545,o),
(638,550,o),
(609,550,cs)
);
}
);
width = 639;
}
);
note = E;
unicode = 69;
},
{
glyphname = Schwa;
kernLeft = C;
kernRight = O;
lastChange = "2024-07-19 12:08:54 +0000";
layers = (
{
layerId = "F5467FAD-1970-4982-B3D3-939C01050498";
shapes = (
{
closed = 1;
nodes = (
(628,327,l),
(31,327,l),
(29,309,o),
(28,291,o),
(28,274,cs),
(28,106,o),
(141,-5,o),
(324,-5,cs),
(505,-5,o),
(658,113,o),
(658,322,cs),
(658,554,o),
(498,664,o),
(316,664,cs),
(185,664,o),
(75,621,o),
(30,547,c),
(60,528,l),
(109,594,o),
(170,635,o),
(316,635,cs),
(476,635,o),
(622,538,o),
(620,315,cs),
(618,139,o),
(506,25,o),
(324,25,cs),
(161,25,o),
(58,132,o),
(73,290,c),
(628,290,l)
);
}
);
width = 687;
},
{
layerId = "6DD95C5A-998B-41AB-BDFB-84A73C209871";
shapes = (
{
closed = 1;
nodes = (
(595,380,l),
(66,374,l),
(58,339,o),
(55,307,o),
(55,276,cs),
(55,104,o),
(179,-5,o),
(379,-5,cs),
(577,-5,o),
(716,121,o),
(716,323,cs),
(716,549,o),
(572,665,o),
(367,665,cs),
(223,665,o),
(92,604,o),
(47,486,c),
(158,422,l),
(188,499,o),
(246,555,o),
(348,555,cs),
(503,555,o),
(571,474,o),
(571,323,cs),
(571,163,o),
(468,104,o),
(374,104,cs),
(270,104,o),
(207,142,o),
(218,246,c),
(587,246,l)
);
}
);
width = 763;
},
{
layerId = "1FDC7037-1F88-4969-8535-0F79C1EF19DB";
shapes = (
{
closed = 1;
nodes = (
(635,319,l),
(26,320,l),
(25,305,o),
(25,289,o),
(25,274,cs),
(25,106,o),
(135,-5,o),
(317,-5,cs),
(495,-5,o),
(650,112,o),
(650,322,cs),
(650,555,o),
(487,664,o),
(308,664,cs),
(180,664,o),
(74,624,o),
(28,556,c),
(45,545,l),
(98,609,o),
(158,647,o),
(312,647,cs),
(473,647,o),
(632,549,o),
(628,314,cs),
(626,135,o),
(514,12,o),
(318,12,cs),
(145,12,o),
(35,130,o),
(50,298,c),
(636,298,l)
);
}
);
width = 675;
},
{
guides = (
{
pos = (0,-330);
},
{
pos = (0,-220);
},
{
pos = (0,-110);
},
{
},
{
pos = (0,110);
},
{
pos = (0,220);
},
{
pos = (0,330);
},
{
pos = (0,440);
},
{
pos = (0,550);
},
{
pos = (0,660);
},
{
pos = (0,770);
}
);
layerId = "3ED9E848-BE83-4CAC-8EFF-D71BD2B4F667";
shapes = (
{
closed = 1;
nodes = (
(321,0,l),
(344,-3,o),
(368,-5,o),
(393,-5,cs),
(416,-5,o),
(439,-3,o),
(460,0,c)
);
},
{
closed = 1;
nodes = (
(197,110,ls),
(156,110,o),
(140,77,o),
(174,54,cs),
(214,27,o),
(264,8,o),
(321,0,c),
(460,0,l),
(514,8,o),
(562,27,o),
(602,54,cs),
(636,77,o),
(620,110,o),
(579,110,cs)
);
},
{
closed = 1;
nodes = (
(453,660,l),
(430,663,o),
(405,665,o),
(380,665,cs),
(356,665,o),
(333,663,o),
(310,660,c)
);
},
{
closed = 1;
nodes = (
(575,220,ls),
(550,220,o),
(536,209,o),
(521,189,cs),
(485,141,o),
(431,124,o),
(388,124,cs),
(320,124,o),
(274,136,o),
(259,178,cs),
(250,205,o),
(239,220,o),
(212,220,cs),
(119,220,ls),
(87,220,o),
(69,200,o),
(80,170,cs),
(84,159,o),
(89,149,o),
(95,139,cs),
(107,118,o),
(125,110,o),
(149,110,cs),
(628,110,ls),
(652,110,o),
(669,117,o),
(682,138,cs),
(688,148,o),
(693,158,o),
(698,168,cs),
(713,199,o),
(695,220,o),
(662,220,cs)
);
},
{
closed = 1;
nodes = (
(583,330,l),
(584,346,ls),
(586,376,o),
(570,392,o),
(540,392,cs),
(116,387,ls),
(89,387,o),
(70,358,o),
(70,358,cs),
(70,358,o),
(70,358,o),
(70,358,cs),
(67,340,o),
(84,330,o),
(115,330,cs),
(559,330,l),
(559,328,o),
(559,327,o),
(559,325,cs),
(559,305,o),
(557,286,o),
(554,269,cs),
(549,238,o),
(559,220,o),
(591,220,cs),
(677,220,ls),
(704,220,o),
(722,233,o),
(726,260,cs),
(729,280,o),
(731,301,o),
(731,323,cs),
(731,324,o),
(731,325,o),
(731,327,cs),
(731,329,o),
(715,330,o),
(686,330,cs)
);
},
{
closed = 1;
nodes = (
(154,440,ls),
(135,440,o),
(129,427,o),
(145,418,cs),
(145,418,ls),
(169,404,o),
(192,418,o),
(192,418,cs),
(192,418,o),
(192,418,o),
(192,418,cs),
(197,431,o),
(182,440,o),
(154,440,cs)
);
},
{
closed = 1;
nodes = (
(591,440,ls),
(559,440,o),
(549,422,o),
(554,391,cs),
(557,372,o),
(558,352,o),
(559,330,c),
(109,330,ls),
(81,330,o),
(63,316,o),
(62,287,cs),
(62,284,o),
(62,280,o),
(62,276,cs),
(62,267,o),
(62,257,o),
(63,248,cs),
(65,229,o),
(82,220,o),
(110,220,cs),
(254,220,l),
(254,225,o),
(254,230,o),
(255,235,c),
(533,235,ls),
(561,235,o),
(578,251,o),
(580,279,cs),
(583,330,l),
(684,330,ls),
(714,330,o),
(731,347,o),
(728,377,cs),
(727,385,o),
(726,393,o),
(725,401,cs),
(720,427,o),
(702,440,o),
(675,440,cs)
);
},
{
closed = 1;
nodes = (
(130,550,ls),
(106,550,o),
(89,543,o),
(76,522,cs),
(74,518,o),
(71,514,o),
(69,510,cs),
(55,485,o),
(62,465,o),
(80,455,cs),
(80,455,ls),
(98,444,o),
(115,440,o),
(136,440,cs),
(167,440,ls),
(191,440,o),
(206,450,o),
(221,470,cs),
(252,510,o),
(297,536,o),
(356,536,cs),
(439,536,o),
(492,513,o),
(523,471,cs),
(537,451,o),
(551,440,o),
(576,440,cs),
(661,440,ls),
(694,440,o),
(711,461,o),
(697,492,cs),
(692,503,o),
(687,512,o),
(681,522,cs),
(668,543,o),
(651,550,o),
(627,550,cs)
);
},
{
closed = 1;
nodes = (
(310,660,l),
(255,652,o),
(204,634,o),
(160,606,cs),
(125,583,o),
(140,550,o),
(182,550,cs),
(577,550,ls),
(618,550,o),
(634,583,o),
(600,606,cs),
(559,634,o),
(509,652,o),
(453,660,c)
);
}
);
width = 783;
}
);
metricLeft = O;
metricRight = O;
unicode = 399;
},
{
glyphname = F;
kernLeft = B;
kernRight = F;
lastChange = "2024-07-19 21:21:30 +0000";
layers = (
{
layerId = "F5467FAD-1970-4982-B3D3-939C01050498";
shapes = (
{
closed = 1;
nodes = (
(95,0,l),
(95,319,l),
(532,319,l),
(532,349,l),
(95,349,l),
(95,631,l),
(542,631,l),
(542,660,l),
(56,660,l),
(56,0,l)
);
}
);
width = 575;
},
{
layerId = "6DD95C5A-998B-41AB-BDFB-84A73C209871";
shapes = (
{
closed = 1;
nodes = (
(202,0,l),
(202,279,l),
(584,279,l),
(584,396,l),
(202,396,l),
(202,543,l),
(593,543,l),
(593,660,l),
(57,660,l),
(57,0,l)
);
}
);
width = 631;
},
{
layerId = "1FDC7037-1F88-4969-8535-0F79C1EF19DB";
shapes = (
{
closed = 1;
nodes = (
(78,0,l),
(78,325,l),
(523,325,l),
(523,341,l),
(78,341,l),
(78,645,l),
(534,645,l),
(534,660,l),
(56,660,l),
(56,0,l)
);
}
);
width = 567;
},
{
guides = (
{
pos = (0,-330);
},
{
pos = (0,-220);
},
{
pos = (0,-110);
},
{
},
{
pos = (0,110);
},
{
pos = (0,220);
},
{
pos = (0,330);
},
{
pos = (0,440);
},
{
pos = (0,550);
},
{
pos = (0,660);
},
{
pos = (0,770);
}
);
layerId = "3ED9E848-BE83-4CAC-8EFF-D71BD2B4F667";
shapes = (
{
closed = 1;
nodes = (
(169,660,ls),
(140,660,o),
(123,644,o),
(120,615,cs),
(118,595,ls),
(115,566,o),
(129,550,o),
(158,550,cs),
(616,550,ls),
(645,550,o),
(663,566,o),
(666,595,cs),
(672,660,l)
);
},
{
closed = 1;
nodes = (
(122,110,ls),
(93,110,o),
(75,94,o),
(69,65,cs),
(65,45,ls),
(60,16,o),
(73,0,o),
(102,0,cs),
(183,0,ls),
(212,0,o),
(231,16,o),
(236,45,cs),
(240,65,ls),
(246,94,o),
(232,110,o),
(203,110,cs)
);
},
{
closed = 1;
nodes = (
(134,220,ls),
(105,220,o),
(87,204,o),
(82,175,cs),
(80,155,ls),
(75,126,o),
(89,110,o),
(118,110,cs),
(199,110,ls),
(228,110,o),
(246,126,o),
(251,155,cs),
(253,175,ls),
(258,204,o),
(244,220,o),
(215,220,cs)
);
},
{
closed = 1;
nodes = (
(117,330,ls),
(88,330,o),
(72,314,o),
(70,285,cs),
(69,265,ls),
(68,236,o),
(83,220,o),
(112,220,cs),
(193,220,ls),
(222,220,o),
(239,236,o),
(240,265,cs),
(241,270,l),
(565,270,ls),
(594,270,o),
(610,281,o),
(611,300,cs),
(611,300,ls),
(612,319,o),
(596,330,o),
(567,330,cs)
);
},
{
closed = 1;
nodes = (
(103,440,ls),
(74,440,o),
(58,424,o),
(58,395,cs),
(58,375,ls),
(58,346,o),
(74,330,o),
(103,330,cs),
(553,330,ls),
(582,330,o),
(598,344,o),
(598,369,cs),
(598,369,ls),
(598,394,o),
(582,407,o),
(553,407,cs),
(229,407,l),
(229,407,ls),
(229,428,o),
(213,440,o),
(184,440,cs)
);
},
{
closed = 1;
nodes = (
(147,550,ls),
(118,550,o),
(101,534,o),
(98,505,cs),
(97,485,ls),
(94,456,o),
(109,440,o),
(138,440,cs),
(219,440,ls),
(248,440,o),
(265,456,o),
(268,485,cs),
(271,521,l),
(603,521,ls),
(632,521,o),
(648,527,o),
(649,536,cs),
(649,536,ls),
(650,545,o),
(634,550,o),
(605,550,cs)
);
}
);
width = 644;
}
);
note = F;
unicode = 70;
},
{
glyphname = G;
kernLeft = C;
kernRight = G;
lastChange = "2024-07-19 21:21:30 +0000";
layers = (
{
anchors = (
{
name = bottom;
pos = (362,0);
},
{
name = top;
pos = (362,660);
}
);
layerId = "F5467FAD-1970-4982-B3D3-939C01050498";
shapes = (
{
closed = 1;
nodes = (
(518,-5,o),
(604,91,o),
(623,234,c),
(623,0,l),
(653,0,l),
(653,349,l),
(384,349,l),
(384,320,l),
(613,320,l),
(613,279,ls),
(613,179,o),
(545,25,o),
(361,25,cs),
(200,25,o),
(81,157,o),
(81,328,cs),
(81,504,o),
(201,636,o),
(362,636,cs),
(445,636,o),
(522,598,o),
(573,535,c),
(612,554,l),
(554,624,o),
(471,665,o),
(362,665,cs),
(163,665,o),
(30,515,o),
(30,328,cs),
(30,141,o),
(165,-5,o),
(361,-5,cs)
);
}
);
width = 695;
},
{
anchors = (
{
name = bottom;
pos = (391,0);
},
{
name = top;
pos = (392,660);
}
);
layerId = "6DD95C5A-998B-41AB-BDFB-84A73C209871";
shapes = (
{
closed = 1;
nodes = (
(502,-5,o),
(568,72,o),
(568,154,c),
(568,0,l),
(703,0,l),
(703,388,l),
(358,388,l),
(358,279,l),
(559,279,l),
(559,276,ls),
(559,187,o),
(515,104,o),
(392,104,cs),
(271,104,o),
(201,193,o),
(201,328,cs),
(201,464,o),
(285,556,o),
(392,556,cs),
(463,556,o),
(516,524,o),
(555,450,c),
(683,514,l),
(631,601,o),
(526,665,o),
(392,665,cs),
(186,665,o),
(47,507,o),
(47,328,cs),
(47,151,o),
(167,-5,o),
(388,-5,cs)
);
}
);
width = 760;
},
{
anchors = (
{
name = bottom;
pos = (357,0);
},
{
name = top;
pos = (357,660);
}
);
layerId = "1FDC7037-1F88-4969-8535-0F79C1EF19DB";
shapes = (
{
closed = 1;
nodes = (
(521,-5,o),
(610,95,o),
(632,246,c),
(632,0,l),
(644,0,l),
(644,342,l),
(388,342,l),
(388,326,l),
(621,326,l),
(621,279,ls),
(621,178,o),
(550,12,o),
(356,12,cs),
(189,12,o),
(62,151,o),
(62,328,cs),
(62,510,o),
(188,648,o),
(357,648,cs),
(442,648,o),
(523,609,o),
(576,548,c),
(601,561,l),
(542,628,o),
(462,665,o),
(357,665,cs),
(159,665,o),
(27,516,o),
(27,328,cs),
(27,139,o),
(165,-5,o),
(357,-5,cs)
);
}
);
width = 685;
},
{
anchors = (
{
name = bottom;
pos = (399,0);
},
{
name = top;
pos = (400,660);
}
);
guides = (
{
pos = (0,-330);
},
{
pos = (0,-220);
},
{
pos = (0,-110);
},
{
},
{
pos = (0,110);
},
{
pos = (0,220);
},
{
pos = (0,330);
},
{
pos = (0,440);
},
{
pos = (0,550);
},
{
pos = (0,660);
},
{
pos = (0,770);
}
);
layerId = "3ED9E848-BE83-4CAC-8EFF-D71BD2B4F667";
shapes = (
{
closed = 1;
nodes = (
(388,660,l),
(368,663,o),
(347,665,o),
(325,665,cs),
(304,665,o),
(283,663,o),
(263,660,c)
);
},
{
closed = 1;
nodes = (
(327,0,l),
(347,-3,o),
(369,-5,o),
(393,-5,cs),
(401,-5,o),
(409,-5,o),
(416,-4,cs),
(411,-4,o),
(371,0,o),
(384,0,cs)
);
},
{
closed = 1;
nodes = (
(195,110,ls),
(154,110,o),
(142,77,o),
(179,54,cs),
(215,32,o),
(255,15,o),
(299,5,cs),
(320,1,o),
(334,0,o),
(354,0,cs),
(412,0,ls),
(432,0,o),
(447,1,o),
(465,9,cs),
(492,20,o),
(511,37,o),
(524,59,cs),
(540,87,o),
(516,110,o),
(483,110,cs)
);
},
{
closed = 1;
nodes = (
(584,110,ls),
(555,110,o),
(541,94,o),
(545,65,cs),
(548,45,ls),
(552,16,o),
(570,0,o),
(599,0,cs),
(671,0,ls),
(700,0,o),
(714,16,o),
(710,45,cs),
(707,65,ls),
(703,94,o),
(685,110,o),
(656,110,cs)
);
},
{
closed = 1;
nodes = (
(658,330,ls),
(687,330,o),
(702,342,o),
(702,364,cs),
(702,364,ls),
(701,385,o),
(684,397,o),
(655,397,cs),
(381,397,ls),
(352,397,o),
(337,385,o),
(338,364,cs),
(338,364,ls),
(338,343,o),
(355,330,o),
(384,330,cs)
);
},
{
closed = 1;
nodes = (
(599,220,ls),
(573,220,o),
(559,208,o),
(543,185,cs),
(518,148,o),
(477,124,o),
(412,124,cs),
(351,124,o),
(308,147,o),
(284,188,cs),
(272,209,o),
(259,220,o),
(234,220,cs),
(145,220,ls),
(111,220,o),
(92,198,o),
(104,168,cs),
(108,157,o),
(113,147,o),
(118,138,cs),
(129,117,o),
(145,110,o),
(169,110,cs),
(519,110,ls),
(547,110,o),
(567,134,o),
(567,134,cs),
(567,134,o),
(567,134,o),
(567,134,c),
(567,134,ls),
(565,119,o),
(580,110,o),
(609,110,cs),
(681,110,ls),
(710,110,o),
(728,126,o),
(731,155,cs),
(732,175,ls),
(735,204,o),
(721,220,o),
(692,220,cs)
);
},
{
closed = 1;
nodes = (
(92,330,l),
(92,329,o),
(92,329,o),
(92,328,cs),
(89,305,o),
(88,281,o),
(89,259,cs),
(91,232,o),
(108,220,o),
(134,220,cs),
(224,220,ls),
(256,220,o),
(270,238,o),
(268,269,cs),
(268,288,o),
(268,307,o),
(271,328,cs),
(271,329,o),
(271,329,o),
(271,330,c)
);
},
{
closed = 1;
nodes = (
(342,330,ls),
(313,330,o),
(299,319,o),
(302,300,cs),
(302,300,ls),
(305,281,o),
(323,269,o),
(352,269,cs),
(501,269,l),
(500,275,ls),
(502,265,o),
(504,256,o),
(504,247,cs),
(505,230,o),
(522,220,o),
(552,220,cs),
(635,220,ls),
(664,220,o),
(677,236,o),
(672,265,cs),
(669,285,ls),
(664,314,o),
(645,330,o),
(616,330,cs)
);
},
{
closed = 1;
nodes = (
(140,440,ls),
(114,440,o),
(95,428,o),
(88,402,cs),
(85,394,o),
(83,385,o),
(81,377,cs),
(75,347,o),
(91,330,o),
(121,330,cs),
(210,330,ls),
(238,330,o),
(253,345,o),
(259,373,cs),
(261,379,o),
(263,384,o),
(265,390,cs),
(274,422,o),
(264,440,o),
(232,440,cs)
);
},
{
closed = 1;
nodes = (
(512,440,l),
(514,436,o),
(517,433,o),
(519,429,c),
(519,429,ls),
(527,433,o),
(531,440,o),
(526,440,cs)
);
},
{
closed = 1;
nodes = (
(193,550,ls),
(170,550,o),
(152,543,o),
(137,524,cs),
(130,514,o),
(123,503,o),
(117,493,cs),
(99,463,o),
(115,440,o),
(149,440,cs),
(238,440,ls),
(262,440,o),
(278,450,o),
(293,471,cs),
(326,513,o),
(373,537,o),
(424,537,cs),
(478,537,o),
(517,518,o),
(547,471,cs),
(561,450,o),
(570,440,o),
(579,440,cs),
(579,440,ls),
(589,440,o),
(600,444,o),
(619,453,cs),
(679,483,ls),
(707,496,o),
(708,528,o),
(708,528,cs),
(708,528,o),
(708,528,o),
(708,528,cs),
(698,544,o),
(681,550,o),
(658,550,cs)
);
},
{
closed = 1;
nodes = (
(416,660,ls),
(396,660,o),
(382,659,o),
(362,654,cs),
(321,644,o),
(282,628,o),
(247,606,cs),
(210,583,o),
(223,550,o),
(265,550,cs),
(625,550,ls),
(667,550,o),
(684,583,o),
(651,606,cs),
(620,628,o),
(582,645,o),
(541,655,cs),
(521,659,o),
(507,660,o),
(487,660,cs)
);
}
);
width = 776;
}
);
note = G;
unicode = 71;
},
{
glyphname = H;
kernLeft = B;
kernRight = H;
lastChange = "2024-07-19 21:21:30 +0000";
layers = (
{
anchors = (
{
name = bottom;
pos = (331,0);
},
{
name = top;
pos = (331,660);
}
);
layerId = "F5467FAD-1970-4982-B3D3-939C01050498";
shapes = (
{
closed = 1;
nodes = (
(92,0,l),
(92,328,l),
(569,328,l),
(569,0,l),
(608,0,l),
(608,660,l),
(569,660,l),
(569,368,l),
(92,368,l),
(92,660,l),
(53,660,l),
(53,0,l)
);
}
);
width = 661;
},
{
anchors = (
{
name = bottom;
pos = (346,0);
},
{
name = top;
pos = (346,660);
}
);
layerId = "6DD95C5A-998B-41AB-BDFB-84A73C209871";
shapes = (
{
closed = 1;
nodes = (
(192,0,l),
(192,287,l),
(499,287,l),
(499,0,l),
(644,0,l),
(644,660,l),
(499,660,l),
(499,405,l),
(192,405,l),
(192,660,l),
(47,660,l),
(47,0,l)
);
}
);
width = 691;
},
{
anchors = (
{
name = bottom;
pos = (328,0);
},
{
name = top;
pos = (328,660);
}
);
layerId = "1FDC7037-1F88-4969-8535-0F79C1EF19DB";
shapes = (
{
closed = 1;
nodes = (
(76,0,l),
(76,335,l),
(580,335,l),
(580,0,l),
(603,0,l),
(603,660,l),
(580,660,l),
(580,362,l),
(76,362,l),
(76,660,l),
(54,660,l),
(54,0,l)
);
}
);
width = 656;
},
{
anchors = (
{
name = bottom;
pos = (350,0);
},
{
name = top;
pos = (350,660);
}
);
guides = (
{
pos = (0,-330);
},
{
pos = (0,-220);
},
{
pos = (0,-110);
},
{
},
{
pos = (0,110);
},
{
pos = (0,220);
},
{
pos = (0,330);
},
{
pos = (0,440);
},
{
pos = (0,550);
},
{
pos = (0,660);
},
{
pos = (0,770);
}
);
layerId = "3ED9E848-BE83-4CAC-8EFF-D71BD2B4F667";
shapes = (
{
closed = 1;
nodes = (
(85,110,ls),
(56,110,o),
(41,94,o),
(42,65,cs),
(43,45,ls),
(45,16,o),
(62,0,o),
(91,0,cs),
(172,0,ls),
(201,0,o),
(216,16,o),
(214,45,cs),
(213,65,ls),
(212,94,o),
(195,110,o),
(166,110,cs)
);
},
{
closed = 1;
nodes = (
(543,110,ls),
(514,110,o),
(496,94,o),
(491,65,cs),
(488,45,ls),
(484,16,o),
(498,0,o),
(527,0,cs),
(608,0,ls),
(637,0,o),
(655,16,o),
(659,45,cs),
(662,65,ls),
(667,94,o),
(653,110,o),
(624,110,cs)
);
},
{
closed = 1;
nodes = (
(107,220,ls),
(78,220,o),
(61,204,o),
(59,175,cs),
(58,155,ls),
(55,126,o),
(70,110,o),
(99,110,cs),
(180,110,ls),
(209,110,o),
(226,126,o),
(229,155,cs),
(230,175,ls),
(232,204,o),
(217,220,o),
(188,220,cs)
);
},
{
closed = 1;
nodes = (
(513,220,ls),
(484,220,o),
(469,204,o),
(471,175,cs),
(472,155,ls),
(474,126,o),
(491,110,o),
(520,110,cs),
(601,110,ls),
(630,110,o),
(645,126,o),
(643,155,cs),
(642,175,ls),
(640,204,o),
(623,220,o),
(594,220,cs)
);
},
{
closed = 1;
nodes = (
(67,330,ls),
(38,330,o),
(23,314,o),
(25,285,cs),
(27,265,ls),
(29,236,o),
(46,220,o),
(75,220,cs),
(156,220,ls),
(185,220,o),
(200,236,o),
(198,265,cs),
(197,276,l),
(462,276,l),
(463,265,ls),
(465,236,o),
(482,220,o),
(511,220,cs),
(592,220,ls),
(621,220,o),
(636,236,o),
(634,265,cs),
(632,285,ls),
(630,314,o),
(613,330,o),
(584,330,cs)
);
},
{
closed = 1;
nodes = (
(674,660,l),
(548,660,ls),
(519,660,o),
(502,644,o),
(501,615,cs),
(501,595,ls),
(500,566,o),
(515,550,o),
(544,550,cs),
(625,550,ls),
(654,550,o),
(671,566,o),
(672,595,cs),
(672,615,ls),
(673,644,o),
(658,660,o),
(629,660,cs),
(238,660,l),
(112,660,ls),
(83,660,o),
(66,644,o),
(65,615,cs),
(65,595,ls),
(64,566,o),
(79,550,o),
(108,550,cs),
(189,550,ls),
(218,550,o),
(235,566,o),
(236,595,cs),
(238,660,l)
);
},
{
closed = 1;
nodes = (
(494,440,ls),
(465,440,o),
(449,431,o),
(451,414,cs),
(451,414,l),
(186,414,l),
(186,414,ls),
(184,431,o),
(168,440,o),
(139,440,cs),
(58,440,ls),
(29,440,o),
(14,424,o),
(16,395,cs),
(18,375,ls),
(20,346,o),
(37,330,o),
(66,330,cs),
(583,330,ls),
(612,330,o),
(627,346,o),
(625,375,cs),
(623,395,ls),
(621,424,o),
(604,440,o),
(575,440,cs)
);
},
{
closed = 1;
nodes = (
(118,550,ls),
(89,550,o),
(73,534,o),
(71,505,cs),
(70,485,ls),
(69,456,o),
(84,440,o),
(113,440,cs),
(194,440,ls),
(223,440,o),
(240,456,o),
(241,485,cs),
(242,505,ls),
(244,534,o),
(228,550,o),
(199,550,cs)
);
},
{
closed = 1;
nodes = (
(473,550,ls),
(444,550,o),
(430,534,o),
(432,505,cs),
(434,485,ls),
(437,456,o),
(455,440,o),
(484,440,cs),
(565,440,ls),
(594,440,o),
(608,456,o),
(605,485,cs),
(603,505,ls),
(601,534,o),
(583,550,o),
(554,550,cs)
);
}
);
width = 699;
}
);
note = H;
unicode = 72;
},
{
glyphname = Hbar;
lastChange = "2024-07-19 12:08:54 +0000";
layers = (
{
layerId = "F5467FAD-1970-4982-B3D3-939C01050498";
shapes = (
{
closed = 1;
nodes = (
(716,516,l),
(19,516,l),
(19,476,l),
(716,476,l)
);
},
{
pos = (37,0);
ref = H;
}
);
width = 735;
},
{
layerId = "6DD95C5A-998B-41AB-BDFB-84A73C209871";
shapes = (
{
closed = 1;
nodes = (
(757,574,l),
(19,574,l),
(19,456,l),
(757,456,l)
);
},
{
pos = (42,0);
ref = H;
}
);
width = 776;
},
{
layerId = "1FDC7037-1F88-4969-8535-0F79C1EF19DB";
shapes = (
{
closed = 1;
nodes = (
(709,506,l),
(19,506,l),
(19,479,l),
(709,479,l)
);
},
{
pos = (36,0);
ref = H;
}
);
width = 728;
},
{
guides = (
{
pos = (0,-330);
},
{
pos = (0,-220);
},
{
pos = (0,-110);
},
{
},
{
pos = (0,110);
},
{
pos = (0,220);
},
{
pos = (0,330);
},
{
pos = (0,440);
},
{
pos = (0,550);
},
{
pos = (0,660);
},
{
pos = (0,770);
}
);
layerId = "3ED9E848-BE83-4CAC-8EFF-D71BD2B4F667";
shapes = (
{
closed = 1;
nodes = (
(723,550,ls),
(752,550,o),
(768,557,o),
(768,569,cs),
(768,569,ls),
(768,581,o),
(752,588,o),
(723,588,cs),
(64,588,ls),
(35,588,o),
(19,581,o),
(19,569,cs),
(19,569,ls),
(19,557,o),
(35,550,o),
(64,550,cs)
);
},
{
pos = (43,0);
ref = H;
},
{
closed = 1;
nodes = (
(64,550,ls),
(35,550,o),
(19,534,o),
(19,505,cs),
(19,497,ls),
(19,468,o),
(35,452,o),
(64,452,cs),
(723,452,ls),
(752,452,o),
(768,468,o),
(768,497,cs),
(768,505,ls),
(768,534,o),
(752,550,o),
(723,550,cs)
);
}
);
width = 786;
}
);
unicode = 294;
},
{
glyphname = I;
kernLeft = I;
kernRight = I;
lastChange = "2024-07-19 21:21:30 +0000";
layers = (
{
anchors = (
{
name = bottom;
pos = (97,0);
},
{
name = ogonek;
pos = (78,0);
},
{
name = top;
pos = (97,660);
}
);
layerId = "F5467FAD-1970-4982-B3D3-939C01050498";
shapes = (
{
closed = 1;
nodes = (
(118,0,l),
(118,660,l),
(78,660,l),
(78,0,l)
);
}
);
width = 196;
},
{
anchors = (
{
name = bottom;
pos = (139,0);
},
{
name = ogonek;
pos = (66,0);
},
{
name = top;
pos = (139,660);
}
);
layerId = "6DD95C5A-998B-41AB-BDFB-84A73C209871";
shapes = (
{
closed = 1;
nodes = (
(211,0,l),
(211,660,l),
(66,660,l),
(66,0,l)
);
}
);
width = 277;
},
{
anchors = (
{
name = bottom;
pos = (91,0);
},
{
name = ogonek;
pos = (80,0);
},
{
name = top;
pos = (91,660);
}
);
layerId = "1FDC7037-1F88-4969-8535-0F79C1EF19DB";
shapes = (
{
closed = 1;
nodes = (
(103,0,l),
(103,660,l),
(80,660,l),
(80,0,l)
);
}
);
width = 183;
},
{
anchors = (
{
name = bottom;
pos = (149,0);
},
{
name = ogonek;
pos = (63,0);
},
{
name = top;
pos = (149,660);
}
);
guides = (
{
pos = (0,-330);
},
{
pos = (0,-220);
},
{
pos = (0,-110);
},
{
},
{
pos = (0,110);
},
{
pos = (0,220);
},
{
pos = (0,330);
},
{
pos = (0,440);
},
{
pos = (0,550);
},
{
pos = (0,660);
},
{
pos = (0,770);
},
{
pos = (0,-330);
},
{
pos = (0,-220);
},
{
pos = (0,-110);
},
{
},
{
pos = (0,110);
},
{
pos = (0,220);
},
{
pos = (0,330);
},
{
pos = (0,440);
},
{
pos = (0,550);
},
{
pos = (0,660);
},
{
pos = (0,770);
}
);
layerId = "3ED9E848-BE83-4CAC-8EFF-D71BD2B4F667";
shapes = (
{
closed = 1;
nodes = (
(237,660,ls),
(208,660,o),
(189,644,o),
(183,615,cs),
(179,595,ls),
(174,566,o),
(186,550,o),
(215,550,cs),
(296,550,ls),
(325,550,o),
(345,566,o),
(350,595,cs),
(354,615,ls),
(360,644,o),
(347,660,o),
(318,660,cs)
);
},
{
closed = 1;
nodes = (
(115,110,ls),
(86,110,o),
(69,94,o),
(67,65,cs),
(66,45,ls),
(64,16,o),
(79,0,o),
(108,0,cs),
(189,0,ls),
(218,0,o),
(235,16,o),
(237,45,cs),
(238,65,ls),
(240,94,o),
(225,110,o),
(196,110,cs)
);
},
{
closed = 1;
nodes = (
(140,220,ls),
(111,220,o),
(93,204,o),
(88,175,cs),
(85,155,ls),
(81,126,o),
(95,110,o),
(124,110,cs),
(205,110,ls),
(234,110,o),
(252,126,o),
(256,155,cs),
(259,175,ls),
(264,204,o),
(250,220,o),
(221,220,cs)
);
},
{
closed = 1;
nodes = (
(94,330,ls),
(65,330,o),
(50,314,o),
(51,285,cs),
(52,265,ls),
(53,236,o),
(70,220,o),
(99,220,cs),
(180,220,ls),
(209,220,o),
(224,236,o),
(223,265,cs),
(222,285,ls),
(221,314,o),
(204,330,o),
(175,330,cs)
);
},
{
closed = 1;
nodes = (
(207,440,ls),
(178,440,o),
(158,424,o),
(152,395,cs),
(147,375,ls),
(141,346,o),
(153,330,o),
(182,330,cs),
(263,330,ls),
(292,330,o),
(312,346,o),
(318,375,cs),
(323,395,ls),
(329,424,o),
(317,440,o),
(288,440,cs)
);
},
{
closed = 1;
nodes = (
(233,550,ls),
(204,550,o),
(184,534,o),
(177,505,cs),
(173,485,ls),
(166,456,o),
(179,440,o),
(208,440,cs),
(289,440,ls),
(318,440,o),
(337,456,o),
(344,485,cs),
(348,505,ls),
(355,534,o),
(343,550,o),
(314,550,cs)
);
}
);
width = 297;
}
);
note = I;
unicode = 73;
},
{
glyphname = Iacute;
kernLeft = I;
kernRight = I;
lastChange = "2024-07-19 21:09:57 +0000";
layers = (
{
layerId = "F5467FAD-1970-4982-B3D3-939C01050498";
shapes = (
{
closed = 1;
nodes = (
(118,0,l),
(118,660,l),
(78,660,l),
(78,0,l)
);
},
{
closed = 1;
nodes = (
(176,843,l),
(155,880,l),
(41,773,l),
(58,769,l)
);
}
);
width = 196;
},
{
layerId = "6DD95C5A-998B-41AB-BDFB-84A73C209871";
shapes = (
{
closed = 1;
nodes = (
(211,0,l),
(211,660,l),
(66,660,l),
(66,0,l)
);
},
{
closed = 1;
nodes = (
(273,800,l),
(201,920,l),
(0,733,l),
(111,699,l)
);
}
);
width = 277;
},
{
layerId = "1FDC7037-1F88-4969-8535-0F79C1EF19DB";
shapes = (
{
closed = 1;
nodes = (
(103,0,l),
(103,660,l),
(80,660,l),
(80,0,l)
);
},
{
closed = 1;
nodes = (
(161,850,l),
(147,873,l),
(48,780,l),
(49,780,l)
);
}
);
width = 183;
},
{
guides = (
{
pos = (0,-330);
},
{
pos = (0,-220);
},
{
pos = (0,-110);
},
{
},
{
pos = (0,110);
},
{
pos = (0,220);
},
{
pos = (0,330);
},
{
pos = (0,440);
},
{
pos = (0,550);
},
{
pos = (0,660);
},
{
pos = (0,770);
}
);
layerId = "3ED9E848-BE83-4CAC-8EFF-D71BD2B4F667";
shapes = (
{
closed = 1;
nodes = (
(108,660,ls),
(79,660,o),
(63,644,o),
(63,615,cs),
(63,595,ls),
(63,566,o),
(79,550,o),
(108,550,cs),
(189,550,ls),
(218,550,o),
(234,566,o),
(234,595,cs),
(234,660,l)
);
},
{
closed = 1;
nodes = (
(236,770,ls),
(257,770,o),
(271,773,o),
(282,780,cs),
(282,780,ls),
(292,786,o),
(289,802,o),
(274,827,cs),
(238,887,ls),
(222,915,o),
(198,918,o),
(175,896,cs),
(100,825,ls),
(70,797,o),
(81,770,o),
(122,770,cs)
);
},
{
closed = 1;
nodes = (
(108,110,ls),
(79,110,o),
(63,94,o),
(63,65,cs),
(63,45,ls),
(63,16,o),
(79,0,o),
(108,0,cs),
(189,0,ls),
(218,0,o),
(234,16,o),
(234,45,cs),
(234,65,ls),
(234,94,o),
(218,110,o),
(189,110,cs)
);
},
{
closed = 1;
nodes = (
(108,220,ls),
(79,220,o),
(63,204,o),
(63,175,cs),
(63,155,ls),
(63,126,o),
(79,110,o),
(108,110,cs),
(189,110,ls),
(218,110,o),
(234,126,o),
(234,155,cs),
(234,175,ls),
(234,204,o),
(218,220,o),
(189,220,cs)
);
},
{
closed = 1;
nodes = (
(108,330,ls),
(79,330,o),
(63,314,o),
(63,285,cs),
(63,265,ls),
(63,236,o),
(79,220,o),
(108,220,cs),
(189,220,ls),
(218,220,o),
(234,236,o),
(234,265,cs),
(234,285,ls),
(234,314,o),
(218,330,o),
(189,330,cs)
);
},
{
closed = 1;
nodes = (
(108,440,ls),
(79,440,o),
(63,424,o),
(63,395,cs),
(63,375,ls),
(63,346,o),
(79,330,o),
(108,330,cs),
(189,330,ls),
(218,330,o),
(234,346,o),
(234,375,cs),
(234,395,ls),
(234,424,o),
(218,440,o),
(189,440,cs)
);
},
{
closed = 1;
nodes = (
(108,550,ls),
(79,550,o),
(63,534,o),
(63,505,cs),
(63,485,ls),
(63,456,o),
(79,440,o),
(108,440,cs),
(189,440,ls),
(218,440,o),
(234,456,o),
(234,485,cs),
(234,505,ls),
(234,534,o),
(218,550,o),
(189,550,cs)
);
},
{
closed = 1;
nodes = (
(73,770,ls),
(50,770,o),
(34,764,o),
(18,748,cs),
(16,746,ls),
(2,732,o),
(14,715,o),
(49,704,cs),
(92,691,ls),
(114,684,o),
(132,686,o),
(152,699,cs),
(195,726,ls),
(225,745,o),
(207,770,o),
(163,770,cs)
);
}
);
width = 297;
}
);
note = Iacute;
unicode = 205;
},
{
glyphname = J;
kernLeft = J;
kernRight = J;
lastChange = "2024-07-19 21:21:30 +0000";
layers = (
{
anchors = (
{
name = top;
pos = (438,660);
}
);
layerId = "F5467FAD-1970-4982-B3D3-939C01050498";
shapes = (
{
closed = 1;
nodes = (
(355,-11,o),
(460,56,o),
(460,184,c),
(459,660,l),
(419,660,l),
(419,184,ls),
(419,71,o),
(328,14,o),
(236,14,cs),
(148,14,o),
(104,53,o),
(80,93,c),
(47,72,l),
(79,23,o),
(138,-11,o),
(236,-11,cs)
);
}
);
width = 520;
},
{
anchors = (
{
name = top;
pos = (424,660);
}
);
layerId = "6DD95C5A-998B-41AB-BDFB-84A73C209871";
shapes = (
{
closed = 1;
nodes = (
(397,-11,o),
(506,77,o),
(506,242,cs),
(505,660,l),
(360,660,l),
(360,225,ls),
(360,133,o),
(310,94,o),
(253,94,cs),
(174,94,o),
(163,138,o),
(142,196,c),
(23,113,l),
(49,50,o),
(122,-11,o),
(253,-11,cs)
);
}
);
width = 582;
},
{
anchors = (
{
name = top;
pos = (440,660);
}
);
layerId = "1FDC7037-1F88-4969-8535-0F79C1EF19DB";
shapes = (
{
closed = 1;
nodes = (
(348,-11,o),
(453,52,o),
(453,174,c),
(452,660,l),
(428,660,l),
(428,177,ls),
(428,60,o),
(331,1,o),
(233,1,cs),
(144,1,o),
(94,40,o),
(70,77,c),
(51,65,l),
(84,18,o),
(141,-11,o),
(233,-11,cs)
);
}
);
width = 510;
},
{
anchors = (
{
name = top;
pos = (421,660);
}
);
guides = (
{
pos = (0,-330);
},
{
pos = (0,-220);
},
{
pos = (0,-110);
},
{
},
{
pos = (0,110);
},
{
pos = (0,220);
},
{
pos = (0,330);
},
{
pos = (0,440);
},
{
pos = (0,550);
},
{
pos = (0,660);
},
{
pos = (0,770);
}
);
layerId = "3ED9E848-BE83-4CAC-8EFF-D71BD2B4F667";
shapes = (
{
closed = 1;
nodes = (
(198,220,l),
(197,221,o),
(197,221,o),
(198,222,c),
(194,220,l)
);
},
{
closed = 1;
nodes = (
(254,0,ls),
(268,0,o),
(254,-11,o),
(254,-11,cs),
(254,-11,o),
(254,-11,o),
(254,-11,cs),
(269,-11,o),
(283,-10,o),
(297,-8,cs),
(291,-9,o),
(243,0,o),
(254,0,cs)
);
},
{
closed = 1;
nodes = (
(91,110,ls),
(54,110,o),
(35,82,o),
(63,56,cs),
(82,37,o),
(108,21,o),
(139,9,cs),
(159,1,o),
(174,0,o),
(194,0,cs),
(313,0,ls),
(333,0,o),
(348,1,o),
(367,9,cs),
(395,20,o),
(420,35,o),
(441,55,cs),
(469,81,o),
(452,110,o),
(414,110,cs)
);
},
{
closed = 1;
nodes = (
(398,660,ls),
(369,660,o),
(353,644,o),
(353,615,cs),
(353,595,ls),
(352,566,o),
(368,550,o),
(397,550,cs),
(479,550,ls),
(508,550,o),
(524,565,o),
(525,595,cs),
(524,660,l)
);
},
{
closed = 1;
nodes = (
(426,220,ls),
(399,220,o),
(383,206,o),
(370,178,cs),
(348,133,o),
(313,114,o),
(276,114,cs),
(202,114,o),
(205,157,o),
(197,220,c),
(195,220,ls),
(194,220,o),
(185,214,o),
(164,202,cs),
(39,124,l),
(39,121,o),
(40,119,o),
(41,117,cs),
(42,112,o),
(54,110,o),
(79,110,cs),
(466,110,ls),
(491,110,o),
(511,120,o),
(524,143,cs),
(529,152,o),
(533,162,o),
(538,171,cs),
(550,202,o),
(537,220,o),
(506,220,cs)
);
},
{
closed = 1;
nodes = (
(335,330,ls),
(306,330,o),
(293,314,o),
(298,285,cs),
(306,236,ls),
(307,233,o),
(307,230,o),
(308,228,cs),
(308,223,o),
(325,220,o),
(354,220,cs),
(435,220,ls),
(463,220,o),
(475,256,o),
(475,256,cs),
(475,256,o),
(475,256,o),
(475,256,c),
(470,285,ls),
(465,314,o),
(446,330,o),
(417,330,cs)
);
},
{
closed = 1;
nodes = (
(423,440,ls),
(394,440,o),
(377,424,o),
(375,395,cs),
(373,375,ls),
(371,346,o),
(386,330,o),
(415,330,cs),
(497,330,ls),
(526,330,o),
(543,346,o),
(545,375,cs),
(547,395,ls),
(549,424,o),
(534,440,o),
(505,440,cs)
);
},
{
closed = 1;
nodes = (
(308,550,ls),
(279,550,o),
(266,534,o),
(270,505,cs),
(273,485,ls),
(277,456,o),
(296,440,o),
(325,440,cs),
(407,440,ls),
(436,440,o),
(449,456,o),
(445,485,cs),
(442,505,ls),
(438,534,o),
(419,550,o),
(390,550,cs)
);
}
);
width = 597;
}
);
note = J;
unicode = 74;
},
{
glyphname = K;
kernLeft = B;
kernRight = K;
lastChange = "2024-07-19 21:21:30 +0000";
layers = (
{
anchors = (
{
name = bottom;
pos = (263,0);
},
{
name = top;
pos = (263,660);
}
);
layerId = "F5467FAD-1970-4982-B3D3-939C01050498";
shapes = (
{
closed = 1;
nodes = (
(93,0,l),
(93,244,l),
(222,386,l),
(473,0,l),
(521,0,l),
(250,416,l),
(472,660,l),
(429,660,l),
(93,293,l),
(93,660,l),
(53,660,l),
(53,0,l)
);
}
);
width = 554;
},
{
anchors = (
{
name = bottom;
pos = (329,0);
},
{
name = top;
pos = (329,660);
}
);
layerId = "6DD95C5A-998B-41AB-BDFB-84A73C209871";
shapes = (
{
closed = 1;
nodes = (
(192,0,l),
(192,224,l),
(258,296,l),
(454,0,l),
(617,0,l),
(353,401,l),
(590,660,l),
(423,660,l),
(192,408,l),
(192,660,l),
(47,660,l),
(47,0,l)
);
}
);
width = 640;
},
{
anchors = (
{
name = bottom;
pos = (253,0);
},
{
name = top;
pos = (253,660);
}
);
layerId = "1FDC7037-1F88-4969-8535-0F79C1EF19DB";
shapes = (
{
closed = 1;
nodes = (
(77,0,l),
(77,248,l),
(216,400,l),
(476,0,l),
(505,0,l),
(234,419,l),
(454,660,l),
(430,660,l),
(77,274,l),
(77,660,l),
(54,660,l),
(54,0,l)
);
}
);
width = 539;
},
{
anchors = (
{
name = bottom;
pos = (345,0);
},
{
name = top;
pos = (345,660);
}
);
guides = (
{
pos = (0,-330);
},
{
pos = (0,-220);
},
{
pos = (0,-110);
},
{
},
{
pos = (0,110);
},
{
pos = (0,220);
},
{
pos = (0,330);
},
{
pos = (0,440);
},
{
pos = (0,550);
},
{
pos = (0,660);
},
{
pos = (0,770);
}
);
layerId = "3ED9E848-BE83-4CAC-8EFF-D71BD2B4F667";
shapes = (
{
closed = 1;
nodes = (
(81,110,ls),
(52,110,o),
(37,94,o),
(40,65,cs),
(42,45,ls),
(44,16,o),
(62,0,o),
(91,0,cs),
(172,0,ls),
(201,0,o),
(215,16,o),
(213,45,cs),
(211,65,ls),
(208,94,o),
(191,110,o),
(162,110,cs)
);
},
{
closed = 1;
nodes = (
(448,110,ls),
(411,110,o),
(398,87,o),
(416,56,cs),
(432,29,ls),
(444,9,o),
(460,0,o),
(484,0,cs),
(575,0,ls),
(612,0,o),
(626,23,o),
(608,54,cs),
(591,81,ls),
(580,101,o),
(563,110,o),
(539,110,cs)
);
},
{
closed = 1;
nodes = (
(110,220,ls),
(81,220,o),
(63,204,o),
(61,175,cs),
(59,155,ls),
(57,126,o),
(71,110,o),
(100,110,cs),
(181,110,ls),
(210,110,o),
(228,126,o),
(230,155,cs),
(232,175,ls),
(234,204,o),
(220,220,o),
(191,220,cs)
);
},
{
closed = 1;
nodes = (
(332,220,ls),
(296,220,o),
(287,196,o),
(312,166,cs),
(333,139,ls),
(350,119,o),
(368,110,o),
(392,110,cs),
(483,110,ls),
(519,110,o),
(528,134,o),
(503,164,cs),
(482,191,ls),
(465,211,o),
(447,220,o),
(423,220,cs)
);
},
{
closed = 1;
nodes = (
(142,330,ls),
(113,330,o),
(95,314,o),
(90,285,cs),
(87,265,ls),
(83,236,o),
(96,220,o),
(125,220,cs),
(218,220,ls),
(241,220,o),
(259,227,o),
(278,244,cs),
(311,274,l),
(324,249,ls),
(334,229,o),
(349,220,o),
(373,220,cs),
(464,220,ls),
(501,220,o),
(517,243,o),
(502,274,cs),
(488,301,ls),
(478,321,o),
(462,330,o),
(438,330,cs)
);
},
{
closed = 1;
nodes = (
(580,660,l),
(415,660,ls),
(392,660,o),
(376,653,o),
(362,636,cs),
(336,605,ls),
(311,576,o),
(324,550,o),
(363,550,cs),
(453,550,ls),
(476,550,o),
(492,557,o),
(507,574,cs),
(534,605,ls),
(558,634,o),
(544,660,o),
(505,660,cs),
(177,660,l),
(51,660,ls),
(22,660,o),
(7,644,o),
(9,615,cs),
(10,595,ls),
(12,566,o),
(29,550,o),
(58,550,cs),
(139,550,ls),
(168,550,o),
(183,566,o),
(181,595,cs),
(177,660,l)
);
},
{
closed = 1;
nodes = (
(300,440,l),
(296,437,l),
(296,437,ls),
(297,439,o),
(281,440,o),
(252,440,cs),
(171,440,ls),
(142,440,o),
(123,424,o),
(118,395,cs),
(114,375,ls),
(109,346,o),
(122,330,o),
(151,330,cs),
(417,330,ls),
(453,330,o),
(470,354,o),
(456,384,cs),
(450,397,l),
(450,397,ls),
(475,419,o),
(461,440,o),
(422,440,cs)
);
},
{
closed = 1;
nodes = (
(33,550,ls),
(4,550,o),
(-10,534,o),
(-7,505,cs),
(-5,485,ls),
(-2,456,o),
(16,440,o),
(45,440,cs),
(126,440,ls),
(155,440,o),
(169,456,o),
(166,485,cs),
(164,505,ls),
(161,534,o),
(143,550,o),
(114,550,cs)
);
},
{
closed = 1;
nodes = (
(382,550,ls),
(359,550,o),
(341,543,o),
(325,526,cs),
(296,495,ls),
(268,466,o),
(278,440,o),
(317,440,cs),
(407,440,ls),
(430,440,o),
(446,447,o),
(463,464,cs),
(494,495,ls),
(521,524,o),
(511,550,o),
(472,550,cs)
);
}
);
width = 661;
}
);
note = K;
unicode = 75;
},
{
glyphname = L;
kernLeft = B;
kernRight = L;
lastChange = "2024-07-19 21:21:30 +0000";
layers = (
{
anchors = (
{
name = bottom;
pos = (281,0);
},
{
name = top;
pos = (154,660);
}
);
layerId = "F5467FAD-1970-4982-B3D3-939C01050498";
shapes = (
{
closed = 1;
nodes = (
(505,0,l),
(505,28,l),
(92,28,l),
(92,660,l),
(53,660,l),
(53,0,l)
);
}
);
width = 544;
},
{
anchors = (
{
name = bottom;
pos = (317,0);
},
{
name = top;
pos = (230,660);
}
);
layerId = "6DD95C5A-998B-41AB-BDFB-84A73C209871";
shapes = (
{
closed = 1;
nodes = (
(552,0,l),
(552,117,l),
(191,117,l),
(191,660,l),
(47,660,l),
(47,0,l)
);
}
);
width = 580;
},
{
anchors = (
{
name = bottom;
pos = (275,0);
},
{
name = top;
pos = (150,660);
}
);
layerId = "1FDC7037-1F88-4969-8535-0F79C1EF19DB";
shapes = (
{
closed = 1;
nodes = (
(497,0,l),
(497,14,l),
(76,14,l),
(76,660,l),
(54,660,l),
(54,0,l)
);
}
);
width = 538;
},
{
anchors = (
{
name = bottom;
pos = (325,0);
},
{
name = top;
pos = (248,660);
}
);
guides = (
{
pos = (0,-330);
},
{
pos = (0,-220);
},
{
pos = (0,-110);
},
{
},
{
pos = (0,110);
},
{
pos = (0,220);
},
{
pos = (0,330);
},
{
pos = (0,440);
},
{
pos = (0,550);
},
{
pos = (0,660);
},
{
pos = (0,770);
}
);
layerId = "3ED9E848-BE83-4CAC-8EFF-D71BD2B4F667";
shapes = (
{
closed = 1;
nodes = (
(243,660,ls),
(214,660,o),
(195,644,o),
(188,615,cs),
(183,595,ls),
(177,566,o),
(189,550,o),
(218,550,cs),
(298,550,ls),
(327,550,o),
(347,566,o),
(353,595,cs),
(368,660,l)
);
},
{
closed = 1;
nodes = (
(107,110,ls),
(78,110,o),
(60,94,o),
(56,65,cs),
(53,45,ls),
(48,16,o),
(62,0,o),
(91,0,cs),
(518,0,ls),
(547,0,o),
(565,16,o),
(570,45,cs),
(573,65,ls),
(577,94,o),
(563,110,o),
(534,110,cs)
);
},
{
closed = 1;
nodes = (
(107,220,ls),
(78,220,o),
(61,204,o),
(58,175,cs),
(57,155,ls),
(55,126,o),
(70,110,o),
(99,110,cs),
(526,110,ls),
(555,110,o),
(571,116,o),
(572,125,cs),
(572,125,ls),
(573,134,o),
(557,139,o),
(528,139,cs),
(226,139,l),
(228,175,ls),
(231,204,o),
(216,220,o),
(187,220,cs)
);
},
{
closed = 1;
nodes = (
(52,330,ls),
(23,330,o),
(9,314,o),
(12,285,cs),
(15,265,ls),
(18,236,o),
(36,220,o),
(65,220,cs),
(145,220,ls),
(174,220,o),
(188,236,o),
(185,265,cs),
(182,285,ls),
(179,314,o),
(161,330,o),
(132,330,cs)
);
},
{
closed = 1;
nodes = (
(123,440,ls),
(94,440,o),
(77,424,o),
(74,395,cs),
(73,375,ls),
(71,346,o),
(86,330,o),
(115,330,cs),
(195,330,ls),
(224,330,o),
(241,346,o),
(243,375,cs),
(244,395,ls),
(247,424,o),
(232,440,o),
(203,440,cs)
);
},
{
closed = 1;
nodes = (
(1,550,ls),
(-28,550,o),
(-41,534,o),
(-37,505,cs),
(-33,485,ls),
(-29,456,o),
(-10,440,o),
(19,440,cs),
(99,440,ls),
(128,440,o),
(141,456,o),
(137,485,cs),
(133,505,ls),
(129,534,o),
(110,550,o),
(81,550,cs)
);
}
);
width = 589;
}
);
note = L;
unicode = 76;
},
{
glyphname = Lslash;
lastChange = "2024-07-19 21:10:08 +0000";
layers = (
{
layerId = "F5467FAD-1970-4982-B3D3-939C01050498";
shapes = (
{
closed = 1;
nodes = (
(613,0,l),
(613,28,l),
(201,28,l),
(201,369,l),
(324,405,l),
(324,438,l),
(201,403,l),
(201,660,l),
(161,660,l),
(161,391,l),
(51,360,l),
(51,326,l),
(161,357,l),
(161,0,l)
);
}
);
width = 657;
},
{
layerId = "6DD95C5A-998B-41AB-BDFB-84A73C209871";
shapes = (
{
closed = 1;
nodes = (
(660,0,l),
(660,117,l),
(300,117,l),
(300,343,l),
(383,367,l),
(381,485,l),
(300,461,l),
(300,660,l),
(156,660,l),
(156,420,l),
(32,385,l),
(33,267,l),
(156,302,l),
(156,0,l)
);
}
);
width = 657;
},
{
layerId = "1FDC7037-1F88-4969-8535-0F79C1EF19DB";
shapes = (
{
closed = 1;
nodes = (
(605,0,l),
(605,14,l),
(185,14,l),
(185,373,l),
(315,410,l),
(315,431,l),
(185,394,l),
(185,660,l),
(162,660,l),
(162,388,l),
(54,356,l),
(54,336,l),
(162,367,l),
(162,0,l)
);
}
);
width = 657;
},
{
guides = (
{
pos = (0,-330);
},
{
pos = (0,-220);
},
{
pos = (0,-110);
},
{
},
{
pos = (0,110);
},
{
pos = (0,220);
},
{
pos = (0,330);
},
{
pos = (0,440);
},
{
pos = (0,550);
},
{
pos = (0,660);
},
{
pos = (0,770);
}
);
layerId = "3ED9E848-BE83-4CAC-8EFF-D71BD2B4F667";
shapes = (
{
closed = 1;
nodes = (
(155,45,ls),
(155,16,o),
(171,0,o),
(200,0,cs),
(626,0,ls),
(655,0,o),
(671,16,o),
(671,45,cs),
(671,94,ls),
(671,123,o),
(655,139,o),
(626,139,cs),
(369,139,ls),
(340,139,o),
(324,152,o),
(324,175,cs),
(324,175,ls),
(324,204,o),
(308,220,o),
(279,220,cs),
(200,220,ls),
(171,220,o),
(155,204,o),
(155,175,cs),
(155,110,l)
);
},
{
closed = 1;
nodes = (
(200,660,ls),
(171,660,o),
(155,644,o),
(155,615,cs),
(155,595,ls),
(155,566,o),
(171,550,o),
(200,550,cs),
(279,550,ls),
(308,550,o),
(324,566,o),
(324,595,cs),
(324,660,l)
);
},
{
closed = 1;
nodes = (
(73,330,ls),
(44,330,o),
(27,316,o),
(28,292,cs),
(28,292,ls),
(28,269,o),
(47,258,o),
(78,267,cs),
(155,289,l),
(155,265,ls),
(155,236,o),
(171,220,o),
(200,220,cs),
(279,220,ls),
(308,220,o),
(324,236,o),
(324,265,cs),
(324,285,ls),
(324,314,o),
(308,330,o),
(279,330,cs)
);
},
{
closed = 1;
nodes = (
(200,440,ls),
(171,440,o),
(155,435,o),
(155,427,cs),
(155,427,l),
(65,401,ls),
(39,393,o),
(27,380,o),
(27,360,cs),
(27,360,ls),
(27,341,o),
(43,330,o),
(72,330,cs),
(279,330,ls),
(308,330,o),
(324,333,o),
(324,337,cs),
(324,337,l),
(359,347,ls),
(384,354,o),
(397,371,o),
(397,397,cs),
(397,399,ls),
(397,426,o),
(380,440,o),
(351,440,cs)
);
},
{
closed = 1;
nodes = (
(200,550,ls),
(171,550,o),
(155,534,o),
(155,505,cs),
(155,485,ls),
(155,456,o),
(171,440,o),
(200,440,cs),
(351,440,ls),
(380,440,o),
(396,450,o),
(396,468,cs),
(396,468,ls),
(396,486,o),
(376,491,o),
(345,482,cs),
(324,476,l),
(324,505,ls),
(324,534,o),
(308,550,o),
(279,550,cs)
);
}
);
width = 657;
}
);
note = Lslash;
unicode = 321;
},
{
glyphname = M;
kernLeft = B;
kernRight = H;
lastChange = "2024-07-19 21:21:30 +0000";
layers = (
{
anchors = (
{
name = bottom;
pos = (374,0);
},
{
name = top;
pos = (374,660);
}
);
layerId = "F5467FAD-1970-4982-B3D3-939C01050498";
shapes = (
{
closed = 1;
nodes = (
(92,0,l),
(92,582,l),
(350,0,l),
(399,0,l),
(655,582,l),
(655,0,l),
(695,0,l),
(695,660,l),
(641,660,l),
(374,40,l),
(106,660,l),
(53,660,l),
(53,0,l)
);
}
);
width = 748;
},
{
anchors = (
{
name = bottom;
pos = (440,0);
},
{
name = top;
pos = (440,660);
}
);
layerId = "6DD95C5A-998B-41AB-BDFB-84A73C209871";
shapes = (
{
closed = 1;
nodes = (
(192,0,l),
(192,384,l),
(363,0,l),
(518,0,l),
(688,386,l),
(688,0,l),
(834,0,l),
(834,660,l),
(652,661,l),
(440,171,l),
(229,661,l),
(47,660,l),
(47,0,l)
);
}
);
width = 881;
},
{
anchors = (
{
name = bottom;
pos = (364,0);
},
{
name = top;
pos = (364,660);
}
);
layerId = "1FDC7037-1F88-4969-8535-0F79C1EF19DB";
shapes = (
{
closed = 1;
nodes = (
(76,0,l),
(76,613,l),
(348,0,l),
(380,0,l),
(650,613,l),
(650,0,l),
(672,0,l),
(672,660,l),
(639,660,l),
(364,18,l),
(86,660,l),
(54,660,l),
(54,0,l)
);
}
);
width = 727;
},
{
anchors = (
{
name = bottom;
pos = (456,0);
},
{
name = top;
pos = (456,660);
}
);
guides = (
{
pos = (0,-330);
},
{
pos = (0,-220);
},
{
pos = (0,-110);
},
{
},
{
pos = (0,110);
},
{
pos = (0,220);
},
{
pos = (0,330);
},
{
pos = (0,440);
},
{
pos = (0,550);
},
{
pos = (0,660);
},
{
pos = (0,770);
}
);
layerId = "3ED9E848-BE83-4CAC-8EFF-D71BD2B4F667";
shapes = (
{
closed = 1;
nodes = (
(92,110,ls),
(63,110,o),
(47,94,o),
(46,65,cs),
(46,45,ls),
(46,16,o),
(62,0,o),
(91,0,cs),
(172,0,ls),
(201,0,o),
(217,16,o),
(217,45,cs),
(217,65,ls),
(218,94,o),
(202,110,o),
(173,110,cs)
);
},
{
closed = 1;
nodes = (
(370,110,ls),
(336,110,o),
(323,89,o),
(338,57,cs),
(349,34,ls),
(360,11,o),
(378,0,o),
(403,0,cs),
(510,0,ls),
(535,0,o),
(551,11,o),
(560,34,cs),
(570,57,ls),
(583,89,o),
(567,110,o),
(533,110,cs)
);
},
{
closed = 1;
nodes = (
(757,110,ls),
(728,110,o),
(710,94,o),
(706,65,cs),
(703,45,ls),
(699,16,o),
(713,0,o),
(742,0,cs),
(823,0,ls),
(852,0,o),
(870,16,o),
(874,45,cs),
(877,65,ls),
(881,94,o),
(867,110,o),
(838,110,cs)
);
},
{
closed = 1;
nodes = (
(134,220,ls),
(105,220,o),
(86,204,o),
(80,175,cs),
(76,155,ls),
(71,126,o),
(84,110,o),
(113,110,cs),
(194,110,ls),
(223,110,o),
(242,126,o),
(247,155,cs),
(251,175,ls),
(257,204,o),
(244,220,o),
(215,220,cs)
);
},
{
closed = 1;
nodes = (
(509,220,ls),
(484,220,o),
(469,214,o),
(464,203,cs),
(464,203,l),
(464,203,ls),
(459,214,o),
(444,220,o),
(419,220,cs),
(334,220,ls),
(300,220,o),
(285,199,o),
(298,167,cs),
(307,144,ls),
(317,121,o),
(333,110,o),
(358,110,cs),
(563,110,ls),
(588,110,o),
(606,121,o),
(616,144,cs),
(628,167,ls),
(643,199,o),
(629,220,o),
(595,220,cs)
);
},
{
closed = 1;
nodes = (
(752,220,ls),
(723,220,o),
(706,204,o),
(705,175,cs),
(704,155,ls),
(703,126,o),
(718,110,o),
(747,110,cs),
(828,110,ls),
(857,110,o),
(874,126,o),
(875,155,cs),
(876,175,ls),
(877,204,o),
(862,220,o),
(833,220,cs)
);
},
{
closed = 1;
nodes = (
(34,330,ls),
(5,330,o),
(-8,314,o),
(-3,285,cs),
(0,265,ls),
(5,236,o),
(24,220,o),
(53,220,cs),
(134,220,ls),
(163,220,o),
(176,236,o),
(171,265,cs),
(168,285,ls),
(163,314,o),
(144,330,o),
(115,330,cs)
);
},
{
closed = 1;
nodes = (
(362,330,ls),
(328,330,o),
(309,309,o),
(315,277,cs),
(319,254,ls),
(323,231,o),
(337,220,o),
(362,220,cs),
(449,220,ls),
(483,220,o),
(502,240,o),
(497,272,cs),
(494,296,ls),
(490,319,o),
(475,330,o),
(450,330,cs)
);
},
{
closed = 1;
nodes = (
(511,330,ls),
(486,330,o),
(470,320,o),
(462,296,cs),
(455,273,ls),
(445,241,o),
(461,220,o),
(495,220,cs),
(583,220,ls),
(608,220,o),
(624,230,o),
(631,254,cs),
(639,277,ls),
(649,309,o),
(633,330,o),
(599,330,cs)
);
},
{
closed = 1;
nodes = (
(749,330,ls),
(720,330,o),
(704,314,o),
(703,285,cs),
(703,265,ls),
(702,236,o),
(718,220,o),
(747,220,cs),
(828,220,ls),
(857,220,o),
(873,236,o),
(874,265,cs),
(874,285,ls),
(875,314,o),
(859,330,o),
(830,330,cs)
);
},
{
closed = 1;
nodes = (
(157,440,ls),
(128,440,o),
(110,424,o),
(106,395,cs),
(103,375,ls),
(98,346,o),
(112,330,o),
(141,330,cs),
(267,330,l),
(268,335,l),
(268,335,ls),
(268,332,o),
(282,330,o),
(307,330,cs),
(395,330,ls),
(429,330,o),
(445,352,o),
(437,383,cs),
(430,406,ls),
(424,430,o),
(408,440,o),
(383,440,cs)
);
},
{
closed = 1;
nodes = (
(550,440,ls),
(525,440,o),
(509,430,o),
(502,406,cs),
(494,383,ls),
(484,351,o),
(500,330,o),
(534,330,cs),
(659,330,l),
(662,338,l),
(662,338,ls),
(662,333,o),
(679,330,o),
(708,330,cs),
(789,330,ls),
(818,330,o),
(832,346,o),
(829,375,cs),
(827,395,ls),
(824,424,o),
(806,440,o),
(777,440,cs)
);
},
{
closed = 1;
nodes = (
(105,550,ls),
(76,550,o),
(59,534,o),
(59,505,cs),
(58,485,ls),
(57,456,o),
(73,440,o),
(102,440,cs),
(308,440,ls),
(342,440,o),
(356,460,o),
(344,492,cs),
(335,516,ls),
(325,539,o),
(309,550,o),
(284,550,cs)
);
},
{
closed = 1;
nodes = (
(656,550,ls),
(631,550,o),
(613,539,o),
(603,516,cs),
(592,492,ls),
(579,461,o),
(592,440,o),
(626,440,cs),
(833,440,ls),
(862,440,o),
(878,456,o),
(879,485,cs),
(880,505,ls),
(880,534,o),
(865,550,o),
(836,550,cs)
);
},
{
closed = 1;
nodes = (
(216,660,ls),
(187,660,o),
(168,644,o),
(162,615,cs),
(158,595,ls),
(153,566,o),
(166,550,o),
(195,550,cs),
(354,550,ls),
(388,550,o),
(405,572,o),
(398,603,cs),
(392,626,ls),
(387,650,o),
(372,660,o),
(347,660,cs)
);
},
{
closed = 1;
nodes = (
(832,660,ls),
(807,660,o),
(788,650,o),
(773,626,cs),
(758,603,ls),
(737,571,o),
(747,550,o),
(781,550,cs),
(941,550,ls),
(970,550,o),
(989,566,o),
(995,595,cs),
(1000,615,ls),
(1006,644,o),
(993,660,o),
(964,660,cs)
);
}
);
width = 914;
}
);
note = M;
unicode = 77;
},
{
glyphname = N;
kernLeft = B;
kernRight = H;
lastChange = "2024-07-19 21:21:30 +0000";
layers = (
{
anchors = (
{
name = bottom;
pos = (283,0);
},
{
name = top;
pos = (283,660);
}
);
layerId = "F5467FAD-1970-4982-B3D3-939C01050498";
shapes = (
{
closed = 1;
nodes = (
(93,0,l),
(93,589,l),
(470,0,l),
(512,0,l),
(512,660,l),
(472,660,l),
(472,66,l),
(94,660,l),
(53,660,l),
(53,0,l)
);
}
);
width = 565;
},
{
anchors = (
{
name = bottom;
pos = (321,0);
},
{
name = top;
pos = (321,660);
}
);
layerId = "6DD95C5A-998B-41AB-BDFB-84A73C209871";
shapes = (
{
closed = 1;
nodes = (
(192,0,l),
(192,411,l),
(450,0,l),
(593,0,l),
(593,660,l),
(448,660,l),
(448,256,l),
(192,660,l),
(47,660,l),
(47,0,l)
);
}
);
width = 640;
},
{
anchors = (
{
name = bottom;
pos = (277,0);
},
{
name = top;
pos = (277,660);
}
);
layerId = "1FDC7037-1F88-4969-8535-0F79C1EF19DB";
shapes = (
{
closed = 1;
nodes = (
(77,0,l),
(77,618,l),
(472,0,l),
(499,0,l),
(499,660,l),
(475,660,l),
(475,35,l),
(78,660,l),
(54,660,l),
(54,0,l)
);
}
);
width = 553;
},
{
anchors = (
{
name = bottom;
pos = (330,0);
},
{
name = top;
pos = (330,660);
}
);
guides = (
{
pos = (0,-330);
},
{
pos = (0,-220);
},
{
pos = (0,-110);
},
{
},
{
pos = (0,110);
},
{
pos = (0,220);
},
{
pos = (0,330);
},
{
pos = (0,440);
},
{
pos = (0,550);
},
{
pos = (0,660);
},
{
pos = (0,770);
}
);
layerId = "3ED9E848-BE83-4CAC-8EFF-D71BD2B4F667";
shapes = (
{
closed = 1;
nodes = (
(92,110,ls),
(63,110,o),
(47,94,o),
(47,65,cs),
(47,45,ls),
(46,16,o),
(62,0,o),
(91,0,cs),
(172,0,ls),
(201,0,o),
(217,16,o),
(218,45,cs),
(218,65,ls),
(218,94,o),
(202,110,o),
(173,110,cs)
);
},
{
closed = 1;
nodes = (
(443,110,ls),
(407,110,o),
(392,87,o),
(411,56,cs),
(427,30,ls),
(439,9,o),
(456,0,o),
(480,0,cs),
(568,0,ls),
(597,0,o),
(613,16,o),
(614,45,cs),
(614,65,ls),
(615,94,o),
(599,110,o),
(570,110,cs)
);
},
{
closed = 1;
nodes = (
(84,220,ls),
(55,220,o),
(39,204,o),
(40,175,cs),
(41,155,ls),
(42,126,o),
(58,110,o),
(87,110,cs),
(168,110,ls),
(197,110,o),
(213,126,o),
(212,155,cs),
(211,175,ls),
(210,204,o),
(194,220,o),
(165,220,cs)
);
},
{
closed = 1;
nodes = (
(364,220,ls),
(328,220,o),
(315,197,o),
(335,166,cs),
(352,140,ls),
(366,119,o),
(383,110,o),
(407,110,cs),
(563,110,ls),
(592,110,o),
(608,126,o),
(606,155,cs),
(605,175,ls),
(604,204,o),
(588,220,o),
(559,220,cs)
);
},
{
closed = 1;
nodes = (
(60,330,ls),
(31,330,o),
(16,314,o),
(19,285,cs),
(21,265,ls),
(24,236,o),
(41,220,o),
(70,220,cs),
(151,220,ls),
(180,220,o),
(195,236,o),
(192,265,cs),
(190,285,ls),
(187,314,o),
(170,330,o),
(141,330,cs)
);
},
{
closed = 1;
nodes = (
(515,660,l),
(389,660,ls),
(360,660,o),
(346,644,o),
(351,615,cs),
(354,595,ls),
(358,566,o),
(376,550,o),
(405,550,cs),
(486,550,ls),
(515,550,o),
(529,566,o),
(525,595,cs),
(522,615,ls),
(517,644,o),
(499,660,o),
(470,660,cs),
(119,660,l),
(-7,660,ls),
(-36,660,o),
(-50,644,o),
(-45,615,cs),
(-42,595,ls),
(-38,566,o),
(-20,550,o),
(9,550,cs),
(141,550,ls),
(177,550,o),
(186,573,o),
(162,604,cs),
(119,660,l)
);
},
{
closed = 1;
nodes = (
(447,330,ls),
(418,330,o),
(403,320,o),
(405,304,cs),
(405,304,l),
(405,304,ls),
(392,322,o),
(375,330,o),
(351,330,cs),
(265,330,ls),
(229,330,o),
(218,307,o),
(240,276,cs),
(260,250,ls),
(275,229,o),
(293,220,o),
(317,220,cs),
(541,220,ls),
(570,220,o),
(584,236,o),
(581,265,cs),
(578,285,ls),
(575,314,o),
(557,330,o),
(528,330,cs)
);
},
{
closed = 1;
nodes = (
(83,440,ls),
(54,440,o),
(38,424,o),
(39,395,cs),
(39,375,ls),
(40,346,o),
(56,330,o),
(85,330,cs),
(166,330,ls),
(195,330,o),
(211,344,o),
(210,368,cs),
(210,368,l),
(215,360,ls),
(229,340,o),
(246,330,o),
(270,330,cs),
(356,330,ls),
(392,330,o),
(403,353,o),
(384,384,cs),
(367,410,ls),
(354,430,o),
(337,440,o),
(313,440,cs)
);
},
{
closed = 1;
nodes = (
(547,440,ls),
(518,440,o),
(500,424,o),
(496,395,cs),
(493,375,ls),
(489,346,o),
(503,330,o),
(532,330,cs),
(613,330,ls),
(642,330,o),
(660,346,o),
(664,375,cs),
(667,395,ls),
(671,424,o),
(657,440,o),
(628,440,cs)
);
},
{
closed = 1;
nodes = (
(25,550,ls),
(-4,550,o),
(-18,534,o),
(-15,505,cs),
(-12,485,ls),
(-9,456,o),
(9,440,o),
(38,440,cs),
(239,440,ls),
(275,440,o),
(285,463,o),
(263,494,cs),
(243,520,ls),
(228,540,o),
(210,550,o),
(186,550,cs)
);
},
{
closed = 1;
nodes = (
(509,550,ls),
(480,550,o),
(463,534,o),
(462,505,cs),
(461,485,ls),
(460,456,o),
(475,440,o),
(504,440,cs),
(585,440,ls),
(614,440,o),
(631,456,o),
(632,485,cs),
(633,505,ls),
(634,534,o),
(619,550,o),
(590,550,cs)
);
}
);
width = 659;
}
);
note = N;
unicode = 78;
},
{
glyphname = Nhookleft;
lastChange = "2024-07-19 23:38:00 +0000";
layers = (
{
layerId = "F5467FAD-1970-4982-B3D3-939C01050498";
shapes = (
{
closed = 1;
nodes = (
(53,0,l),
(53,-118,ls),
(53,-150,o),
(39,-157,o),
(24,-157,cs),
(3,-157,o),
(-24,-148,o),
(-48,-127,c),
(-52,-159,l),
(-38,-174,o),
(-8,-191,o),
(24,-191,cs),
(79,-191,o),
(93,-150,o),
(93,-118,cs),
(93,0,l)
);
},
{
ref = N;
}
);
width = 566;
},
{
layerId = "6DD95C5A-998B-41AB-BDFB-84A73C209871";
shapes = (
{
closed = 1;
nodes = (
(47,0,l),
(47,-61,ls),
(47,-93,o),
(34,-100,o),
(19,-100,cs),
(-2,-100,o),
(-28,-91,o),
(-53,-71,c),
(-53,-159,l),
(-29,-174,o),
(4,-191,o),
(55,-191,cs),
(124,-191,o),
(192,-150,o),
(192,-61,cs),
(192,0,l)
);
},
{
ref = N;
}
);
width = 640;
},
{
layerId = "1FDC7037-1F88-4969-8535-0F79C1EF19DB";
shapes = (
{
closed = 1;
nodes = (
(54,0,l),
(54,-127,ls),
(54,-159,o),
(40,-166,o),
(25,-166,cs),
(4,-166,o),
(-23,-157,o),
(-47,-137,c),
(-52,-159,l),
(-39,-174,o),
(-9,-191,o),
(19,-191,cs),
(72,-191,o),
(77,-150,o),
(77,-127,cs),
(77,0,l)
);
},
{
ref = N;
}
);
width = 554;
},
{
guides = (
{
pos = (0,-330);
},
{
pos = (0,-220);
},
{
pos = (0,-110);
},
{
},
{
pos = (0,110);
},
{
pos = (0,220);
},
{
pos = (0,330);
},
{
pos = (0,440);
},
{
pos = (0,550);
},
{
pos = (0,660);
},
{
pos = (0,770);
}
);
layerId = "3ED9E848-BE83-4CAC-8EFF-D71BD2B4F667";
shapes = (
{
ref = N;
},
{
closed = 1;
nodes = (
(91,0,ls),
(62,0,o),
(46,-16,o),
(46,-45,cs),
(46,-47,ls),
(46,-79,o),
(33,-86,o),
(18,-86,cs),
(7,-86,o),
(-6,-83,o),
(-20,-78,cs),
(-42,-68,o),
(-54,-80,o),
(-53,-114,cs),
(-53,-123,ls),
(-53,-148,o),
(-44,-165,o),
(-21,-175,cs),
(0,-184,o),
(27,-191,o),
(62,-191,cs),
(118,-191,o),
(179,-167,o),
(204,-110,cs),
(212,-92,o),
(217,-71,o),
(217,-47,cs),
(217,0,l)
);
}
);
width = 659;
}
);
unicode = 413;
},
{
glyphname = Eng;
lastChange = "2024-07-19 23:38:36 +0000";
layers = (
{
layerId = "F5467FAD-1970-4982-B3D3-939C01050498";
shapes = (
{
closed = 1;
nodes = (
(470,0,l),
(470,-118,ls),
(470,-143,o),
(459,-157,o),
(426,-157,cs),
(405,-157,o),
(386,-148,o),
(361,-127,c),
(357,-159,l),
(375,-174,o),
(402,-191,o),
(433,-191,cs),
(488,-191,o),
(512,-159,o),
(512,-118,cs),
(512,0,l)
);
},
{
ref = N;
}
);
width = 565;
},
{
layerId = "6DD95C5A-998B-41AB-BDFB-84A73C209871";
shapes = (
{
closed = 1;
nodes = (
(450,0,l),
(450,-61,ls),
(450,-93,o),
(435,-100,o),
(420,-100,cs),
(399,-100,o),
(372,-91,o),
(348,-71,c),
(348,-159,l),
(372,-174,o),
(405,-191,o),
(455,-191,cs),
(524,-191,o),
(593,-150,o),
(593,-61,cs),
(593,0,l)
);
},
{
ref = N;
}
);
width = 640;
},
{
layerId = "1FDC7037-1F88-4969-8535-0F79C1EF19DB";
shapes = (
{
closed = 1;
nodes = (
(472,0,l),
(472,-127,ls),
(472,-151,o),
(463,-166,o),
(427,-166,cs),
(406,-166,o),
(388,-157,o),
(363,-137,c),
(359,-159,l),
(376,-174,o),
(402,-191,o),
(429,-191,cs),
(483,-191,o),
(499,-161,o),
(499,-127,cs),
(499,0,l)
);
},
{
ref = N;
}
);
width = 553;
},
{
guides = (
{
pos = (0,-330);
},
{
pos = (0,-220);
},
{
pos = (0,-110);
},
{
},
{
pos = (0,110);
},
{
pos = (0,220);
},
{
pos = (0,330);
},
{
pos = (0,440);
},
{
pos = (0,550);
},
{
pos = (0,660);
},
{
pos = (0,770);
}
);
layerId = "3ED9E848-BE83-4CAC-8EFF-D71BD2B4F667";
shapes = (
{
closed = 1;
nodes = (
(490,0,ls),
(461,0,o),
(445,-16,o),
(445,-45,cs),
(445,-47,ls),
(445,-81,o),
(429,-86,o),
(418,-86,cs),
(407,-86,o),
(393,-83,o),
(380,-78,cs),
(357,-68,o),
(345,-68,o),
(346,-84,cs),
(346,-84,ls),
(346,-102,o),
(362,-110,o),
(391,-110,cs),
(561,-110,ls),
(587,-110,o),
(607,-99,o),
(611,-73,cs),
(612,-65,o),
(613,-56,o),
(613,-47,cs),
(613,0,l)
);
},
{
ref = N;
},
{
closed = 1;
nodes = (
(391,-110,ls),
(362,-110,o),
(346,-119,o),
(346,-135,cs),
(346,-135,ls),
(346,-152,o),
(355,-166,o),
(378,-175,cs),
(399,-184,o),
(426,-191,o),
(461,-191,cs),
(493,-191,o),
(527,-182,o),
(554,-164,cs),
(586,-142,o),
(566,-110,o),
(528,-110,cs)
);
}
);
width = 659;
}
);
unicode = 330;
},
{
glyphname = O;
kernLeft = C;
kernRight = O;
lastChange = "2024-07-19 21:21:30 +0000";
layers = (
{
anchors = (
{
name = bottom;
pos = (390,0);
},
{
name = ogonek;
pos = (358,0);
},
{
name = top;
pos = (357,660);
}
);
layerId = "F5467FAD-1970-4982-B3D3-939C01050498";
shapes = (
{
closed = 1;
nodes = (
(556,-5,o),
(687,142,o),
(687,328,cs),
(687,515,o),
(556,665,o),
(357,665,cs),
(158,665,o),
(28,515,o),
(28,328,cs),
(28,143,o),
(159,-5,o),
(357,-5,cs)
);
},
{
closed = 1;
nodes = (
(184,25,o),
(69,155,o),
(69,328,cs),
(69,503,o),
(185,636,o),
(357,636,cs),
(531,636,o),
(646,503,o),
(646,328,cs),
(646,155,o),
(531,25,o),
(357,25,cs)
);
}
);
width = 715;
},
{
anchors = (
{
name = bottom;
pos = (390,0);
},
{
name = ogonek;
pos = (358,0);
},
{
name = top;
pos = (390,660);
}
);
layerId = "6DD95C5A-998B-41AB-BDFB-84A73C209871";
shapes = (
{
closed = 1;
nodes = (
(598,-5,o),
(734,151,o),
(734,328,cs),
(734,507,o),
(598,665,o),
(390,665,cs),
(183,665,o),
(47,507,o),
(47,328,cs),
(47,151,o),
(184,-5,o),
(390,-5,cs)
);
},
{
closed = 1;
nodes = (
(273,104,o),
(192,194,o),
(192,328,cs),
(192,464,o),
(273,556,o),
(390,556,cs),
(508,556,o),
(588,464,o),
(588,328,cs),
(588,194,o),
(508,104,o),
(390,104,cs)
);
}
);
width = 781;
},
{
anchors = (
{
name = bottom;
pos = (390,0);
},
{
name = ogonek;
pos = (358,0);
},
{
name = top;
pos = (352,660);
}
);
layerId = "1FDC7037-1F88-4969-8535-0F79C1EF19DB";
shapes = (
{
closed = 1;
nodes = (
(550,-5,o),
(679,141,o),
(679,328,cs),
(679,516,o),
(550,665,o),
(352,665,cs),
(155,665,o),
(25,516,o),
(25,328,cs),
(25,142,o),
(156,-5,o),
(352,-5,cs)
);
},
{
closed = 1;
nodes = (
(170,12,o),
(49,148,o),
(49,328,cs),
(49,509,o),
(171,648,o),
(352,648,cs),
(535,648,o),
(655,509,o),
(655,328,cs),
(655,148,o),
(535,12,o),
(352,12,cs)
);
}
);
width = 704;
},
{
anchors = (
{
name = bottom;
pos = (390,0);
},
{
name = ogonek;
pos = (358,0);
},
{
name = top;
pos = (399,660);
}
);
guides = (
{
pos = (0,-330);
},
{
pos = (0,-220);
},
{
pos = (0,-110);
},
{
},
{
pos = (0,110);
},
{
pos = (0,220);
},
{
pos = (0,330);
},
{
pos = (0,440);
},
{
pos = (0,550);
},
{
pos = (0,660);
},
{
pos = (0,770);
}
);
layerId = "3ED9E848-BE83-4CAC-8EFF-D71BD2B4F667";
shapes = (
{
closed = 1;
nodes = (
(394,660,l),
(373,663,o),
(352,665,o),
(331,665,cs),
(309,665,o),
(288,663,o),
(269,660,c)
);
},
{
closed = 1;
nodes = (
(336,0,l),
(356,-3,o),
(377,-5,o),
(399,-5,cs),
(421,-5,o),
(442,-3,o),
(462,0,c)
);
},
{
closed = 1;
nodes = (
(249,110,ls),
(207,110,o),
(184,77,o),
(212,54,cs),
(239,32,o),
(272,15,o),
(310,5,cs),
(329,1,o),
(343,0,o),
(363,0,cs),
(435,0,ls),
(455,0,o),
(469,1,o),
(491,6,cs),
(534,16,o),
(575,32,o),
(614,54,cs),
(655,77,o),
(649,110,o),
(607,110,cs)
);
},
{
closed = 1;
nodes = (
(553,220,ls),
(529,220,o),
(514,210,o),
(503,189,cs),
(478,148,o),
(435,124,o),
(379,124,cs),
(322,124,o),
(271,148,o),
(234,189,cs),
(215,210,o),
(198,220,o),
(174,220,cs),
(93,220,ls),
(59,220,o),
(45,198,o),
(67,167,cs),
(75,156,o),
(83,146,o),
(91,136,cs),
(108,117,o),
(127,110,o),
(150,110,cs),
(612,110,ls),
(635,110,o),
(652,117,o),
(663,137,cs),
(668,146,o),
(673,157,o),
(677,167,cs),
(688,198,o),
(668,220,o),
(634,220,cs)
);
},
{
closed = 1;
nodes = (
(36,330,l),
(36,329,o),
(36,329,o),
(36,328,cs),
(38,304,o),
(41,281,o),
(47,258,cs),
(54,232,o),
(73,220,o),
(99,220,cs),
(182,220,ls),
(214,220,o),
(224,238,o),
(216,270,cs),
(211,288,o),
(208,307,o),
(207,328,cs),
(207,329,o),
(207,329,o),
(207,330,c)
);
},
{
closed = 1;
nodes = (
(661,330,l),
(660,329,o),
(660,329,o),
(660,328,cs),
(654,307,o),
(647,288,o),
(639,270,cs),
(624,238,o),
(631,220,o),
(663,220,cs),
(746,220,ls),
(772,220,o),
(793,232,o),
(806,258,cs),
(817,281,o),
(825,304,o),
(831,328,cs),
(831,329,o),
(831,329,o),
(832,330,c)
);
},
{
closed = 1;
nodes = (
(111,440,ls),
(85,440,o),
(67,428,o),
(61,402,cs),
(59,394,o),
(58,385,o),
(56,377,cs),
(52,347,o),
(70,330,o),
(100,330,cs),
(181,330,ls),
(209,330,o),
(223,345,o),
(227,373,cs),
(228,379,o),
(229,385,o),
(230,390,cs),
(237,422,o),
(226,440,o),
(194,440,cs)
);
},
{
closed = 1;
nodes = (
(705,440,ls),
(673,440,o),
(658,422,o),
(658,390,cs),
(657,384,o),
(657,379,o),
(657,373,cs),
(654,345,o),
(665,330,o),
(693,330,cs),
(774,330,ls),
(804,330,o),
(826,347,o),
(829,377,cs),
(829,385,o),
(830,394,o),
(830,402,cs),
(829,428,o),
(814,440,o),
(788,440,cs)
);
},
{
closed = 1;
nodes = (
(280,550,ls),
(257,550,o),
(238,543,o),
(220,524,cs),
(211,514,o),
(202,503,o),
(194,493,cs),
(171,462,o),
(184,440,o),
(218,440,cs),
(299,440,ls),
(323,440,o),
(341,450,o),
(360,471,cs),
(400,513,o),
(450,537,o),
(507,537,cs),
(563,537,o),
(606,513,o),
(628,471,cs),
(638,450,o),
(652,440,o),
(676,440,cs),
(757,440,ls),
(791,440,o),
(812,462,o),
(801,493,cs),
(798,504,o),
(794,514,o),
(789,524,cs),
(779,543,o),
(762,550,o),
(739,550,cs)
);
},
{
closed = 1;
nodes = (
(306,660,ls),
(286,660,o),
(272,659,o),
(252,654,cs),
(213,644,o),
(177,628,o),
(146,606,cs),
(113,583,o),
(131,550,o),
(173,550,cs),
(528,550,ls),
(570,550,o),
(581,583,o),
(545,606,cs),
(511,628,o),
(473,645,o),
(431,655,cs),
(411,659,o),
(397,660,o),
(377,660,cs)
);
}
);
width = 797;
}
);
note = O;
unicode = 79;
},
{
glyphname = Oslash;
kernLeft = C;
kernRight = O;
lastChange = "2024-07-19 12:08:54 +0000";
layers = (
{
layerId = "F5467FAD-1970-4982-B3D3-939C01050498";
shapes = (
{
closed = 1;
nodes = (
(222,-70,l),
(255,-70,l),
(494,740,l),
(461,740,l)
);
},
{
ref = O;
}
);
width = 715;
},
{
layerId = "6DD95C5A-998B-41AB-BDFB-84A73C209871";
shapes = (
{
closed = 1;
nodes = (
(217,-60,l),
(330,-60,l),
(565,731,l),
(452,731,l)
);
},
{
ref = O;
}
);
width = 781;
},
{
layerId = "1FDC7037-1F88-4969-8535-0F79C1EF19DB";
shapes = (
{
closed = 1;
nodes = (
(223,-72,l),
(242,-72,l),
(483,742,l),
(463,742,l)
);
},
{
ref = O;
}
);
width = 704;
},
{
guides = (
{
pos = (0,-330);
},
{
pos = (0,-220);
},
{
pos = (0,-110);
},
{
},
{
pos = (0,110);
},
{
pos = (0,220);
},
{
pos = (0,330);
},
{
pos = (0,440);
},
{
pos = (0,550);
},
{
pos = (0,660);
},
{
pos = (0,770);
}
);
layerId = "3ED9E848-BE83-4CAC-8EFF-D71BD2B4F667";
shapes = (
{
closed = 1;
nodes = (
(523,660,ls),
(549,660,o),
(565,672,o),
(572,695,cs),
(572,695,ls),
(578,717,o),
(561,729,o),
(529,729,cs),
(489,729,ls),
(463,729,o),
(447,718,o),
(440,695,cs),
(440,695,ls),
(434,673,o),
(451,660,o),
(483,660,cs)
);
},
{
ref = O;
},
{
closed = 1;
nodes = (
(273,0,ls),
(247,0,o),
(230,-9,o),
(225,-29,cs),
(225,-29,ls),
(220,-46,o),
(237,-58,o),
(269,-58,cs),
(310,-58,ls),
(336,-58,o),
(352,-48,o),
(358,-29,cs),
(358,-29,ls),
(363,-12,o),
(345,0,o),
(313,0,cs)
);
},
{
closed = 1;
nodes = (
(305,110,ls),
(279,110,o),
(263,99,o),
(255,73,cs),
(248,51,ls),
(239,19,o),
(254,0,o),
(286,0,cs),
(327,0,ls),
(353,0,o),
(369,11,o),
(377,37,cs),
(384,59,ls),
(393,91,o),
(378,110,o),
(346,110,cs)
);
},
{
closed = 1;
nodes = (
(338,220,ls),
(312,220,o),
(296,209,o),
(288,183,cs),
(281,161,ls),
(272,129,o),
(287,110,o),
(319,110,cs),
(360,110,ls),
(386,110,o),
(402,121,o),
(410,147,cs),
(417,169,ls),
(426,201,o),
(411,220,o),
(379,220,cs)
);
},
{
closed = 1;
nodes = (
(371,330,ls),
(345,330,o),
(329,319,o),
(321,293,cs),
(314,271,ls),
(305,239,o),
(320,220,o),
(352,220,cs),
(393,220,ls),
(419,220,o),
(436,233,o),
(443,258,cs),
(449,279,ls),
(458,311,o),
(443,330,o),
(411,330,cs)
);
},
{
closed = 1;
nodes = (
(404,440,ls),
(378,440,o),
(362,429,o),
(354,403,cs),
(347,381,ls),
(338,349,o),
(353,330,o),
(385,330,cs),
(425,330,ls),
(451,330,o),
(467,341,o),
(475,367,cs),
(482,389,ls),
(491,421,o),
(476,440,o),
(444,440,cs)
);
},
{
closed = 1;
nodes = (
(436,550,ls),
(410,550,o),
(393,537,o),
(386,512,cs),
(380,491,ls),
(371,459,o),
(386,440,o),
(418,440,cs),
(458,440,ls),
(484,440,o),
(501,453,o),
(508,478,cs),
(514,499,ls),
(523,531,o),
(508,550,o),
(476,550,cs)
);
},
{
closed = 1;
nodes = (
(469,660,ls),
(443,660,o),
(427,649,o),
(419,623,cs),
(412,601,ls),
(403,569,o),
(418,550,o),
(450,550,cs),
(490,550,ls),
(516,550,o),
(532,561,o),
(540,587,cs),
(547,609,ls),
(556,641,o),
(541,660,o),
(509,660,cs)
);
}
);
width = 797;
}
);
note = Oslash;
unicode = 216;
},
{
glyphname = OE;
kernLeft = C;
kernRight = E;
lastChange = "2024-07-19 22:42:29 +0000";
layers = (
{
layerId = "F5467FAD-1970-4982-B3D3-939C01050498";
shapes = (
{
closed = 1;
nodes = (
(422,-5,o),
(495,23,o),
(550,69,c),
(550,0,l),
(1047,0,l),
(1047,28,l),
(589,28,l),
(589,319,l),
(1026,319,l),
(1026,349,l),
(589,349,l),
(589,631,l),
(1036,631,l),
(1036,660,l),
(550,660,l),
(550,589,l),
(495,637,o),
(422,665,o),
(336,665,cs),
(137,665,o),
(8,515,o),
(8,328,cs),
(8,143,o),
(138,-5,o),
(336,-5,cs)
);
},
{
closed = 1;
nodes = (
(162,25,o),
(47,155,o),
(47,328,cs),
(47,503,o),
(163,636,o),
(336,636,cs),
(442,636,o),
(512,606,o),
(550,530,c),
(550,132,l),
(512,56,o),
(442,25,o),
(336,25,cs)
);
}
);
width = 1091;
},
{
layerId = "6DD95C5A-998B-41AB-BDFB-84A73C209871";
shapes = (
{
closed = 1;
nodes = (
(429,-5,o),
(491,12,o),
(541,41,c),
(541,0,l),
(1087,0,l),
(1087,117,l),
(687,117,l),
(687,279,l),
(1068,279,l),
(1068,396,l),
(687,396,l),
(687,543,l),
(1078,543,l),
(1078,660,l),
(541,660,l),
(541,620,l),
(491,648,o),
(429,665,o),
(362,665,cs),
(155,665,o),
(19,507,o),
(19,328,cs),
(19,151,o),
(157,-5,o),
(362,-5,cs)
);
},
{
closed = 1;
nodes = (
(244,104,o),
(164,194,o),
(164,328,cs),
(164,464,o),
(245,556,o),
(362,556,cs),
(446,556,o),
(511,509,o),
(541,433,c),
(541,224,l),
(511,150,o),
(446,104,o),
(362,104,cs)
);
}
);
width = 1091;
},
{
layerId = "1FDC7037-1F88-4969-8535-0F79C1EF19DB";
shapes = (
{
closed = 1;
nodes = (
(421,-5,o),
(495,25,o),
(551,74,c),
(551,0,l),
(1040,0,l),
(1040,14,l),
(574,14,l),
(574,325,l),
(1019,325,l),
(1019,341,l),
(574,341,l),
(574,645,l),
(1030,645,l),
(1030,660,l),
(551,660,l),
(551,586,l),
(495,635,o),
(421,665,o),
(332,665,cs),
(134,665,o),
(6,516,o),
(6,328,cs),
(6,142,o),
(135,-5,o),
(332,-5,cs)
);
},
{
closed = 1;
nodes = (
(149,12,o),
(28,148,o),
(28,328,cs),
(28,509,o),
(150,648,o),
(332,648,cs),
(441,648,o),
(512,621,o),
(551,545,c),
(551,117,l),
(512,41,o),
(441,12,o),
(332,12,cs)
);
}
);
width = 1091;
},
{
guides = (
{
pos = (0,-330);
},
{
pos = (0,-220);
},
{
pos = (0,-110);
},
{
},
{
pos = (0,110);
},
{
pos = (0,220);
},
{
pos = (0,330);
},
{
pos = (0,440);
},
{
pos = (0,550);
},
{
pos = (0,660);
},
{
pos = (0,770);
}
);
layerId = "3ED9E848-BE83-4CAC-8EFF-D71BD2B4F667";
shapes = (
{
closed = 1;
nodes = (
(149,60,o),
(208,23,o),
(279,5,cs),
(299,1,o),
(313,0,o),
(333,0,cs),
(404,0,ls),
(424,0,o),
(438,1,o),
(458,5,cs),
(472,9,o),
(486,13,o),
(499,17,cs),
(526,26,o),
(21,21,o),
(539,33,cs),
(539,33,ls),
(539,12,o),
(555,0,o),
(584,0,cs),
(1091,0,l),
(1095,0,ls),
(1097,0,o),
(1098,16,o),
(1098,45,cs),
(1098,94,ls),
(1098,123,o),
(1082,139,o),
(1053,139,cs),
(755,139,ls),
(726,139,o),
(710,152,o),
(710,175,cs),
(710,175,ls),
(710,204,o),
(694,220,o),
(665,220,cs),
(562,220,ls),
(538,220,o),
(523,210,o),
(507,191,cs),
(474,149,o),
(425,124,o),
(369,124,cs),
(312,124,o),
(265,148,o),
(234,189,cs),
(219,210,o),
(203,220,o),
(179,220,cs),
(98,220,ls),
(64,220,o),
(47,198,o),
(64,167,cs),
(75,147,o),
(89,127,o),
(104,110,cs)
);
},
{
closed = 1;
nodes = (
(306,0,l),
(326,-3,o),
(347,-5,o),
(369,-5,cs),
(390,-5,o),
(411,-3,o),
(431,0,c)
);
},
{
closed = 1;
nodes = (
(539,0,l),
(1091,0,l)
);
},
{
closed = 1;
nodes = (
(431,660,l),
(411,663,o),
(390,665,o),
(369,665,cs),
(347,665,o),
(326,663,o),
(306,660,c)
);
},
{
closed = 1;
nodes = (
(22,330,l),
(22,329,o),
(22,329,o),
(22,328,cs),
(22,304,o),
(24,281,o),
(29,258,cs),
(35,232,o),
(53,220,o),
(79,220,cs),
(162,220,ls),
(194,220,o),
(205,238,o),
(199,270,cs),
(195,288,o),
(193,307,o),
(193,328,cs),
(193,329,o),
(193,329,o),
(193,330,c)
);
},
{
closed = 1;
nodes = (
(584,330,ls),
(555,330,o),
(539,314,o),
(539,285,cs),
(539,247,l),
(537,243,o),
(535,238,o),
(533,234,cs),
(529,225,o),
(551,220,o),
(585,220,cs),
(665,220,ls),
(694,220,o),
(710,236,o),
(710,265,cs),
(710,270,l),
(1034,270,ls),
(1063,270,o),
(1079,281,o),
(1079,300,cs),
(1079,300,ls),
(1079,319,o),
(1063,330,o),
(1034,330,cs)
);
},
{
closed = 1;
nodes = (
(80,440,ls),
(54,440,o),
(36,428,o),
(30,402,cs),
(28,394,o),
(27,385,o),
(25,377,cs),
(21,347,o),
(39,330,o),
(69,330,cs),
(150,330,ls),
(178,330,o),
(192,345,o),
(196,373,cs),
(197,379,o),
(198,385,o),
(199,390,cs),
(206,422,o),
(195,440,o),
(163,440,cs)
);
},
{
closed = 1;
nodes = (
(583,440,ls),
(549,440,o),
(539,409,o),
(539,409,cs),
(539,409,o),
(539,409,o),
(539,409,c),
(539,375,ls),
(539,346,o),
(555,330,o),
(584,330,cs),
(1034,330,ls),
(1063,330,o),
(1079,344,o),
(1079,369,cs),
(1079,369,ls),
(1079,394,o),
(1063,407,o),
(1034,407,cs),
(710,407,l),
(710,407,ls),
(710,428,o),
(694,440,o),
(665,440,cs)
);
},
{
closed = 1;
nodes = (
(139,550,ls),
(116,550,o),
(98,543,o),
(84,524,cs),
(77,514,o),
(71,503,o),
(65,493,cs),
(48,462,o),
(65,440,o),
(99,440,cs),
(180,440,ls),
(204,440,o),
(220,450,o),
(235,471,cs),
(266,513,o),
(312,537,o),
(369,537,cs),
(424,537,o),
(472,511,o),
(506,469,cs),
(521,450,o),
(536,440,o),
(560,440,cs),
(665,440,ls),
(694,440,o),
(710,456,o),
(710,485,cs),
(710,521,l),
(1043,521,ls),
(1072,521,o),
(1088,527,o),
(1088,536,cs),
(1088,536,ls),
(1088,545,o),
(1072,550,o),
(1043,550,cs)
);
},
{
closed = 1;
nodes = (
(333,660,ls),
(313,660,o),
(299,659,o),
(279,654,cs),
(239,644,o),
(201,628,o),
(169,606,cs),
(134,583,o),
(149,550,o),
(191,550,cs),
(1043,550,ls),
(1072,550,o),
(1088,566,o),
(1088,595,cs),
(1088,615,ls),
(1088,644,o),
(1072,660,o),
(1043,660,cs),
(584,660,ls),
(555,660,o),
(539,648,o),
(539,626,cs),
(539,626,l),
(514,638,o),
(487,648,o),
(458,655,cs),
(438,659,o),
(424,660,o),
(404,660,cs)
);
}
);
width = 1091;
}
);
note = OE;
unicode = 338;
},
{
glyphname = P;
kernLeft = B;
kernRight = P;
lastChange = "2024-07-19 21:21:30 +0000";
layers = (
{
layerId = "F5467FAD-1970-4982-B3D3-939C01050498";
shapes = (
{
closed = 1;
nodes = (
(87,0,l),
(87,321,l),
(218,321,ls),
(322,321,o),
(414,361,o),
(414,490,cs),
(414,618,o),
(316,660,o),
(223,660,cs),
(47,660,l),
(47,0,l)
);
},
{
closed = 1;
nodes = (
(87,631,l),
(221,631,ls),
(308,631,o),
(374,586,o),
(374,490,cs),
(374,396,o),
(311,347,o),
(218,347,cs),
(87,347,l)
);
}
);
width = 452;
},
{
layerId = "6DD95C5A-998B-41AB-BDFB-84A73C209871";
shapes = (
{
closed = 1;
nodes = (
(192,0,l),
(192,280,l),
(280,280,ls),
(389,280,o),
(508,329,o),
(508,471,cs),
(508,610,o),
(384,660,o),
(286,660,cs),
(47,660,l),
(47,0,l)
);
},
{
closed = 1;
nodes = (
(192,552,l),
(283,552,ls),
(334,552,o),
(372,531,o),
(372,471,cs),
(372,409,o),
(334,386,o),
(280,386,cs),
(192,386,l)
);
}
);
width = 546;
},
{
layerId = "1FDC7037-1F88-4969-8535-0F79C1EF19DB";
shapes = (
{
closed = 1;
nodes = (
(70,0,l),
(70,327,l),
(207,327,ls),
(311,327,o),
(399,366,o),
(399,493,cs),
(399,619,o),
(305,660,o),
(213,660,cs),
(47,660,l),
(47,0,l)
);
},
{
closed = 1;
nodes = (
(70,643,l),
(210,643,ls),
(305,643,o),
(374,594,o),
(374,493,cs),
(374,394,o),
(307,340,o),
(207,340,cs),
(70,340,l)
);
}
);
width = 437;
},
{
guides = (
{
pos = (0,-330);
},
{
pos = (0,-220);
},
{
pos = (0,-110);
},
{
},
{
pos = (0,110);
},
{
pos = (0,220);
},
{
pos = (0,330);
},
{
pos = (0,440);
},
{
pos = (0,550);
},
{
pos = (0,660);
},
{
pos = (0,770);
}
);
layerId = "3ED9E848-BE83-4CAC-8EFF-D71BD2B4F667";
shapes = (
{
closed = 1;
nodes = (
(495,550,ls),
(533,550,o),
(555,580,o),
(528,605,cs),
(484,644,o),
(421,660,o),
(365,660,cs),
(156,660,ls),
(127,660,o),
(109,644,o),
(106,615,cs),
(100,550,l)
);
},
{
closed = 1;
nodes = (
(83,110,ls),
(54,110,o),
(39,94,o),
(42,65,cs),
(43,45,ls),
(46,16,o),
(63,0,o),
(92,0,cs),
(174,0,ls),
(203,0,o),
(218,16,o),
(215,45,cs),
(214,65,ls),
(211,94,o),
(194,110,o),
(165,110,cs)
);
},
{
closed = 1;
nodes = (
(140,220,ls),
(111,220,o),
(91,204,o),
(85,175,cs),
(81,155,ls),
(74,126,o),
(87,110,o),
(116,110,cs),
(198,110,ls),
(227,110,o),
(246,126,o),
(253,155,cs),
(257,175,ls),
(263,204,o),
(251,220,o),
(222,220,cs)
);
},
{
closed = 1;
nodes = (
(54,330,ls),
(25,330,o),
(11,314,o),
(14,285,cs),
(17,265,ls),
(20,236,o),
(38,220,o),
(67,220,cs),
(149,220,ls),
(178,220,o),
(192,236,o),
(189,265,cs),
(188,270,l),
(264,270,ls),
(296,270,o),
(328,274,o),
(358,284,cs),
(392,294,o),
(363,330,o),
(318,330,cs)
);
},
{
closed = 1;
nodes = (
(481,440,ls),
(457,440,o),
(445,427,o),
(423,410,cs),
(407,399,o),
(386,395,o),
(364,395,cs),
(288,395,l),
(288,395,ls),
(293,424,o),
(280,440,o),
(251,440,cs),
(169,440,ls),
(140,440,o),
(121,424,o),
(116,395,cs),
(113,375,ls),
(108,346,o),
(121,330,o),
(150,330,cs),
(501,330,ls),
(524,330,o),
(542,335,o),
(559,354,cs),
(569,365,o),
(578,377,o),
(586,390,cs),
(603,420,o),
(588,440,o),
(556,440,cs)
);
},
{
closed = 1;
nodes = (
(215,550,ls),
(186,550,o),
(167,534,o),
(160,505,cs),
(156,485,ls),
(149,456,o),
(162,440,o),
(191,440,cs),
(273,440,ls),
(302,440,o),
(321,456,o),
(328,485,cs),
(338,532,l),
(417,532,ls),
(459,532,o),
(488,518,o),
(476,466,cs),
(475,461,o),
(474,457,o),
(472,453,cs),
(470,445,o),
(486,440,o),
(516,440,cs),
(586,440,ls),
(614,440,o),
(636,466,o),
(636,466,cs),
(636,466,o),
(636,466,o),
(636,466,cs),
(640,484,o),
(642,500,o),
(641,515,cs),
(641,540,o),
(623,550,o),
(598,550,cs)
);
}
);
width = 569;
}
);
note = P;
unicode = 80;
},
{
glyphname = Thorn;
lastChange = "2024-07-19 22:42:31 +0000";
layers = (
{
layerId = "F5467FAD-1970-4982-B3D3-939C01050498";
shapes = (
{
closed = 1;
nodes = (
(128,0,l),
(128,208,l),
(273,208,ls),
(375,208,o),
(470,253,o),
(470,382,cs),
(470,509,o),
(371,552,o),
(278,552,cs),
(128,552,l),
(128,660,l),
(88,660,l),
(88,0,l)
);
},
{
closed = 1;
nodes = (
(128,522,l),
(275,522,ls),
(363,522,o),
(429,478,o),
(429,382,cs),
(429,289,o),
(366,239,o),
(273,239,cs),
(128,239,l)
);
}
);
width = 501;
},
{
layerId = "6DD95C5A-998B-41AB-BDFB-84A73C209871";
shapes = (
{
closed = 1;
nodes = (
(175,0,l),
(175,182,l),
(272,182,ls),
(380,182,o),
(499,235,o),
(499,376,cs),
(499,515,o),
(374,566,o),
(277,566,cs),
(175,566,l),
(175,660,l),
(30,660,l),
(30,0,l)
);
},
{
closed = 1;
nodes = (
(175,457,l),
(274,457,ls),
(324,457,o),
(354,437,o),
(354,376,cs),
(354,315,o),
(324,291,o),
(272,291,cs),
(175,291,l)
);
}
);
width = 501;
},
{
layerId = "1FDC7037-1F88-4969-8535-0F79C1EF19DB";
shapes = (
{
closed = 1;
nodes = (
(121,0,l),
(121,212,l),
(273,212,ls),
(374,212,o),
(465,256,o),
(465,383,cs),
(465,508,o),
(370,550,o),
(278,550,cs),
(121,550,l),
(121,660,l),
(97,660,l),
(97,0,l)
);
},
{
closed = 1;
nodes = (
(121,533,l),
(275,533,ls),
(370,533,o),
(441,485,o),
(441,383,cs),
(441,285,o),
(372,230,o),
(273,230,cs),
(121,230,l)
);
}
);
width = 501;
},
{
guides = (
{
pos = (0,-330);
},
{
pos = (0,-220);
},
{
pos = (0,-110);
},
{
},
{
pos = (0,110);
},
{
pos = (0,220);
},
{
pos = (0,330);
},
{
pos = (0,440);
},
{
pos = (0,550);
},
{
pos = (0,660);
},
{
pos = (0,770);
}
);
layerId = "3ED9E848-BE83-4CAC-8EFF-D71BD2B4F667";
shapes = (
{
closed = 1;
nodes = (
(61,660,ls),
(32,660,o),
(16,644,o),
(16,615,cs),
(16,595,ls),
(16,566,o),
(32,550,o),
(61,550,cs),
(199,550,ls),
(208,550,o),
(277,570,o),
(277,570,cs),
(277,570,o),
(277,570,o),
(277,570,cs),
(232,570,ls),
(203,570,o),
(187,586,o),
(187,615,cs),
(187,660,l)
);
},
{
closed = 1;
nodes = (
(61,110,ls),
(32,110,o),
(16,94,o),
(16,65,cs),
(16,45,ls),
(16,16,o),
(32,0,o),
(61,0,cs),
(142,0,ls),
(171,0,o),
(187,16,o),
(187,45,cs),
(187,65,ls),
(187,94,o),
(171,110,o),
(142,110,cs)
);
},
{
closed = 1;
nodes = (
(61,220,ls),
(32,220,o),
(16,204,o),
(16,175,cs),
(16,155,ls),
(16,126,o),
(32,110,o),
(61,110,cs),
(142,110,ls),
(171,110,o),
(187,126,o),
(187,155,cs),
(187,175,l),
(272,175,ls),
(299,175,o),
(327,179,o),
(354,186,cs),
(374,191,o),
(307,220,o),
(266,220,cs)
);
},
{
closed = 1;
nodes = (
(61,440,ls),
(32,440,o),
(16,424,o),
(16,395,cs),
(16,375,ls),
(16,346,o),
(32,330,o),
(61,330,cs),
(142,330,ls),
(171,330,o),
(187,346,o),
(187,375,cs),
(187,395,ls),
(187,424,o),
(171,440,o),
(142,440,cs)
);
},
{
closed = 1;
nodes = (
(290,440,l),
(320,436,o),
(335,419,o),
(335,375,cs),
(335,355,o),
(332,341,o),
(326,330,cs),
(317,312,o),
(298,305,o),
(272,305,cs),
(187,305,l),
(187,305,ls),
(187,321,o),
(171,330,o),
(142,330,cs),
(61,330,ls),
(32,330,o),
(16,314,o),
(16,285,cs),
(16,265,ls),
(16,236,o),
(32,220,o),
(61,220,cs),
(398,220,ls),
(420,220,o),
(437,224,o),
(453,240,cs),
(485,271,o),
(506,316,o),
(506,375,cs),
(506,387,o),
(505,398,o),
(503,408,cs),
(500,430,o),
(481,440,o),
(455,440,cs)
);
},
{
closed = 1;
nodes = (
(61,550,ls),
(32,550,o),
(16,534,o),
(16,505,cs),
(16,485,ls),
(16,456,o),
(32,440,o),
(61,440,cs),
(187,440,l),
(187,441,l),
(274,441,ls),
(280,441,o),
(285,441,o),
(290,440,c),
(432,440,ls),
(468,440,o),
(487,466,o),
(463,494,cs),
(448,512,o),
(429,527,o),
(408,538,cs),
(390,548,o),
(374,550,o),
(353,550,cs)
);
}
);
width = 501;
}
);
note = Thorn;
unicode = 222;
},
{
glyphname = Q;
kernLeft = C;
kernRight = Q;
lastChange = "2024-07-19 21:21:30 +0000";
layers = (
{
layerId = "F5467FAD-1970-4982-B3D3-939C01050498";
shapes = (
{
closed = 1;
nodes = (
(429,-5,o),
(500,23,o),
(554,69,c),
(627,0,l),
(673,0,l),
(575,90,l),
(633,150,o),
(666,234,o),
(666,328,cs),
(666,515,o),
(536,665,o),
(348,665,cs),
(159,665,o),
(29,515,o),
(29,328,cs),
(29,143,o),
(160,-5,o),
(348,-5,cs)
);
},
{
closed = 1;
nodes = (
(185,25,o),
(69,155,o),
(69,328,cs),
(69,503,o),
(186,636,o),
(348,636,cs),
(511,636,o),
(626,503,o),
(626,328,cs),
(626,242,o),
(598,168,o),
(550,113,c),
(405,247,l),
(362,247,l),
(529,91,l),
(481,50,o),
(419,25,o),
(348,25,cs)
);
}
);
width = 728;
},
{
layerId = "6DD95C5A-998B-41AB-BDFB-84A73C209871";
shapes = (
{
closed = 1;
nodes = (
(447,-5,o),
(505,12,o),
(554,41,c),
(600,0,l),
(782,0,l),
(647,124,l),
(690,181,o),
(715,253,o),
(715,328,cs),
(715,507,o),
(579,665,o),
(381,665,cs),
(183,665,o),
(47,507,o),
(47,328,cs),
(47,151,o),
(184,-5,o),
(381,-5,cs)
);
},
{
closed = 1;
nodes = (
(273,104,o),
(192,194,o),
(192,328,cs),
(192,464,o),
(273,556,o),
(381,556,cs),
(489,556,o),
(570,464,o),
(570,328,cs),
(570,286,o),
(561,248,o),
(547,216,c),
(456,299,l),
(279,299,l),
(466,124,l),
(440,111,o),
(412,104,o),
(381,104,cs)
);
}
);
width = 788;
},
{
layerId = "1FDC7037-1F88-4969-8535-0F79C1EF19DB";
shapes = (
{
closed = 1;
nodes = (
(426,-5,o),
(499,25,o),
(554,74,c),
(632,0,l),
(656,0,l),
(564,84,l),
(623,145,o),
(658,231,o),
(658,328,cs),
(658,516,o),
(529,665,o),
(342,665,cs),
(156,665,o),
(26,516,o),
(26,328,cs),
(26,142,o),
(157,-5,o),
(342,-5,cs)
);
},
{
closed = 1;
nodes = (
(171,12,o),
(49,148,o),
(49,328,cs),
(49,509,o),
(172,648,o),
(342,648,cs),
(515,648,o),
(636,509,o),
(636,328,cs),
(636,236,o),
(604,155,o),
(551,97,c),
(396,239,l),
(375,239,l),
(538,87,l),
(488,40,o),
(420,12,o),
(342,12,cs)
);
}
);
width = 719;
},
{
guides = (
{
pos = (0,-330);
},
{
pos = (0,-220);
},
{
pos = (0,-110);
},
{
},
{
pos = (0,110);
},
{
pos = (0,220);
},
{
pos = (0,330);
},
{
pos = (0,440);
},
{
pos = (0,550);
},
{
pos = (0,660);
},
{
pos = (0,770);
}
);
layerId = "3ED9E848-BE83-4CAC-8EFF-D71BD2B4F667";
shapes = (
{
closed = 1;
nodes = (
(342,660,l),
(322,663,o),
(302,665,o),
(281,665,cs),
(260,665,o),
(242,663,o),
(222,660,c)
);
},
{
closed = 1;
nodes = (
(452,0,ls),
(500,0,o),
(390,-5,o),
(390,-5,cs),
(390,-5,o),
(390,-5,o),
(390,-5,cs),
(412,-5,o),
(432,-3,o),
(452,0,c)
);
},
{
closed = 1;
nodes = (
(593,0,l),
(803,0,l)
);
},
{
closed = 1;
nodes = (
(207,110,ls),
(166,110,o),
(155,77,o),
(191,54,cs),
(224,32,o),
(261,16,o),
(301,6,cs),
(322,1,o),
(336,0,o),
(356,0,cs),
(425,0,ls),
(445,0,o),
(459,1,o),
(478,5,cs),
(504,12,o),
(529,22,o),
(551,35,c),
(567,21,ls),
(585,6,o),
(603,0,o),
(625,0,cs),
(803,0,l),
(805,0,ls),
(806,0,o),
(776,27,o),
(744,55,cs),
(705,88,ls),
(688,103,o),
(670,110,o),
(647,110,cs)
);
},
{
closed = 1;
nodes = (
(454,220,ls),
(413,220,o),
(400,193,o),
(428,165,cs),
(460,132,l),
(439,126,o),
(419,124,o),
(398,124,cs),
(347,124,o),
(304,148,o),
(276,189,cs),
(264,210,o),
(250,220,o),
(225,220,cs),
(144,220,ls),
(110,220,o),
(91,198,o),
(105,167,cs),
(110,157,o),
(115,147,o),
(122,137,cs),
(134,117,o),
(152,110,o),
(175,110,cs),
(616,110,ls),
(657,110,o),
(686,122,o),
(674,133,cs),
(674,133,l),
(684,146,o),
(694,160,o),
(702,175,cs),
(717,201,o),
(701,220,o),
(667,220,cs)
);
},
{
closed = 1;
nodes = (
(-5,330,l),
(-4,329,o),
(-4,329,o),
(-4,328,cs),
(0,304,o),
(6,281,o),
(15,258,cs),
(25,232,o),
(45,220,o),
(71,220,cs),
(154,220,ls),
(186,220,o),
(194,238,o),
(183,270,cs),
(176,288,o),
(170,307,o),
(167,328,cs),
(167,329,o),
(167,329,o),
(166,330,c)
);
},
{
closed = 1;
nodes = (
(592,330,l),
(592,329,o),
(592,329,o),
(592,328,cs),
(588,296,o),
(582,268,o),
(573,241,c),
(526,290,ls),
(512,305,o),
(496,312,o),
(473,312,cs),
(374,312,ls),
(333,312,o),
(319,285,o),
(346,257,cs),
(360,242,ls),
(374,227,o),
(390,220,o),
(413,220,cs),
(694,220,ls),
(720,220,o),
(740,232,o),
(749,258,cs),
(756,281,o),
(761,304,o),
(764,328,cs),
(764,329,o),
(764,329,o),
(764,330,c)
);
},
{
closed = 1;
nodes = (
(104,440,ls),
(78,440,o),
(60,428,o),
(54,402,cs),
(52,394,o),
(51,385,o),
(50,377,cs),
(46,347,o),
(64,330,o),
(94,330,cs),
(175,330,ls),
(203,330,o),
(217,345,o),
(221,373,cs),
(222,379,o),
(222,385,o),
(223,390,cs),
(230,422,o),
(219,440,o),
(187,440,cs)
);
},
{
closed = 1;
nodes = (
(612,440,ls),
(580,440,o),
(568,422,o),
(573,390,cs),
(573,384,o),
(574,379,o),
(575,373,cs),
(577,345,o),
(590,330,o),
(618,330,cs),
(700,330,ls),
(730,330,o),
(749,347,o),
(747,377,cs),
(745,385,o),
(745,394,o),
(744,402,cs),
(739,428,o),
(722,440,o),
(696,440,cs)
);
},
{
closed = 1;
nodes = (
(89,550,ls),
(66,550,o),
(49,543,o),
(38,523,cs),
(33,514,o),
(28,503,o),
(23,493,cs),
(11,462,o),
(32,440,o),
(66,440,cs),
(147,440,ls),
(172,440,o),
(184,450,o),
(196,471,cs),
(220,513,o),
(261,537,o),
(312,537,cs),
(363,537,o),
(410,513,o),
(446,471,cs),
(464,450,o),
(480,440,o),
(505,440,cs),
(587,440,ls),
(621,440,o),
(634,462,o),
(613,493,cs),
(607,503,o),
(598,513,o),
(591,523,cs),
(574,543,o),
(555,550,o),
(532,550,cs)
);
},
{
closed = 1;
nodes = (
(402,660,ls),
(382,660,o),
(368,659,o),
(347,654,cs),
(309,644,o),
(272,628,o),
(239,606,cs),
(203,583,o),
(216,550,o),
(257,550,cs),
(598,550,ls),
(639,550,o),
(656,583,o),
(624,606,cs),
(595,628,o),
(560,644,o),
(521,654,cs),
(502,659,o),
(488,660,o),
(468,660,cs)
);
}
);
width = 803;
}
);
note = Q;
unicode = 81;
},
{
glyphname = R;
kernLeft = B;
kernRight = R;
lastChange = "2024-07-19 21:21:30 +0000";
layers = (
{
anchors = (
{
name = bottom;
pos = (262,0);
},
{
name = top;
pos = (234,660);
}
);
layerId = "F5467FAD-1970-4982-B3D3-939C01050498";
shapes = (
{
closed = 1;
nodes = (
(93,0,l),
(93,367,l),
(220,368,ls),
(226,368,o),
(232,368,o),
(239,369,c),
(481,0,l),
(528,0,l),
(284,372,l),
(357,386,o),
(410,426,o),
(410,521,cs),
(410,627,o),
(330,660,o),
(227,660,cs),
(53,660,l),
(53,0,l)
);
},
{
closed = 1;
nodes = (
(93,631,l),
(227,631,l),
(318,631,o),
(371,585,o),
(371,511,cs),
(371,438,o),
(320,389,o),
(223,389,cs),
(93,389,l)
);
}
);
width = 538;
},
{
anchors = (
{
name = bottom;
pos = (340,0);
},
{
name = top;
pos = (290,660);
}
);
layerId = "6DD95C5A-998B-41AB-BDFB-84A73C209871";
shapes = (
{
closed = 1;
nodes = (
(192,0,l),
(192,298,l),
(273,298,ls),
(276,298,o),
(279,298,o),
(282,298,c),
(471,0,l),
(634,0,l),
(423,333,l),
(473,361,o),
(508,408,o),
(508,479,cs),
(508,610,o),
(389,660,o),
(273,660,cs),
(47,660,l),
(47,0,l)
);
},
{
closed = 1;
nodes = (
(192,552,l),
(273,552,ls),
(332,552,o),
(363,532,o),
(363,479,cs),
(363,426,o),
(332,406,o),
(273,406,cs),
(192,406,l)
);
}
);
width = 643;
},
{
anchors = (
{
name = bottom;
pos = (250,0);
},
{
name = top;
pos = (224,660);
}
);
layerId = "1FDC7037-1F88-4969-8535-0F79C1EF19DB";
shapes = (
{
closed = 1;
nodes = (
(77,0,l),
(77,378,l),
(211,379,ls),
(219,379,o),
(224,379,o),
(231,379,c),
(483,0,l),
(511,0,l),
(261,379,l),
(339,389,o),
(394,429,o),
(394,528,cs),
(394,630,o),
(321,660,o),
(220,660,cs),
(54,660,l),
(54,0,l)
);
},
{
closed = 1;
nodes = (
(77,643,l),
(220,643,l),
(316,643,o),
(372,593,o),
(372,516,cs),
(372,440,o),
(318,386,o),
(216,386,cs),
(77,386,l)
);
}
);
width = 521;
},
{
anchors = (
{
name = bottom;
pos = (359,0);
},
{
name = top;
pos = (305,660);
}
);
guides = (
{
pos = (0,-330);
},
{
pos = (0,-220);
},
{
pos = (0,-110);
},
{
},
{
pos = (0,110);
},
{
pos = (0,220);
},
{
pos = (0,330);
},
{
pos = (0,440);
},
{
pos = (0,550);
},
{
pos = (0,660);
},
{
pos = (0,770);
}
);
layerId = "3ED9E848-BE83-4CAC-8EFF-D71BD2B4F667";
shapes = (
{
closed = 1;
nodes = (
(377,550,ls),
(415,550,o),
(430,580,o),
(396,605,cs),
(343,643,o),
(271,660,o),
(205,660,cs),
(11,660,ls),
(-18,660,o),
(-32,644,o),
(-28,615,cs),
(-20,550,l)
);
},
{
closed = 1;
nodes = (
(119,110,ls),
(90,110,o),
(70,94,o),
(63,65,cs),
(58,45,ls),
(50,16,o),
(62,0,o),
(91,0,cs),
(172,0,ls),
(201,0,o),
(221,16,o),
(229,45,cs),
(234,65,ls),
(241,94,o),
(229,110,o),
(200,110,cs)
);
},
{
closed = 1;
nodes = (
(478,110,ls),
(442,110,o),
(426,87,o),
(441,56,cs),
(453,30,ls),
(463,10,o),
(479,0,o),
(503,0,cs),
(596,0,ls),
(632,0,o),
(648,23,o),
(633,54,cs),
(621,80,ls),
(611,100,o),
(595,110,o),
(571,110,cs)
);
},
{
closed = 1;
nodes = (
(117,220,ls),
(88,220,o),
(70,204,o),
(67,175,cs),
(64,155,ls),
(61,126,o),
(75,110,o),
(104,110,cs),
(185,110,ls),
(214,110,o),
(232,126,o),
(235,155,cs),
(238,175,ls),
(241,204,o),
(227,220,o),
(198,220,cs)
);
},
{
closed = 1;
nodes = (
(445,220,ls),
(409,220,o),
(391,197,o),
(402,166,cs),
(412,140,ls),
(421,120,o),
(435,110,o),
(459,110,cs),
(552,110,ls),
(588,110,o),
(607,133,o),
(595,164,cs),
(585,190,ls),
(577,210,o),
(562,220,o),
(538,220,cs)
);
},
{
closed = 1;
nodes = (
(53,330,ls),
(24,330,o),
(10,314,o),
(14,285,cs),
(16,265,ls),
(19,236,o),
(37,220,o),
(66,220,cs),
(147,220,ls),
(176,220,o),
(190,236,o),
(187,265,cs),
(185,281,l),
(255,281,ls),
(257,281,o),
(258,281,o),
(260,281,c),
(283,250,ls),
(298,229,o),
(316,220,o),
(340,220,cs),
(433,220,ls),
(469,220,o),
(479,243,o),
(457,274,cs),
(420,323,l),
(422,324,o),
(423,325,o),
(425,327,cs),
(427,328,o),
(380,330,o),
(338,330,cs)
);
},
{
closed = 1;
nodes = (
(405,440,ls),
(382,440,o),
(370,427,o),
(348,418,cs),
(337,413,o),
(321,411,o),
(302,411,cs),
(233,411,l),
(233,411,ls),
(233,429,o),
(218,440,o),
(189,440,cs),
(108,440,ls),
(79,440,o),
(62,424,o),
(61,395,cs),
(60,375,ls),
(59,346,o),
(75,330,o),
(104,330,cs),
(447,330,ls),
(469,330,o),
(487,335,o),
(503,352,cs),
(513,363,o),
(522,375,o),
(530,389,cs),
(546,419,o),
(526,440,o),
(494,440,cs)
);
},
{
closed = 1;
nodes = (
(81,550,ls),
(52,550,o),
(37,534,o),
(37,505,cs),
(38,485,ls),
(38,456,o),
(54,440,o),
(83,440,cs),
(164,440,ls),
(193,440,o),
(209,456,o),
(209,485,cs),
(208,532,l),
(276,532,l),
(327,532,o),
(352,519,o),
(353,472,cs),
(353,466,o),
(353,461,o),
(352,456,cs),
(350,445,o),
(366,440,o),
(397,440,cs),
(480,440,ls),
(508,440,o),
(525,469,o),
(525,469,cs),
(525,469,o),
(525,469,o),
(525,469,cs),
(525,485,o),
(522,500,o),
(519,514,cs),
(513,539,o),
(493,550,o),
(467,550,cs)
);
}
);
width = 669;
}
);
note = R;
unicode = 82;
},
{
glyphname = S;
kernLeft = S;
kernRight = S;
lastChange = "2024-07-19 21:21:30 +0000";
layers = (
{
anchors = (
{
name = bottom;
pos = (288,0);
},
{
name = top;
pos = (289,660);
}
);
layerId = "F5467FAD-1970-4982-B3D3-939C01050498";
shapes = (
{
closed = 1;
nodes = (
(449,-7,o),
(518,69,o),
(518,170,cs),
(518,284,o),
(426,313,o),
(286,360,cs),
(150,405,o),
(124,445,o),
(124,513,cs),
(124,587,o),
(172,644,o),
(282,644,cs),
(356,644,o),
(412,614,o),
(431,559,c),
(471,570,l),
(444,635,o),
(371,668,o),
(282,668,cs),
(146,668,o),
(82,600,o),
(82,513,cs),
(82,425,o),
(145,377,o),
(275,335,cs),
(425,286,o),
(474,264,o),
(474,170,cs),
(474,80,o),
(416,19,o),
(287,19,cs),
(159,19,o),
(94,78,o),
(65,162,c),
(28,143,l),
(69,54,o),
(146,-7,o),
(287,-7,cs)
);
}
);
width = 546;
},
{
anchors = (
{
name = bottom;
pos = (303,0);
},
{
name = top;
pos = (304,660);
}
);
layerId = "6DD95C5A-998B-41AB-BDFB-84A73C209871";
shapes = (
{
closed = 1;
nodes = (
(467,-8,o),
(553,75,o),
(553,198,cs),
(553,323,o),
(400,369,o),
(319,399,cs),
(243,427,o),
(208,449,o),
(208,491,cs),
(208,536,o),
(247,565,o),
(298,565,cs),
(359,565,o),
(387,538,o),
(393,479,c),
(526,513,l),
(516,612,o),
(409,669,o),
(298,669,cs),
(168,669,o),
(67,604,o),
(67,491,cs),
(67,387,o),
(144,342,o),
(276,297,cs),
(356,270,o),
(412,250,o),
(412,189,cs),
(412,136,o),
(371,105,o),
(303,105,cs),
(209,105,o),
(162,152,o),
(129,243,c),
(11,184,l),
(45,79,o),
(136,-8,o),
(303,-8,cs)
);
}
);
width = 577;
},
{
anchors = (
{
name = bottom;
pos = (285,0);
},
{
name = top;
pos = (286,660);
}
);
layerId = "1FDC7037-1F88-4969-8535-0F79C1EF19DB";
shapes = (
{
closed = 1;
nodes = (
(446,-7,o),
(512,68,o),
(512,165,cs),
(512,277,o),
(430,305,o),
(280,354,cs),
(135,402,o),
(110,444,o),
(110,517,cs),
(110,596,o),
(159,656,o),
(279,656,cs),
(356,656,o),
(416,626,o),
(437,572,c),
(462,579,l),
(433,638,o),
(364,668,o),
(279,668,cs),
(142,668,o),
(85,599,o),
(85,517,cs),
(85,432,o),
(145,383,o),
(275,340,cs),
(437,289,o),
(485,266,o),
(485,167,cs),
(485,72,o),
(423,5,o),
(284,5,cs),
(152,5,o),
(83,67,o),
(55,149,c),
(31,137,l),
(73,50,o),
(148,-7,o),
(284,-7,cs)
);
}
);
width = 541;
},
{
anchors = (
{
name = bottom;
pos = (306,0);
},
{
name = top;
pos = (307,660);
}
);
guides = (
{
pos = (0,-330);
},
{
pos = (0,-220);
},
{
pos = (0,-110);
},
{
},
{
pos = (0,110);
},
{
pos = (0,220);
},
{
pos = (0,330);
},
{
pos = (0,440);
},
{
pos = (0,550);
},
{
pos = (0,660);
},
{
pos = (0,770);
}
);
layerId = "3ED9E848-BE83-4CAC-8EFF-D71BD2B4F667";
shapes = (
{
closed = 1;
nodes = (
(171,220,ls),
(201,220,o),
(218,241,o),
(218,241,cs),
(218,241,o),
(218,241,o),
(218,241,cs),
(216,255,o),
(198,256,o),
(168,242,cs),
(168,242,ls),
(150,234,o),
(152,220,o),
(171,220,cs)
);
},
{
closed = 1;
nodes = (
(306,0,ls),
(331,0,o),
(305,-8,o),
(305,-8,cs),
(305,-8,o),
(305,-8,o),
(305,-8,cs),
(319,-8,o),
(333,-7,o),
(346,-6,cs),
(334,-7,o),
(282,0,o),
(306,0,cs)
);
},
{
closed = 1;
nodes = (
(139,110,ls),
(99,110,o),
(79,79,o),
(108,54,cs),
(133,34,o),
(162,18,o),
(197,7,cs),
(216,1,o),
(230,0,o),
(250,0,cs),
(361,0,ls),
(381,0,o),
(395,1,o),
(416,7,cs),
(452,18,o),
(483,34,o),
(507,55,cs),
(538,82,o),
(522,110,o),
(485,110,cs)
);
},
{
closed = 1;
nodes = (
(305,660,ls),
(291,660,o),
(307,669,o),
(307,669,cs),
(307,669,o),
(307,669,o),
(307,669,cs),
(293,669,o),
(280,668,o),
(267,667,cs),
(275,668,o),
(321,660,o),
(305,660,cs)
);
},
{
closed = 1;
nodes = (
(422,220,ls),
(391,220,o),
(379,193,o),
(379,193,cs),
(379,193,o),
(379,193,o),
(379,193,cs),
(383,149,o),
(348,125,o),
(295,125,cs),
(238,125,o),
(198,146,o),
(164,189,cs),
(148,210,o),
(132,220,o),
(107,220,cs),
(69,220,ls),
(48,220,o),
(33,217,o),
(15,207,cs),
(15,207,ls),
(-1,198,o),
(-5,180,o),
(9,154,cs),
(11,149,o),
(15,145,o),
(17,140,cs),
(30,118,o),
(49,110,o),
(73,110,cs),
(493,110,ls),
(519,110,o),
(536,121,o),
(541,146,cs),
(544,164,o),
(544,184,o),
(542,205,cs),
(542,208,o),
(542,210,o),
(542,213,cs),
(541,217,o),
(524,220,o),
(496,220,cs)
);
},
{
closed = 1;
nodes = (
(307,330,ls),
(263,330,o),
(272,288,o),
(272,288,cs),
(272,288,o),
(272,288,o),
(272,288,cs),
(309,275,o),
(344,263,o),
(367,246,cs),
(385,230,o),
(399,220,o),
(422,220,cs),
(504,220,ls),
(536,220,o),
(557,241,o),
(541,270,cs),
(533,285,o),
(522,298,o),
(510,310,cs),
(494,326,o),
(477,330,o),
(455,330,cs)
);
},
{
closed = 1;
nodes = (
(163,440,ls),
(128,440,o),
(106,415,o),
(125,387,cs),
(137,371,o),
(153,357,o),
(173,344,cs),
(190,333,o),
(206,330,o),
(227,330,cs),
(397,330,ls),
(442,330,o),
(456,368,o),
(415,385,cs),
(393,395,o),
(373,402,o),
(358,408,cs),
(343,414,o),
(329,420,o),
(317,426,cs),
(299,435,o),
(284,440,o),
(263,440,cs)
);
},
{
closed = 1;
nodes = (
(105,550,ls),
(79,550,o),
(59,539,o),
(56,512,cs),
(55,504,o),
(55,495,o),
(55,486,cs),
(55,478,o),
(55,470,o),
(56,463,cs),
(58,447,o),
(76,440,o),
(103,440,cs),
(186,440,ls),
(222,440,o),
(221,486,o),
(221,486,cs),
(221,486,o),
(221,486,o),
(221,486,cs),
(220,522,o),
(257,545,o),
(293,545,cs),
(334,545,o),
(356,533,o),
(367,504,cs),
(378,476,o),
(392,463,o),
(420,470,cs),
(490,488,ls),
(517,495,o),
(526,525,o),
(526,525,cs),
(526,525,o),
(526,525,o),
(526,525,cs),
(522,542,o),
(505,550,o),
(479,550,cs)
);
},
{
closed = 1;
nodes = (
(300,660,ls),
(280,660,o),
(265,659,o),
(244,652,cs),
(211,642,o),
(182,625,o),
(159,604,cs),
(130,578,o),
(146,550,o),
(183,550,cs),
(501,550,ls),
(538,550,o),
(560,578,o),
(535,604,cs),
(514,625,o),
(485,642,o),
(454,652,cs),
(435,659,o),
(420,660,o),
(400,660,cs)
);
}
);
width = 585;
}
);
note = S;
unicode = 83;
},
{
glyphname = Germandbls;
lastChange = "2024-07-19 12:15:09 +0000";
layers = (
{
layerId = "F5467FAD-1970-4982-B3D3-939C01050498";
shapes = (
{
closed = 1;
nodes = (
(466,-9,o),
(569,64,o),
(569,190,cs),
(569,335,o),
(474,398,o),
(358,398,cs),
(352,398,o),
(345,397,o),
(338,397,c),
(555,633,l),
(555,660,l),
(47,660,l),
(47,0,l),
(89,0,l),
(89,633,l),
(513,633,l),
(290,388,l),
(315,362,l),
(330,366,o),
(344,367,o),
(361,367,cs),
(457,367,o),
(530,301,o),
(530,190,cs),
(530,77,o),
(445,12,o),
(351,12,cs),
(256,12,o),
(187,56,o),
(174,154,c),
(134,154,l),
(150,42,o),
(236,-9,o),
(351,-9,cs)
);
}
);
width = 616;
},
{
layerId = "6DD95C5A-998B-41AB-BDFB-84A73C209871";
shapes = (
{
closed = 1;
nodes = (
(596,-9,o),
(717,75,o),
(717,207,cs),
(717,308,o),
(653,376,o),
(570,400,cs),
(562,403,o),
(554,404,o),
(547,405,c),
(705,568,l),
(705,660,l),
(47,660,l),
(47,0,l),
(190,0,l),
(190,558,l),
(521,558,l),
(356,381,l),
(417,307,l),
(452,318,o),
(460,321,o),
(480,321,cs),
(533,321,o),
(572,284,o),
(572,207,cs),
(572,129,o),
(525,92,o),
(471,92,cs),
(404,92,o),
(365,123,o),
(368,216,c),
(223,216,l),
(219,67,o),
(331,-9,o),
(471,-9,cs)
);
}
);
width = 764;
},
{
layerId = "1FDC7037-1F88-4969-8535-0F79C1EF19DB";
shapes = (
{
closed = 1;
nodes = (
(445,-9,o),
(545,62,o),
(545,188,cs),
(545,339,o),
(446,402,o),
(324,398,cs),
(318,397,o),
(311,396,o),
(304,396,c),
(532,643,l),
(532,660,l),
(47,660,l),
(47,0,l),
(73,0,l),
(73,645,l),
(512,645,l),
(279,389,l),
(299,371,l),
(310,373,o),
(325,374,o),
(342,374,cs),
(445,374,o),
(523,304,o),
(523,188,cs),
(523,69,o),
(432,-1,o),
(332,-1,cs),
(233,-1,o),
(158,45,o),
(142,143,c),
(120,143,l),
(139,39,o),
(221,-9,o),
(332,-9,cs)
);
}
);
width = 592;
},
{
guides = (
{
pos = (0,-330);
},
{
pos = (0,-220);
},
{
pos = (0,-110);
},
{
},
{
pos = (0,110);
},
{
pos = (0,220);
},
{
pos = (0,330);
},
{
pos = (0,440);
},
{
pos = (0,550);
},
{
pos = (0,660);
},
{
pos = (0,770);
}
);
layerId = "3ED9E848-BE83-4CAC-8EFF-D71BD2B4F667";
shapes = (
{
closed = 1;
nodes = (
(415,220,l),
(415,222,o),
(415,224,o),
(416,226,cs),
(416,229,o),
(399,231,o),
(369,231,cs),
(245,231,l),
(245,229,o),
(245,227,o),
(245,226,cs),
(245,222,o),
(261,220,o),
(290,220,cs)
);
},
{
closed = 1;
nodes = (
(338,110,ls),
(300,110,o),
(283,81,o),
(311,55,cs),
(340,28,o),
(378,10,o),
(420,0,c),
(47,0,l),
(171,0,ls),
(200,0,o),
(216,16,o),
(216,45,cs),
(216,65,ls),
(216,94,o),
(200,110,o),
(171,110,cs),
(92,110,ls),
(63,110,o),
(47,94,o),
(47,65,cs),
(47,45,ls),
(47,16,o),
(63,0,o),
(92,0,cs),
(420,0,l),
(445,-6,o),
(472,-9,o),
(500,-9,cs),
(524,-9,o),
(548,-6,o),
(571,0,cs),
(611,10,o),
(649,29,o),
(679,55,cs),
(709,80,o),
(692,110,o),
(653,110,cs)
);
},
{
closed = 1;
nodes = (
(92,220,ls),
(63,220,o),
(47,204,o),
(47,175,cs),
(47,155,ls),
(47,126,o),
(63,110,o),
(92,110,cs),
(171,110,ls),
(200,110,o),
(216,126,o),
(216,155,cs),
(216,175,ls),
(216,204,o),
(200,220,o),
(171,220,cs)
);
},
{
closed = 1;
nodes = (
(92,660,ls),
(63,660,o),
(47,644,o),
(47,615,cs),
(47,595,ls),
(47,566,o),
(63,550,o),
(92,550,cs),
(740,550,l),
(741,551,ls),
(741,551,o),
(742,562,o),
(742,585,cs),
(742,660,l)
);
},
{
closed = 1;
nodes = (
(583,220,l),
(583,217,o),
(583,214,o),
(583,211,cs),
(583,142,o),
(545,112,o),
(500,112,cs),
(454,112,o),
(425,128,o),
(417,175,cs),
(412,204,o),
(399,220,o),
(371,220,cs),
(291,220,ls),
(262,220,o),
(243,204,o),
(247,174,cs),
(249,164,o),
(251,154,o),
(254,144,cs),
(261,120,o),
(280,110,o),
(305,110,cs),
(689,110,ls),
(714,110,o),
(733,119,o),
(741,143,cs),
(749,164,o),
(753,187,o),
(753,211,cs),
(753,213,o),
(753,214,o),
(753,216,cs),
(753,218,o),
(737,220,o),
(708,220,cs)
);
},
{
closed = 1;
nodes = (
(92,330,ls),
(63,330,o),
(47,314,o),
(47,285,cs),
(47,265,ls),
(47,236,o),
(63,220,o),
(92,220,cs),
(171,220,ls),
(200,220,o),
(216,236,o),
(216,265,cs),
(216,285,ls),
(216,314,o),
(200,330,o),
(171,330,cs)
);
},
{
closed = 1;
nodes = (
(484,330,ls),
(446,330,o),
(419,321,o),
(427,312,cs),
(427,312,ls),
(437,300,o),
(454,298,o),
(479,305,cs),
(490,308,o),
(497,309,o),
(509,309,cs),
(539,309,o),
(564,295,o),
(576,261,cs),
(585,234,o),
(597,220,o),
(624,220,cs),
(704,220,ls),
(734,220,o),
(754,238,o),
(745,268,cs),
(742,279,o),
(738,290,o),
(733,300,cs),
(722,322,o),
(704,330,o),
(680,330,cs)
);
},
{
closed = 1;
nodes = (
(92,440,ls),
(63,440,o),
(47,424,o),
(47,395,cs),
(47,375,ls),
(47,346,o),
(63,330,o),
(92,330,cs),
(171,330,ls),
(200,330,o),
(216,346,o),
(216,375,cs),
(216,395,ls),
(216,424,o),
(200,440,o),
(171,440,cs)
);
},
{
closed = 1;
nodes = (
(462,440,ls),
(439,440,o),
(423,433,o),
(407,416,cs),
(401,410,ls),
(382,390,o),
(379,371,o),
(392,355,cs),
(392,355,ls),
(406,337,o),
(423,330,o),
(446,330,cs),
(630,330,ls),
(671,330,o),
(688,365,o),
(652,386,cs),
(642,391,o),
(632,396,o),
(621,400,cs),
(614,404,o),
(606,405,o),
(599,407,c),
(599,407,ls),
(616,424,o),
(594,440,o),
(554,440,cs)
);
},
{
closed = 1;
nodes = (
(92,550,ls),
(63,550,o),
(47,534,o),
(47,505,cs),
(47,485,ls),
(47,456,o),
(63,440,o),
(92,440,cs),
(171,440,ls),
(200,440,o),
(216,456,o),
(216,485,cs),
(216,540,l),
(522,540,l),
(480,495,ls),
(453,466,o),
(466,440,o),
(505,440,cs),
(599,440,ls),
(622,440,o),
(639,446,o),
(655,463,cs),
(686,495,ls),
(714,524,o),
(702,550,o),
(662,550,cs)
);
}
);
width = 801;
}
);
unicode = 7838;
},
{
glyphname = T;
kernLeft = T;
kernRight = T;
lastChange = "2024-07-19 21:21:30 +0000";
layers = (
{
anchors = (
{
name = bottom;
pos = (314,0);
},
{
name = top;
pos = (315,660);
}
);
layerId = "F5467FAD-1970-4982-B3D3-939C01050498";
shapes = (
{
closed = 1;
nodes = (
(335,0,l),
(335,632,l),
(610,632,l),
(610,660,l),
(19,660,l),
(19,632,l),
(295,632,l),
(295,0,l)
);
}
);
width = 629;
},
{
anchors = (
{
name = bottom;
pos = (339,0);
},
{
name = top;
pos = (339,660);
}
);
layerId = "6DD95C5A-998B-41AB-BDFB-84A73C209871";
shapes = (
{
closed = 1;
nodes = (
(411,0,l),
(411,543,l),
(653,543,l),
(653,660,l),
(24,660,l),
(24,543,l),
(266,543,l),
(266,0,l)
);
}
);
width = 676;
},
{
anchors = (
{
name = bottom;
pos = (310,0);
},
{
name = top;
pos = (311,660);
}
);
layerId = "1FDC7037-1F88-4969-8535-0F79C1EF19DB";
shapes = (
{
closed = 1;
nodes = (
(323,0,l),
(323,646,l),
(604,646,l),
(604,660,l),
(18,660,l),
(18,646,l),
(300,646,l),
(300,0,l)
);
}
);
width = 621;
},
{
anchors = (
{
name = bottom;
pos = (344,0);
},
{
name = top;
pos = (345,660);
}
);
guides = (
{
pos = (0,-330);
},
{
pos = (0,-220);
},
{
pos = (0,-110);
},
{
},
{
pos = (0,110);
},
{
pos = (0,220);
},
{
pos = (0,330);
},
{
pos = (0,440);
},
{
pos = (0,550);
},
{
pos = (0,660);
},
{
pos = (0,770);
}
);
layerId = "3ED9E848-BE83-4CAC-8EFF-D71BD2B4F667";
shapes = (
{
closed = 1;
nodes = (
(225,660,ls),
(196,660,o),
(176,644,o),
(169,615,cs),
(165,595,ls),
(158,566,o),
(170,550,o),
(199,550,cs),
(747,550,ls),
(776,550,o),
(796,566,o),
(803,595,cs),
(818,660,l)
);
},
{
closed = 1;
nodes = (
(290,110,ls),
(261,110,o),
(247,94,o),
(251,65,cs),
(253,45,ls),
(256,16,o),
(274,0,o),
(303,0,cs),
(385,0,ls),
(414,0,o),
(428,16,o),
(425,45,cs),
(423,65,ls),
(419,94,o),
(401,110,o),
(372,110,cs)
);
},
{
closed = 1;
nodes = (
(293,220,ls),
(264,220,o),
(249,204,o),
(250,175,cs),
(251,155,ls),
(252,126,o),
(269,110,o),
(298,110,cs),
(380,110,ls),
(409,110,o),
(424,126,o),
(423,155,cs),
(422,175,ls),
(421,204,o),
(404,220,o),
(375,220,cs)
);
},
{
closed = 1;
nodes = (
(247,330,ls),
(218,330,o),
(205,314,o),
(210,285,cs),
(213,265,ls),
(218,236,o),
(237,220,o),
(266,220,cs),
(348,220,ls),
(377,220,o),
(390,236,o),
(385,265,cs),
(382,285,ls),
(377,314,o),
(358,330,o),
(329,330,cs)
);
},
{
closed = 1;
nodes = (
(372,440,ls),
(343,440,o),
(324,424,o),
(320,395,cs),
(317,375,ls),
(312,346,o),
(326,330,o),
(355,330,cs),
(437,330,ls),
(466,330,o),
(484,346,o),
(489,375,cs),
(492,395,ls),
(496,424,o),
(483,440,o),
(454,440,cs)
);
},
{
closed = 1;
nodes = (
(-8,550,ls),
(-37,550,o),
(-52,544,o),
(-51,535,cs),
(-51,535,ls),
(-50,526,o),
(-33,521,o),
(-4,521,cs),
(184,521,l),
(189,485,ls),
(193,456,o),
(212,440,o),
(241,440,cs),
(323,440,ls),
(352,440,o),
(365,456,o),
(361,485,cs),
(356,521,l),
(544,521,ls),
(573,521,o),
(588,527,o),
(587,536,cs),
(587,536,ls),
(586,545,o),
(569,550,o),
(540,550,cs)
);
}
);
width = 687;
}
);
note = T;
unicode = 84;
},
{
glyphname = Tbar;
lastChange = "2024-07-19 12:08:54 +0000";
layers = (
{
layerId = "F5467FAD-1970-4982-B3D3-939C01050498";
shapes = (
{
closed = 1;
nodes = (
(524,410,l),
(105,410,l),
(105,371,l),
(524,371,l)
);
},
{
ref = T;
}
);
width = 629;
},
{
layerId = "6DD95C5A-998B-41AB-BDFB-84A73C209871";
shapes = (
{
closed = 1;
nodes = (
(592,398,l),
(80,398,l),
(80,280,l),
(592,280,l)
);
},
{
pos = (-2,0);
ref = T;
}
);
width = 676;
},
{
layerId = "1FDC7037-1F88-4969-8535-0F79C1EF19DB";
shapes = (
{
closed = 1;
nodes = (
(513,412,l),
(108,412,l),
(108,385,l),
(513,385,l)
);
},
{
ref = T;
}
);
width = 621;
},
{
guides = (
{
pos = (0,-330);
},
{
pos = (0,-220);
},
{
pos = (0,-110);
},
{
},
{
pos = (0,110);
},
{
pos = (0,220);
},
{
pos = (0,330);
},
{
pos = (0,440);
},
{
pos = (0,550);
},
{
pos = (0,660);
},
{
pos = (0,770);
}
);
layerId = "3ED9E848-BE83-4CAC-8EFF-D71BD2B4F667";
shapes = (
{
closed = 1;
nodes = (
(564,330,ls),
(593,330,o),
(609,342,o),
(609,362,cs),
(609,362,ls),
(609,383,o),
(593,395,o),
(564,395,cs),
(119,395,ls),
(90,395,o),
(74,383,o),
(74,362,cs),
(74,362,ls),
(74,341,o),
(90,330,o),
(119,330,cs)
);
},
{
pos = (-2,0);
ref = T;
},
{
closed = 1;
nodes = (
(119,330,ls),
(90,330,o),
(74,317,o),
(74,293,cs),
(74,293,ls),
(74,270,o),
(90,257,o),
(119,257,cs),
(564,257,ls),
(593,257,o),
(609,270,o),
(609,293,cs),
(609,293,ls),
(609,316,o),
(593,330,o),
(564,330,cs)
);
}
);
width = 687;
}
);
unicode = 358;
},
{
glyphname = U;
kernLeft = U;
kernRight = U;
lastChange = "2024-07-19 21:21:30 +0000";
layers = (
{
anchors = (
{
name = bottom;
pos = (293,0);
},
{
name = ogonek;
pos = (322,0);
},
{
name = top;
pos = (293,660);
}
);
layerId = "F5467FAD-1970-4982-B3D3-939C01050498";
shapes = (
{
closed = 1;
nodes = (
(434,-11,o),
(530,55,o),
(530,200,c),
(529,660,l),
(489,660,l),
(489,200,ls),
(489,71,o),
(404,14,o),
(293,14,cs),
(183,14,o),
(97,71,o),
(97,200,cs),
(97,660,l),
(58,660,l),
(57,200,ls),
(57,55,o),
(153,-11,o),
(293,-11,cs)
);
}
);
width = 587;
},
{
anchors = (
{
name = bottom;
pos = (293,0);
},
{
name = ogonek;
pos = (322,0);
},
{
name = top;
pos = (293,660);
}
);
layerId = "6DD95C5A-998B-41AB-BDFB-84A73C209871";
shapes = (
{
closed = 1;
nodes = (
(442,-11,o),
(555,65,o),
(555,215,c),
(554,660,l),
(410,660,l),
(410,215,ls),
(410,125,o),
(364,94,o),
(293,94,cs),
(223,94,o),
(176,125,o),
(176,215,cs),
(176,660,l),
(32,660,l),
(31,215,ls),
(31,65,o),
(144,-11,o),
(293,-11,cs)
);
}
);
width = 587;
},
{
anchors = (
{
name = bottom;
pos = (293,0);
},
{
name = ogonek;
pos = (322,0);
},
{
name = top;
pos = (293,660);
}
);
layerId = "1FDC7037-1F88-4969-8535-0F79C1EF19DB";
shapes = (
{
closed = 1;
nodes = (
(433,-11,o),
(526,53,o),
(526,197,c),
(525,660,l),
(502,660,l),
(502,197,ls),
(502,62,o),
(410,1,o),
(293,1,cs),
(176,1,o),
(85,62,o),
(85,197,cs),
(85,660,l),
(61,660,l),
(60,197,ls),
(60,53,o),
(154,-11,o),
(293,-11,cs)
);
}
);
width = 587;
},
{
anchors = (
{
name = bottom;
pos = (293,0);
},
{
name = ogonek;
pos = (322,0);
},
{
name = top;
pos = (293,660);
}
);
guides = (
{
pos = (0,-330);
},
{
pos = (0,-220);
},
{
pos = (0,-110);
},
{
},
{
pos = (0,110);
},
{
pos = (0,220);
},
{
pos = (0,330);
},
{
pos = (0,440);
},
{
pos = (0,550);
},
{
pos = (0,660);
},
{
pos = (0,770);
}
);
layerId = "3ED9E848-BE83-4CAC-8EFF-D71BD2B4F667";
shapes = (
{
closed = 1;
nodes = (
(293,0,ls),
(309,0,o),
(294,-11,o),
(294,-11,cs),
(294,-11,o),
(294,-11,o),
(294,-11,cs),
(310,-11,o),
(325,-10,o),
(340,-8,cs),
(332,-9,o),
(277,0,o),
(293,0,cs)
);
},
{
closed = 1;
nodes = (
(119,110,ls),
(81,110,o),
(64,81,o),
(93,55,cs),
(115,34,o),
(144,19,o),
(174,8,cs),
(194,1,o),
(209,0,o),
(229,0,cs),
(357,0,ls),
(377,0,o),
(392,1,o),
(412,8,cs),
(442,19,o),
(468,35,o),
(491,55,cs),
(520,81,o),
(501,110,o),
(463,110,cs)
);
},
{
closed = 1;
nodes = (
(733,660,l),
(607,660,ls),
(578,660,o),
(558,644,o),
(550,615,cs),
(545,595,ls),
(538,566,o),
(549,550,o),
(578,550,cs),
(660,550,ls),
(689,550,o),
(708,565,o),
(716,595,cs),
(721,615,ls),
(729,645,o),
(717,660,o),
(688,660,cs),
(368,660,l),
(242,660,ls),
(213,660,o),
(193,644,o),
(185,615,cs),
(180,595,ls),
(173,566,o),
(184,550,o),
(213,550,cs),
(294,550,ls),
(323,550,o),
(344,566,o),
(351,595,cs),
(368,660,l)
);
},
{
closed = 1;
nodes = (
(479,220,ls),
(451,220,o),
(436,219,o),
(436,219,cs),
(436,219,ls),
(419,139,o),
(379,114,o),
(317,114,cs),
(256,114,o),
(225,139,o),
(242,219,cs),
(242,220,ls),
(242,220,o),
(227,220,o),
(199,220,cs),
(118,220,ls),
(88,220,o),
(71,219,o),
(71,219,cs),
(71,219,ls),
(65,192,o),
(64,167,o),
(66,144,cs),
(69,120,o),
(85,110,o),
(110,110,cs),
(522,110,ls),
(547,110,o),
(568,120,o),
(581,144,cs),
(593,166,o),
(602,191,o),
(608,219,c),
(608,220,ls),
(608,220,o),
(591,220,o),
(561,220,cs)
);
},
{
closed = 1;
nodes = (
(51,330,ls),
(22,330,o),
(7,314,o),
(9,285,cs),
(10,265,ls),
(12,236,o),
(29,220,o),
(58,220,cs),
(139,220,ls),
(168,220,o),
(183,236,o),
(181,265,cs),
(180,285,ls),
(178,314,o),
(161,330,o),
(132,330,cs)
);
},
{
closed = 1;
nodes = (
(430,330,ls),
(401,330,o),
(386,314,o),
(386,285,cs),
(386,265,ls),
(387,236,o),
(403,220,o),
(432,220,cs),
(514,220,ls),
(543,220,o),
(559,236,o),
(558,265,cs),
(558,285,ls),
(558,314,o),
(541,330,o),
(512,330,cs)
);
},
{
closed = 1;
nodes = (
(165,440,ls),
(136,440,o),
(117,424,o),
(111,395,cs),
(106,375,ls),
(100,346,o),
(113,330,o),
(142,330,cs),
(223,330,ls),
(252,330,o),
(271,346,o),
(277,375,cs),
(282,395,ls),
(288,424,o),
(275,440,o),
(246,440,cs)
);
},
{
closed = 1;
nodes = (
(534,440,ls),
(505,440,o),
(485,424,o),
(479,395,cs),
(474,375,ls),
(468,346,o),
(480,330,o),
(509,330,cs),
(591,330,ls),
(620,330,o),
(640,346,o),
(646,375,cs),
(651,395,ls),
(657,424,o),
(645,440,o),
(616,440,cs)
);
},
{
closed = 1;
nodes = (
(67,550,ls),
(38,550,o),
(22,534,o),
(22,505,cs),
(23,485,ls),
(23,456,o),
(39,440,o),
(68,440,cs),
(149,440,ls),
(178,440,o),
(194,456,o),
(194,485,cs),
(193,505,ls),
(193,534,o),
(177,550,o),
(148,550,cs)
);
},
{
closed = 1;
nodes = (
(494,550,ls),
(465,550,o),
(448,534,o),
(444,505,cs),
(442,485,ls),
(439,456,o),
(453,440,o),
(482,440,cs),
(564,440,ls),
(593,440,o),
(611,456,o),
(614,485,cs),
(616,505,ls),
(620,534,o),
(605,550,o),
(576,550,cs)
);
}
);
width = 587;
}
);
note = U;
unicode = 85;
},
{
glyphname = V;
kernLeft = V;
kernRight = V;
lastChange = "2024-07-19 21:21:30 +0000";
layers = (
{
layerId = "F5467FAD-1970-4982-B3D3-939C01050498";
shapes = (
{
closed = 1;
nodes = (
(303,0,l),
(529,660,l),
(493,660,l),
(274,24,l),
(291,24,l),
(74,660,l),
(38,660,l),
(263,0,l)
);
}
);
width = 567;
},
{
layerId = "6DD95C5A-998B-41AB-BDFB-84A73C209871";
shapes = (
{
closed = 1;
nodes = (
(372,0,l),
(599,660,l),
(455,660,l),
(283,158,l),
(310,158,l),
(139,660,l),
(-6,660,l),
(220,0,l)
);
}
);
width = 593;
},
{
layerId = "1FDC7037-1F88-4969-8535-0F79C1EF19DB";
shapes = (
{
closed = 1;
nodes = (
(291,0,l),
(518,660,l),
(500,660,l),
(273,2,l),
(289,2,l),
(63,660,l),
(44,660,l),
(270,0,l)
);
}
);
width = 563;
},
{
guides = (
{
pos = (0,-330);
},
{
pos = (0,-220);
},
{
pos = (0,-110);
},
{
},
{
pos = (0,110);
},
{
pos = (0,220);
},
{
pos = (0,330);
},
{
pos = (0,440);
},
{
pos = (0,550);
},
{
pos = (0,660);
},
{
pos = (0,770);
}
);
layerId = "3ED9E848-BE83-4CAC-8EFF-D71BD2B4F667";
shapes = (
{
closed = 1;
nodes = (
(224,110,ls),
(191,110,o),
(177,91,o),
(189,59,cs),
(196,37,ls),
(205,12,o),
(222,0,o),
(248,0,cs),
(350,0,ls),
(376,0,o),
(393,12,o),
(400,37,cs),
(408,59,ls),
(418,91,o),
(404,110,o),
(371,110,cs)
);
},
{
closed = 1;
nodes = (
(114,660,ls),
(81,660,o),
(64,640,o),
(71,609,cs),
(76,586,ls),
(81,562,o),
(98,550,o),
(124,550,cs),
(202,550,ls),
(235,550,o),
(251,569,o),
(244,601,cs),
(231,660,l)
);
},
{
closed = 1;
nodes = (
(666,550,ls),
(692,550,o),
(712,562,o),
(726,587,cs),
(739,609,ls),
(756,640,o),
(746,660,o),
(713,660,cs),
(635,660,ls),
(609,660,o),
(590,648,o),
(576,623,cs),
(563,601,ls),
(546,570,o),
(555,550,o),
(588,550,cs)
);
},
{
closed = 1;
nodes = (
(390,330,ls),
(364,330,o),
(345,318,o),
(336,294,cs),
(307,220,l),
(200,220,ls),
(167,220,o),
(152,200,o),
(160,169,cs),
(167,146,ls),
(174,122,o),
(191,110,o),
(217,110,cs),
(394,110,ls),
(420,110,o),
(438,122,o),
(447,147,cs),
(456,169,ls),
(469,201,o),
(456,220,o),
(423,220,cs),
(317,220,l),
(296,293,ls),
(289,318,o),
(273,330,o),
(247,330,cs),
(169,330,ls),
(136,330,o),
(121,311,o),
(130,279,cs),
(136,257,ls),
(143,232,o),
(159,220,o),
(185,220,cs),
(307,220,l),
(307,220,ls),
(300,203,o),
(301,191,o),
(310,191,cs),
(310,191,ls),
(319,191,o),
(322,203,o),
(317,220,cs),
(317,220,l),
(438,220,ls),
(464,220,o),
(482,232,o),
(491,257,cs),
(500,279,ls),
(513,311,o),
(500,330,o),
(467,330,cs)
);
},
{
closed = 1;
nodes = (
(209,440,ls),
(176,440,o),
(158,420,o),
(161,389,cs),
(164,366,ls),
(167,342,o),
(182,330,o),
(208,330,cs),
(286,330,ls),
(319,330,o),
(337,350,o),
(334,381,cs),
(331,404,ls),
(328,428,o),
(313,440,o),
(287,440,cs)
);
},
{
closed = 1;
nodes = (
(418,440,ls),
(392,440,o),
(375,428,o),
(366,403,cs),
(358,381,ls),
(347,350,o),
(361,330,o),
(394,330,cs),
(471,330,ls),
(497,330,o),
(514,342,o),
(523,367,cs),
(531,389,ls),
(543,421,o),
(529,440,o),
(496,440,cs)
);
},
{
closed = 1;
nodes = (
(133,550,ls),
(100,550,o),
(84,531,o),
(92,499,cs),
(96,477,ls),
(102,452,o),
(118,440,o),
(144,440,cs),
(222,440,ls),
(255,440,o),
(271,459,o),
(263,491,cs),
(258,513,ls),
(253,538,o),
(237,550,o),
(211,550,cs)
);
},
{
closed = 1;
nodes = (
(552,550,ls),
(526,550,o),
(507,538,o),
(494,513,cs),
(482,491,ls),
(465,459,o),
(475,440,o),
(508,440,cs),
(586,440,ls),
(612,440,o),
(632,452,o),
(644,477,cs),
(657,499,ls),
(674,531,o),
(663,550,o),
(630,550,cs)
);
}
);
width = 600;
}
);
note = V;
unicode = 86;
},
{
glyphname = W;
kernLeft = W;
kernRight = W;
lastChange = "2024-07-19 21:21:30 +0000";
layers = (
{
anchors = (
{
name = bottom;
pos = (431,0);
},
{
name = top;
pos = (436,660);
}
);
layerId = "F5467FAD-1970-4982-B3D3-939C01050498";
shapes = (
{
closed = 1;
nodes = (
(265,0,l),
(454,660,l),
(418,660,l),
(242,44,l),
(248,44,l),
(74,660,l),
(38,660,l),
(225,0,l)
);
},
{
closed = 1;
nodes = (
(834,660,l),
(798,660,l),
(623,44,l),
(629,44,l),
(454,660,l),
(418,660,l),
(606,0,l),
(646,0,l)
);
}
);
width = 871;
},
{
anchors = (
{
name = bottom;
pos = (419,0);
},
{
name = top;
pos = (419,660);
}
);
layerId = "6DD95C5A-998B-41AB-BDFB-84A73C209871";
shapes = (
{
closed = 1;
nodes = (
(335,0,l),
(491,651,l),
(352,651,l),
(251,187,l),
(270,187,l),
(183,660,l),
(38,660,l),
(185,0,l)
);
},
{
closed = 1;
nodes = (
(805,660,l),
(660,660,l),
(573,187,l),
(592,187,l),
(491,651,l),
(352,651,l),
(508,0,l),
(658,0,l)
);
}
);
width = 843;
},
{
anchors = (
{
name = bottom;
pos = (433,0);
},
{
name = top;
pos = (438,660);
}
);
layerId = "1FDC7037-1F88-4969-8535-0F79C1EF19DB";
shapes = (
{
closed = 1;
nodes = (
(254,0,l),
(448,662,l),
(428,662,l),
(241,22,l),
(244,22,l),
(56,660,l),
(38,660,l),
(232,0,l)
);
},
{
closed = 1;
nodes = (
(838,660,l),
(819,660,l),
(631,22,l),
(635,22,l),
(448,662,l),
(428,662,l),
(622,0,l),
(644,0,l)
);
}
);
width = 876;
},
{
anchors = (
{
name = bottom;
pos = (416,0);
},
{
name = top;
pos = (415,660);
}
);
guides = (
{
pos = (0,-330);
},
{
pos = (0,-220);
},
{
pos = (0,-110);
},
{
},
{
pos = (0,110);
},
{
pos = (0,220);
},
{
pos = (0,330);
},
{
pos = (0,440);
},
{
pos = (0,550);
},
{
pos = (0,660);
},
{
pos = (0,770);
}
);
layerId = "3ED9E848-BE83-4CAC-8EFF-D71BD2B4F667";
shapes = (
{
closed = 1;
nodes = (
(517,550,ls),
(543,550,o),
(558,569,o),
(554,599,cs),
(552,609,ls),
(549,636,o),
(533,649,o),
(506,649,cs),
(433,649,ls),
(402,649,o),
(386,630,o),
(391,599,cs),
(398,550,l),
(397,550,ls),
(370,550,o),
(352,537,o),
(345,510,cs),
(340,489,ls),
(332,459,o),
(345,440,o),
(376,440,cs),
(415,440,l),
(433,330,l),
(339,330,ls),
(312,330,o),
(294,317,o),
(287,290,cs),
(282,271,ls),
(274,241,o),
(273,222,o),
(280,222,cs),
(280,222,ls),
(287,222,o),
(289,240,o),
(287,270,cs),
(286,289,ls),
(284,316,o),
(268,330,o),
(241,330,cs),
(180,330,ls),
(149,330,o),
(132,311,o),
(136,281,cs),
(139,260,ls),
(142,234,o),
(158,220,o),
(185,220,cs),
(378,220,ls),
(405,220,o),
(422,232,o),
(429,259,cs),
(451,330,l),
(536,330,ls),
(567,330,o),
(584,349,o),
(580,379,cs),
(578,400,ls),
(574,427,o),
(558,440,o),
(531,440,cs),
(484,440,l),
(517,550,l)
);
},
{
closed = 1;
nodes = (
(213,110,ls),
(182,110,o),
(164,91,o),
(168,61,cs),
(170,40,ls),
(173,14,o),
(188,0,o),
(215,0,cs),
(312,0,ls),
(339,0,o),
(356,12,o),
(365,39,cs),
(372,60,ls),
(382,91,o),
(368,110,o),
(337,110,cs)
);
},
{
closed = 1;
nodes = (
(526,110,ls),
(495,110,o),
(476,91,o),
(479,60,cs),
(481,39,ls),
(483,12,o),
(497,0,o),
(524,0,cs),
(620,0,ls),
(647,0,o),
(665,14,o),
(675,40,cs),
(683,61,ls),
(693,92,o),
(681,110,o),
(650,110,cs)
);
},
{
closed = 1;
nodes = (
(146,220,ls),
(115,220,o),
(102,201,o),
(114,171,cs),
(121,150,ls),
(131,124,o),
(149,110,o),
(176,110,cs),
(321,110,ls),
(348,110,o),
(362,122,o),
(364,149,cs),
(366,170,ls),
(368,201,o),
(349,220,o),
(318,220,cs)
);
},
{
closed = 1;
nodes = (
(464,220,ls),
(433,220,o),
(419,201,o),
(429,170,cs),
(436,149,ls),
(445,122,o),
(462,110,o),
(489,110,cs),
(633,110,ls),
(660,110,o),
(674,124,o),
(678,150,cs),
(681,171,ls),
(684,202,o),
(667,220,o),
(636,220,cs)
);
},
{
closed = 1;
nodes = (
(949,660,l),
(818,660,ls),
(791,660,o),
(771,645,o),
(760,618,cs),
(753,598,ls),
(742,567,o),
(754,550,o),
(784,550,cs),
(860,550,ls),
(887,550,o),
(906,564,o),
(918,590,cs),
(928,611,ls),
(941,642,o),
(930,660,o),
(899,660,cs),
(360,660,l),
(239,660,ls),
(208,660,o),
(188,641,o),
(188,611,cs),
(187,590,ls),
(187,564,o),
(200,550,o),
(227,550,cs),
(303,550,ls),
(334,550,o),
(354,568,o),
(356,598,cs),
(360,660,l)
);
},
{
closed = 1;
nodes = (
(95,440,ls),
(64,440,o),
(50,421,o),
(60,391,cs),
(65,370,ls),
(74,344,o),
(91,330,o),
(118,330,cs),
(181,330,ls),
(211,330,o),
(225,348,o),
(219,378,cs),
(214,398,ls),
(208,425,o),
(189,440,o),
(162,440,cs)
);
},
{
closed = 1;
nodes = (
(616,440,ls),
(589,440,o),
(573,425,o),
(570,398,cs),
(568,378,ls),
(565,347,o),
(582,330,o),
(612,330,cs),
(675,330,ls),
(702,330,o),
(717,344,o),
(722,370,cs),
(726,391,ls),
(731,422,o),
(715,440,o),
(684,440,cs)
);
},
{
closed = 1;
nodes = (
(184,550,ls),
(153,550,o),
(136,531,o),
(138,501,cs),
(139,480,ls),
(141,454,o),
(156,440,o),
(183,440,cs),
(253,440,ls),
(283,440,o),
(301,458,o),
(301,488,cs),
(301,508,ls),
(300,535,o),
(285,550,o),
(258,550,cs)
);
},
{
closed = 1;
nodes = (
(587,550,l),
(607,599,ls),
(620,630,o),
(609,649,o),
(578,649,cs),
(505,649,ls),
(478,649,o),
(458,635,o),
(448,609,cs),
(444,599,ls),
(432,569,o),
(442,550,o),
(468,550,cs),
(468,550,l),
(471,440,l),
(423,440,ls),
(396,440,o),
(376,427,o),
(366,400,cs),
(358,379,ls),
(346,349,o),
(358,330,o),
(389,330,cs),
(474,330,l),
(476,259,ls),
(477,232,o),
(490,220,o),
(517,220,cs),
(709,220,ls),
(736,220,o),
(755,234,o),
(766,260,cs),
(776,281,ls),
(788,312,o),
(776,330,o),
(745,330,cs),
(684,330,ls),
(657,330,o),
(637,316,o),
(628,289,cs),
(621,270,ls),
(611,240,o),
(609,222,o),
(616,222,cs),
(616,222,ls),
(623,222,o),
(628,241,o),
(628,271,cs),
(627,290,ls),
(628,317,o),
(613,330,o),
(586,330,cs),
(492,330,l),
(540,440,l),
(578,440,ls),
(609,440,o),
(629,459,o),
(629,489,cs),
(629,510,ls),
(629,537,o),
(622,550,o),
(608,550,cs)
);
},
{
closed = 1;
nodes = (
(635,550,ls),
(608,550,o),
(590,537,o),
(587,509,cs),
(585,488,ls),
(581,458,o),
(597,440,o),
(628,440,cs),
(698,440,ls),
(725,440,o),
(741,454,o),
(746,480,cs),
(751,501,ls),
(756,532,o),
(740,550,o),
(709,550,cs)
);
}
);
width = 836;
}
);
note = W;
unicode = 87;
},
{
glyphname = X;
kernLeft = X;
kernRight = X;
lastChange = "2024-07-19 21:21:30 +0000";
layers = (
{
layerId = "F5467FAD-1970-4982-B3D3-939C01050498";
shapes = (
{
closed = 1;
nodes = (
(332,340,l),
(584,660,l),
(538,660,l),
(311,373,l)
);
},
{
closed = 1;
nodes = (
(296,364,l),
(9,0,l),
(56,0,l),
(317,330,l)
);
},
{
closed = 1;
nodes = (
(99,660,l),
(53,660,l),
(559,0,l),
(605,0,l)
);
}
);
width = 615;
},
{
layerId = "6DD95C5A-998B-41AB-BDFB-84A73C209871";
shapes = (
{
closed = 1;
nodes = (
(460,336,l),
(718,660,l),
(546,660,l),
(376,445,l)
);
},
{
closed = 1;
nodes = (
(298,366,l),
(9,0,l),
(181,0,l),
(381,255,l)
);
},
{
closed = 1;
nodes = (
(223,660,l),
(51,660,l),
(558,0,l),
(729,0,l)
);
}
);
width = 738;
},
{
layerId = "1FDC7037-1F88-4969-8535-0F79C1EF19DB";
shapes = (
{
closed = 1;
nodes = (
(311,341,l),
(562,660,l),
(537,660,l),
(301,362,l)
);
},
{
closed = 1;
nodes = (
(296,364,l),
(9,0,l),
(36,0,l),
(306,342,l)
);
},
{
closed = 1;
nodes = (
(79,660,l),
(53,660,l),
(559,0,l),
(586,0,l)
);
}
);
width = 595;
},
{
guides = (
{
pos = (0,-330);
},
{
pos = (0,-220);
},
{
pos = (0,-110);
},
{
},
{
pos = (0,110);
},
{
pos = (0,220);
},
{
pos = (0,330);
},
{
pos = (0,440);
},
{
pos = (0,550);
},
{
pos = (0,660);
},
{
pos = (0,770);
}
);
layerId = "3ED9E848-BE83-4CAC-8EFF-D71BD2B4F667";
shapes = (
{
closed = 1;
nodes = (
(858,660,l),
(689,660,ls),
(666,660,o),
(646,651,o),
(630,633,cs),
(603,605,ls),
(575,575,o),
(582,550,o),
(620,550,cs),
(718,550,ls),
(741,550,o),
(759,558,o),
(777,576,cs),
(805,605,ls),
(834,635,o),
(825,660,o),
(787,660,cs),
(360,660,l),
(227,660,ls),
(189,660,o),
(173,635,o),
(191,605,cs),
(208,577,ls),
(219,558,o),
(235,550,o),
(259,550,cs),
(358,550,ls),
(396,550,o),
(412,575,o),
(394,605,cs),
(360,660,l)
);
},
{
closed = 1;
nodes = (
(566,110,ls),
(528,110,o),
(510,85,o),
(527,55,cs),
(558,0,l),
(9,0,l),
(178,0,ls),
(201,0,o),
(221,9,o),
(239,27,cs),
(267,55,ls),
(296,85,o),
(290,110,o),
(252,110,cs),
(154,110,ls),
(131,110,o),
(111,101,o),
(93,83,cs),
(65,55,ls),
(35,25,o),
(41,0,o),
(79,0,cs),
(558,0,l),
(690,0,ls),
(728,0,o),
(745,24,o),
(729,55,cs),
(714,83,ls),
(704,102,o),
(689,110,o),
(665,110,cs)
);
},
{
closed = 1;
nodes = (
(267,220,ls),
(244,220,o),
(224,211,o),
(206,193,cs),
(178,165,ls),
(148,135,o),
(153,110,o),
(191,110,cs),
(289,110,ls),
(312,110,o),
(332,119,o),
(350,137,cs),
(379,165,ls),
(409,195,o),
(402,220,o),
(364,220,cs)
);
},
{
closed = 1;
nodes = (
(513,220,ls),
(475,220,o),
(457,196,o),
(472,165,cs),
(486,137,ls),
(495,118,o),
(510,110,o),
(534,110,cs),
(633,110,ls),
(671,110,o),
(689,134,o),
(674,165,cs),
(660,193,ls),
(651,212,o),
(636,220,o),
(612,220,cs)
);
},
{
closed = 1;
nodes = (
(310,330,l),
(310,330,ls),
(293,352,o),
(275,359,o),
(268,348,cs),
(268,348,ls),
(261,338,o),
(271,330,o),
(290,330,cs),
(290,330,l),
(357,247,ls),
(371,228,o),
(389,220,o),
(413,220,cs),
(512,220,ls),
(550,220,o),
(561,244,o),
(536,275,cs),
(514,303,ls),
(499,322,o),
(482,330,o),
(458,330,cs)
);
},
{
closed = 1;
nodes = (
(168,550,ls),
(130,550,o),
(120,526,o),
(145,495,cs),
(168,467,ls),
(183,448,o),
(201,440,o),
(225,440,cs),
(381,440,l),
(435,376,ls),
(456,351,o),
(480,350,o),
(498,375,cs),
(507,388,ls),
(528,416,o),
(513,440,o),
(475,440,cs),
(393,440,l),
(324,523,ls),
(309,542,o),
(291,550,o),
(267,550,cs)
);
},
{
closed = 1;
nodes = (
(543,550,ls),
(520,550,o),
(502,542,o),
(485,524,cs),
(460,495,ls),
(441,473,o),
(438,456,o),
(448,440,cs),
(448,440,l),
(327,440,ls),
(289,440,o),
(275,415,o),
(295,385,cs),
(334,330,l),
(333,330,ls),
(310,330,o),
(291,321,o),
(275,303,cs),
(251,275,ls),
(225,245,o),
(234,220,o),
(272,220,cs),
(370,220,ls),
(393,220,o),
(405,223,o),
(411,228,cs),
(411,228,ls),
(415,233,o),
(410,247,o),
(396,268,cs),
(354,330,l),
(467,330,ls),
(505,330,o),
(519,355,o),
(498,385,cs),
(460,440,l),
(579,440,ls),
(602,440,o),
(620,448,o),
(636,466,cs),
(662,495,ls),
(688,525,o),
(678,550,o),
(640,550,cs)
);
}
);
width = 769;
}
);
note = X;
unicode = 88;
},
{
glyphname = Y;
kernLeft = Y;
kernRight = Y;
lastChange = "2024-07-19 21:34:36 +0000";
layers = (
{
anchors = (
{
name = bottom;
pos = (271,0);
},
{
name = top;
pos = (271,660);
}
);
layerId = "F5467FAD-1970-4982-B3D3-939C01050498";
shapes = (
{
closed = 1;
nodes = (
(290,0,l),
(290,292,l),
(531,660,l),
(488,660,l),
(270,318,l),
(53,660,l),
(9,660,l),
(250,292,l),
(250,0,l)
);
}
);
width = 540;
},
{
anchors = (
{
name = bottom;
pos = (332,0);
},
{
name = top;
pos = (332,660);
}
);
layerId = "6DD95C5A-998B-41AB-BDFB-84A73C209871";
shapes = (
{
closed = 1;
nodes = (
(404,0,l),
(404,290,l),
(644,660,l),
(495,660,l),
(331,397,l),
(168,660,l),
(19,660,l),
(258,290,l),
(258,0,l)
);
}
);
width = 663;
},
{
anchors = (
{
name = bottom;
pos = (261,0);
},
{
name = top;
pos = (261,660);
}
);
layerId = "1FDC7037-1F88-4969-8535-0F79C1EF19DB";
shapes = (
{
closed = 1;
nodes = (
(272,0,l),
(272,292,l),
(513,660,l),
(487,660,l),
(260,306,l),
(34,660,l),
(8,660,l),
(249,292,l),
(249,0,l)
);
}
);
width = 521;
},
{
anchors = (
{
name = bottom;
pos = (347,0);
},
{
name = top;
pos = (347,660);
}
);
guides = (
{
pos = (0,-330);
},
{
pos = (0,-220);
},
{
pos = (0,-110);
},
{
},
{
pos = (0,110);
},
{
pos = (0,220);
},
{
pos = (0,330);
},
{
pos = (0,440);
},
{
pos = (0,550);
},
{
pos = (0,660);
},
{
pos = (0,770);
}
);
layerId = "3ED9E848-BE83-4CAC-8EFF-D71BD2B4F667";
shapes = (
{
closed = 1;
nodes = (
(295,110,ls),
(266,110,o),
(251,94,o),
(254,65,cs),
(256,45,ls),
(259,16,o),
(276,0,o),
(305,0,cs),
(387,0,ls),
(416,0,o),
(431,16,o),
(428,45,cs),
(426,65,ls),
(423,94,o),
(406,110,o),
(377,110,cs)
);
},
{
closed = 1;
nodes = (
(359,220,ls),
(330,220,o),
(310,204,o),
(303,175,cs),
(298,155,ls),
(291,126,o),
(303,110,o),
(332,110,cs),
(414,110,ls),
(443,110,o),
(463,126,o),
(470,155,cs),
(475,175,ls),
(482,204,o),
(470,220,o),
(441,220,cs)
);
},
{
closed = 1;
nodes = (
(361,330,ls),
(325,330,o),
(305,313,o),
(315,289,cs),
(315,289,l),
(310,265,ls),
(305,236,o),
(318,220,o),
(347,220,cs),
(429,220,ls),
(458,220,o),
(477,236,o),
(482,265,cs),
(487,289,l),
(487,289,ls),
(507,313,o),
(493,330,o),
(457,330,cs)
);
},
{
closed = 1;
nodes = (
(814,660,l),
(675,660,ls),
(651,660,o),
(633,651,o),
(616,630,cs),
(594,604,ls),
(568,573,o),
(576,550,o),
(612,550,cs),
(684,550,ls),
(708,550,o),
(728,560,o),
(745,580,cs),
(768,606,ls),
(794,636,o),
(785,660,o),
(749,660,cs),
(339,660,l),
(230,660,ls),
(194,660,o),
(175,636,o),
(189,606,cs),
(200,579,ls),
(208,559,o),
(223,550,o),
(247,550,cs),
(319,550,ls),
(355,550,o),
(373,573,o),
(361,604,cs),
(339,660,l)
);
},
{
closed = 1;
nodes = (
(386,440,ls),
(362,440,o),
(347,433,o),
(338,417,cs),
(338,417,l),
(338,417,ls),
(327,433,o),
(312,440,o),
(288,440,cs),
(219,440,ls),
(183,440,o),
(170,416,o),
(190,386,cs),
(208,359,ls),
(221,339,o),
(238,330,o),
(262,330,cs),
(416,330,ls),
(440,330,o),
(457,340,o),
(470,360,cs),
(486,386,ls),
(506,416,o),
(491,440,o),
(455,440,cs)
);
},
{
closed = 1;
nodes = (
(144,550,ls),
(108,550,o),
(96,527,o),
(116,496,cs),
(133,470,ls),
(146,450,o),
(163,440,o),
(187,440,cs),
(257,440,ls),
(293,440,o),
(307,463,o),
(287,494,cs),
(270,520,ls),
(257,541,o),
(240,550,o),
(216,550,cs)
);
},
{
closed = 1;
nodes = (
(450,550,ls),
(426,550,o),
(410,541,o),
(401,520,cs),
(389,494,ls),
(376,463,o),
(393,440,o),
(429,440,cs),
(499,440,ls),
(523,440,o),
(538,450,o),
(548,470,cs),
(560,496,ls),
(575,526,o),
(557,550,o),
(521,550,cs)
);
}
);
width = 693;
}
);
note = Y;
unicode = 89;
},
{
glyphname = Z;
kernLeft = Z;
kernRight = Z;
lastChange = "2024-07-19 21:21:30 +0000";
layers = (
{
anchors = (
{
name = bottom;
pos = (268,0);
},
{
name = top;
pos = (268,660);
}
);
layerId = "F5467FAD-1970-4982-B3D3-939C01050498";
shapes = (
{
closed = 1;
nodes = (
(502,0,l),
(502,28,l),
(52,28,l),
(525,632,l),
(525,660,l),
(43,660,l),
(43,632,l),
(483,632,l),
(9,28,l),
(9,0,l)
);
}
);
width = 535;
},
{
anchors = (
{
name = bottom;
pos = (278,0);
},
{
name = top;
pos = (278,660);
}
);
layerId = "6DD95C5A-998B-41AB-BDFB-84A73C209871";
shapes = (
{
closed = 1;
nodes = (
(542,0,l),
(542,118,l),
(190,118,l),
(546,543,l),
(546,660,l),
(30,660,l),
(30,543,l),
(364,543,l),
(9,118,l),
(9,0,l)
);
}
);
width = 555;
},
{
anchors = (
{
name = bottom;
pos = (266,0);
},
{
name = top;
pos = (266,660);
}
);
layerId = "1FDC7037-1F88-4969-8535-0F79C1EF19DB";
shapes = (
{
closed = 1;
nodes = (
(495,0,l),
(495,14,l),
(29,14,l),
(521,646,l),
(521,660,l),
(45,660,l),
(45,646,l),
(502,646,l),
(9,14,l),
(9,0,l)
);
}
);
width = 531;
},
{
anchors = (
{
name = bottom;
pos = (281,0);
},
{
name = top;
pos = (281,660);
}
);
guides = (
{
pos = (0,-330);
},
{
pos = (0,-220);
},
{
pos = (0,-110);
},
{
},
{
pos = (0,110);
},
{
pos = (0,220);
},
{
pos = (0,330);
},
{
pos = (0,440);
},
{
pos = (0,550);
},
{
pos = (0,660);
},
{
pos = (0,770);
}
);
layerId = "3ED9E848-BE83-4CAC-8EFF-D71BD2B4F667";
shapes = (
{
closed = 1;
nodes = (
(188,660,ls),
(159,660,o),
(141,644,o),
(135,615,cs),
(132,595,ls),
(127,566,o),
(140,550,o),
(169,550,cs),
(603,550,ls),
(632,550,o),
(651,566,o),
(656,595,cs),
(667,660,l)
);
},
{
closed = 1;
nodes = (
(78,110,ls),
(49,110,o),
(30,94,o),
(23,65,cs),
(19,45,ls),
(13,16,o),
(25,0,o),
(54,0,cs),
(508,0,ls),
(537,0,o),
(557,16,o),
(563,45,cs),
(567,65,ls),
(574,94,o),
(561,110,o),
(532,110,cs)
);
},
{
closed = 1;
nodes = (
(143,220,ls),
(120,220,o),
(101,212,o),
(83,194,cs),
(54,164,ls),
(37,147,o),
(29,135,o),
(27,125,cs),
(27,125,ls),
(26,116,o),
(41,110,o),
(70,110,cs),
(524,110,ls),
(553,110,o),
(570,116,o),
(571,125,cs),
(571,125,ls),
(572,134,o),
(557,140,o),
(528,140,cs),
(244,140,l),
(269,165,ls),
(298,195,o),
(291,220,o),
(252,220,cs)
);
},
{
closed = 1;
nodes = (
(288,330,ls),
(265,330,o),
(246,323,o),
(226,305,cs),
(194,275,ls),
(161,246,o),
(167,220,o),
(206,220,cs),
(316,220,ls),
(339,220,o),
(358,227,o),
(377,245,cs),
(410,275,ls),
(442,304,o),
(437,330,o),
(398,330,cs)
);
},
{
closed = 1;
nodes = (
(240,440,ls),
(217,440,o),
(201,433,o),
(188,415,cs),
(167,385,ls),
(146,356,o),
(161,330,o),
(200,330,cs),
(310,330,ls),
(333,330,o),
(349,337,o),
(362,355,cs),
(383,385,ls),
(404,414,o),
(389,440,o),
(350,440,cs)
);
},
{
closed = 1;
nodes = (
(187,550,ls),
(158,550,o),
(141,544,o),
(139,535,cs),
(139,535,ls),
(137,526,o),
(152,521,o),
(181,521,cs),
(444,521,l),
(416,495,ls),
(385,466,o),
(391,440,o),
(430,440,cs),
(540,440,ls),
(563,440,o),
(581,447,o),
(600,465,cs),
(634,497,ls),
(652,514,o),
(661,526,o),
(663,536,cs),
(663,536,ls),
(665,545,o),
(650,550,o),
(621,550,cs)
);
}
);
width = 561;
}
);
note = Z;
unicode = 90;
},
{
glyphname = a;
kernLeft = a;
kernRight = a;
lastChange = "2024-07-19 21:21:30 +0000";
layers = (
{
anchors = (
{
name = bottom;
pos = (245,0);
},
{
name = ogonek;
pos = (399,0);
},
{
name = top;
pos = (245,472);
}
);
layerId = "F5467FAD-1970-4982-B3D3-939C01050498";
shapes = (
{
closed = 1;
nodes = (
(305,-13,o),
(372,46,o),
(399,121,c),
(399,0,l),
(440,0,l),
(440,292,ls),
(440,376,o),
(423,482,o),
(250,482,cs),
(161,482,o),
(88,438,o),
(68,387,cs),
(66,381,o),
(64,376,o),
(63,371,c),
(124,370,l),
(124,373,o),
(125,377,o),
(127,381,cs),
(141,421,o),
(186,455,o),
(259,455,cs),
(350,455,o),
(394,407,o),
(394,346,cs),
(394,283,o),
(318,259,o),
(231,250,cs),
(72,232,o),
(28,187,o),
(28,116,cs),
(28,40,o),
(99,-13,o),
(211,-13,cs)
);
},
{
closed = 1;
nodes = (
(103,11,o),
(75,74,o),
(75,122,cs),
(75,183,o),
(120,210,o),
(228,224,cs),
(316,236,o),
(369,256,o),
(399,292,c),
(399,197,ls),
(399,110,o),
(331,11,o),
(211,11,cs)
);
}
);
width = 488;
},
{
anchors = (
{
name = bottom;
pos = (276,0);
},
{
name = ogonek;
pos = (344,0);
},
{
name = top;
pos = (276,472);
}
);
layerId = "6DD95C5A-998B-41AB-BDFB-84A73C209871";
shapes = (
{
closed = 1;
nodes = (
(276,-12,o),
(319,15,o),
(344,54,c),
(344,0,l),
(488,0,l),
(488,284,ls),
(488,357,o),
(471,480,o),
(275,480,cs),
(161,480,o),
(65,416,o),
(65,339,cs),
(65,329,o),
(67,320,o),
(70,310,c),
(209,310,l),
(208,311,o),
(208,314,o),
(208,318,cs),
(208,338,o),
(217,384,o),
(284,384,cs),
(320,384,o),
(344,369,o),
(344,337,cs),
(344,300,o),
(301,286,o),
(239,280,cs),
(84,265,o),
(28,212,o),
(28,135,cs),
(28,53,o),
(85,-12,o),
(207,-12,cs)
);
},
{
closed = 1;
nodes = (
(192,76,o),
(171,109,o),
(171,140,cs),
(171,177,o),
(207,195,o),
(251,201,cs),
(285,205,o),
(318,213,o),
(347,225,c),
(347,216,ls),
(347,113,o),
(293,76,o),
(239,76,cs)
);
}
);
width = 536;
},
{
anchors = (
{
name = bottom;
pos = (240,0);
},
{
name = ogonek;
pos = (407,0);
},
{
name = top;
pos = (240,472);
}
);
layerId = "1FDC7037-1F88-4969-8535-0F79C1EF19DB";
shapes = (
{
closed = 1;
nodes = (
(309,-13,o),
(382,51,o),
(407,131,c),
(407,0,l),
(433,0,l),
(433,293,ls),
(433,379,o),
(416,482,o),
(246,482,cs),
(161,482,o),
(91,442,o),
(68,394,cs),
(66,389,o),
(64,386,o),
(62,380,c),
(109,379,l),
(111,384,o),
(112,388,o),
(114,391,cs),
(131,434,o),
(181,467,o),
(256,467,cs),
(355,467,o),
(402,414,o),
(402,348,cs),
(402,280,o),
(321,255,o),
(230,245,cs),
(70,226,o),
(28,183,o),
(28,113,cs),
(28,38,o),
(101,-13,o),
(212,-13,cs)
);
},
{
closed = 1;
nodes = (
(89,1,o),
(60,68,o),
(60,119,cs),
(60,184,o),
(106,213,o),
(224,228,cs),
(321,240,o),
(377,262,o),
(407,303,c),
(407,194,ls),
(407,110,o),
(337,1,o),
(207,1,cs)
);
}
);
width = 480;
},
{
anchors = (
{
name = bottom;
pos = (284,0);
},
{
name = ogonek;
pos = (331,0);
},
{
name = top;
pos = (284,472);
}
);
guides = (
{
pos = (0,-330);
},
{
pos = (0,-220);
},
{
pos = (0,-110);
},
{
},
{
pos = (0,110);
},
{
pos = (0,220);
},
{
pos = (0,330);
},
{
pos = (0,440);
},
{
pos = (0,550);
},
{
pos = (0,660);
},
{
pos = (0,770);
},
{
pos = (0,-330);
},
{
pos = (0,-220);
},
{
pos = (0,-110);
},
{
},
{
pos = (0,110);
},
{
pos = (0,220);
},
{
pos = (0,330);
},
{
pos = (0,440);
},
{
pos = (0,550);
},
{
pos = (0,660);
},
{
pos = (0,770);
}
);
layerId = "3ED9E848-BE83-4CAC-8EFF-D71BD2B4F667";
shapes = (
{
closed = 1;
nodes = (
(333,440,ls),
(368,440,o),
(334,480,o),
(334,480,cs),
(334,480,o),
(334,480,o),
(334,480,cs),
(307,480,o),
(281,477,o),
(256,470,cs),
(242,466,o),
(304,440,o),
(333,440,cs)
);
},
{
closed = 1;
nodes = (
(203,0,ls),
(208,0,o),
(206,-12,o),
(206,-12,cs),
(206,-12,o),
(206,-12,o),
(206,-12,cs),
(219,-12,o),
(232,-11,o),
(243,-9,cs),
(242,-9,o),
(203,0,o),
(203,0,cs)
);
},
{
closed = 1;
nodes = (
(339,110,l),
(315,110,ls),
(293,110,o),
(280,102,o),
(259,96,cs),
(251,93,o),
(242,92,o),
(234,92,cs),
(226,92,o),
(219,94,o),
(211,97,cs),
(197,103,o),
(184,110,o),
(162,110,cs),
(72,110,ls),
(39,110,o),
(21,88,o),
(42,59,cs),
(56,39,o),
(75,23,o),
(99,11,cs),
(118,1,o),
(134,0,o),
(154,0,cs),
(203,0,l),
(250,0,ls),
(271,0,o),
(287,1,o),
(302,14,cs),
(303,15,o),
(304,15,o),
(305,16,cs),
(321,28,o),
(18,21,o),
(326,38,cs),
(326,38,ls),
(329,14,o),
(347,0,o),
(376,0,cs),
(456,0,ls),
(485,0,o),
(499,16,o),
(496,45,cs),
(493,65,ls),
(490,94,o),
(472,110,o),
(443,110,cs)
);
},
{
closed = 1;
nodes = (
(428,220,ls),
(400,220,o),
(384,221,o),
(384,221,cs),
(384,221,ls),
(384,221,o),
(384,220,o),
(384,220,cs),
(378,193,o),
(370,173,o),
(360,155,cs),
(344,124,o),
(344,110,o),
(377,110,cs),
(481,110,ls),
(510,110,o),
(529,126,o),
(536,155,cs),
(541,175,ls),
(547,204,o),
(535,220,o),
(506,220,cs)
);
},
{
closed = 1;
nodes = (
(289,220,l),
(334,220,l),
(456,220,ls),
(485,220,o),
(501,236,o),
(501,265,cs),
(501,282,ls),
(501,289,o),
(501,297,o),
(500,306,cs),
(499,322,o),
(482,330,o),
(454,330,cs),
(377,330,l),
(365,330,ls),
(342,330,o),
(333,317,o),
(313,304,cs),
(297,295,o),
(272,290,o),
(240,288,cs),
(201,284,o),
(169,278,o),
(142,269,cs),
(103,257,o),
(122,220,o),
(166,220,cs),
(289,220,l),
(166,220,l),
(91,220,ls),
(67,220,o),
(48,213,o),
(38,192,cs),
(31,176,o),
(28,159,o),
(28,140,cs),
(28,135,o),
(28,130,o),
(29,125,cs),
(29,115,o),
(46,110,o),
(74,110,cs),
(151,110,ls),
(184,110,o),
(194,144,o),
(194,144,cs),
(194,144,o),
(194,144,o),
(194,144,cs),
(194,176,o),
(228,191,o),
(256,195,cs),
(277,197,o),
(306,203,o),
(334,209,c),
(334,215,ls),
(334,218,o),
(318,220,o),
(289,220,cs),
(166,220,l)
);
},
{
closed = 1;
nodes = (
(266,330,l),
(278,330,ls),
(302,330,o),
(314,343,o),
(338,357,cs),
(349,362,o),
(363,366,o),
(382,366,cs),
(404,366,o),
(422,359,o),
(416,335,cs),
(416,334,o),
(415,333,o),
(415,333,cs),
(415,331,o),
(431,330,o),
(460,330,cs),
(527,330,ls),
(559,330,o),
(584,350,o),
(577,380,cs),
(575,394,o),
(570,407,o),
(562,419,cs),
(551,436,o),
(535,440,o),
(513,440,cs),
(395,440,l),
(276,440,ls),
(254,440,o),
(236,436,o),
(216,422,cs),
(198,409,o),
(183,394,o),
(171,378,cs),
(149,349,o),
(167,330,o),
(198,330,cs),
(266,330,l),
(198,330,l),
(148,330,l),
(147,329,o),
(147,327,o),
(147,326,cs),
(146,321,o),
(145,316,o),
(145,310,cs),
(145,300,o),
(160,295,o),
(187,295,cs),
(304,296,l),
(303,296,o),
(304,299,o),
(304,303,cs),
(304,306,o),
(304,311,o),
(306,316,cs),
(308,325,o),
(295,330,o),
(266,330,cs),
(198,330,l)
);
}
);
width = 548;
}
);
note = a;
unicode = 97;
},
{
glyphname = ae;
kernLeft = a;
kernRight = ae;
lastChange = "2024-07-19 12:08:54 +0000";
layers = (
{
anchors = (
{
name = top;
pos = (425,472);
}
);
background = {
shapes = (
{
closed = 1;
nodes = (
(329,-13,o),
(393,59,o),
(415,144,c),
(451,37,o),
(548,-13,o),
(654,-13,cs),
(752,-13,o),
(821,18,o),
(867,74,c),
(828,91,l),
(796,45,o),
(751,4,o),
(654,4,cs),
(549,4,o),
(452,84,o),
(450,237,c),
(866,237,l),
(868,250,o),
(869,263,o),
(869,276,cs),
(869,403,o),
(785,484,o),
(648,484,cs),
(556,484,o),
(475,444,o),
(432,370,c),
(416,430,o),
(372,482,o),
(250,482,cs),
(153,482,o),
(74,430,o),
(63,371,c),
(124,370,l),
(135,412,o),
(170,465,o),
(250,465,cs),
(342,465,o),
(384,420,o),
(391,357,cs),
(392,354,o),
(392,351,o),
(392,347,cs),
(392,284,o),
(318,260,o),
(231,250,cs),
(81,232,o),
(28,187,o),
(28,116,cs),
(28,40,o),
(99,-13,o),
(211,-13,cs)
);
},
{
closed = 1;
nodes = (
(103,2,o),
(75,74,o),
(75,122,cs),
(75,183,o),
(120,220,o),
(228,234,cs),
(306,244,o),
(369,265,o),
(399,302,c),
(399,188,ls),
(399,101,o),
(331,2,o),
(211,2,cs)
);
},
{
closed = 1;
nodes = (
(456,376,o),
(531,470,o),
(648,470,cs),
(767,470,o),
(823,389,o),
(823,308,cs),
(823,291,o),
(820,273,o),
(815,257,c),
(450,257,l)
);
}
);
};
layerId = "F5467FAD-1970-4982-B3D3-939C01050498";
shapes = (
{
ref = a;
},
{
alignment = -1;
pos = (372,0);
ref = e;
}
);
width = 906;
},
{
anchors = (
{
name = top;
pos = (440,472);
}
);
background = {
shapes = (
{
closed = 1;
nodes = (
(303,-12,o),
(359,32,o),
(381,94,c),
(424,25,o),
(504,-11,o),
(602,-11,cs),
(707,-11,o),
(804,33,o),
(837,121,c),
(721,175,l),
(704,124,o),
(670,90,o),
(611,90,cs),
(539,90,o),
(503,123,o),
(488,176,c),
(488,203,l),
(823,203,l),
(829,228,o),
(832,252,o),
(832,274,cs),
(832,402,o),
(740,482,o),
(592,482,cs),
(530,482,o),
(475,465,o),
(433,434,c),
(402,461,o),
(352,480,o),
(275,480,cs),
(161,480,o),
(66,416,o),
(66,339,cs),
(66,329,o),
(67,320,o),
(70,310,c),
(209,310,l),
(208,311,o),
(208,314,o),
(208,318,cs),
(208,338,o),
(217,384,o),
(284,384,cs),
(324,384,o),
(342,366,o),
(342,334,cs),
(342,297,o),
(302,286,o),
(239,280,cs),
(84,266,o),
(28,212,o),
(28,135,cs),
(28,53,o),
(85,-12,o),
(207,-12,cs)
);
},
{
closed = 1;
nodes = (
(190,76,o),
(168,109,o),
(168,140,cs),
(168,177,o),
(204,195,o),
(248,201,cs),
(282,205,o),
(315,213,o),
(344,225,c),
(344,216,ls),
(344,114,o),
(290,76,o),
(236,76,cs)
);
},
{
closed = 1;
nodes = (
(488,291,o),
(488,292,o),
(488,294,c),
(505,355,o),
(553,383,o),
(596,383,cs),
(653,383,o),
(688,355,o),
(688,307,cs),
(688,302,o),
(687,296,o),
(687,290,c),
(488,290,l)
);
}
);
};
layerId = "6DD95C5A-998B-41AB-BDFB-84A73C209871";
shapes = (
{
ref = a;
},
{
alignment = -1;
pos = (326,0);
ref = e;
}
);
width = 885;
},
{
anchors = (
{
name = top;
pos = (422,472);
}
);
layerId = "1FDC7037-1F88-4969-8535-0F79C1EF19DB";
shapes = (
{
alignment = -1;
ref = a;
},
{
alignment = -1;
pos = (379,0);
ref = e;
}
);
width = 910;
},
{
anchors = (
{
name = top;
pos = (444,472);
}
);
guides = (
{
pos = (0,-330);
},
{
pos = (0,-220);
},
{
pos = (0,-110);
},
{
},
{
pos = (0,110);
},
{
pos = (0,220);
},
{
pos = (0,330);
},
{
pos = (0,440);
},
{
pos = (0,550);
},
{
pos = (0,660);
},
{
pos = (0,770);
}
);
layerId = "3ED9E848-BE83-4CAC-8EFF-D71BD2B4F667";
shapes = (
{
alignment = -1;
ref = a;
},
{
alignment = -1;
pos = (315,0);
ref = e;
}
);
width = 880;
}
);
metricLeft = a;
metricRight = e;
note = ae;
unicode = 230;
},
{
glyphname = b;
kernLeft = b;
kernRight = b;
lastChange = "2024-07-19 21:21:30 +0000";
layers = (
{
layerId = "F5467FAD-1970-4982-B3D3-939C01050498";
shapes = (
{
closed = 1;
nodes = (
(90,0,l),
(90,111,l),
(74,238,l),
(90,375,l),
(90,660,l),
(47,660,l),
(48,0,l)
);
},
{
closed = 1;
nodes = (
(430,-11,o),
(521,94,o),
(521,238,cs),
(521,380,o),
(430,484,o),
(287,484,cs),
(141,484,o),
(74,349,o),
(74,238,cs),
(74,127,o),
(136,-11,o),
(287,-11,cs)
);
},
{
closed = 1;
nodes = (
(173,17,o),
(78,101,o),
(78,238,cs),
(78,372,o),
(174,456,o),
(288,456,cs),
(404,456,o),
(479,357,o),
(479,238,cs),
(479,116,o),
(402,17,o),
(287,17,cs)
);
}
);
width = 550;
},
{
background = {
shapes = (
{
closed = 1;
nodes = (
(521,-11,o),
(612,94,o),
(612,238,cs),
(612,380,o),
(521,484,o),
(377,484,cs),
(262,484,o),
(196,401,o),
(173,313,c),
(180,375,l),
(180,660,l),
(138,660,l),
(139,0,l),
(180,0,l),
(180,111,l),
(174,160,l),
(197,72,o),
(263,-11,o),
(377,-11,cs)
);
},
{
closed = 1;
nodes = (
(263,17,o),
(168,101,o),
(168,238,cs),
(168,372,o),
(263,456,o),
(377,456,cs),
(493,456,o),
(570,357,o),
(570,238,cs),
(570,116,o),
(492,17,o),
(377,17,cs)
);
}
);
};
layerId = "6DD95C5A-998B-41AB-BDFB-84A73C209871";
shapes = (
{
closed = 1;
nodes = (
(177,0,l),
(177,25,l),
(158,238,l),
(177,462,l),
(177,660,l),
(33,660,l),
(34,0,l)
);
},
{
closed = 1;
nodes = (
(484,-8,o),
(583,105,o),
(583,238,cs),
(583,372,o),
(484,483,o),
(334,483,cs),
(190,483,o),
(152,401,o),
(152,238,cs),
(152,74,o),
(181,-8,o),
(334,-8,cs)
);
},
{
closed = 1;
nodes = (
(223,96,o),
(170,144,o),
(170,238,cs),
(170,330,o),
(223,379,o),
(307,379,cs),
(386,379,o),
(431,322,o),
(431,238,cs),
(431,153,o),
(386,96,o),
(307,96,cs)
);
}
);
width = 602;
},
{
associatedMasterId = "F5467FAD-1970-4982-B3D3-939C01050498";
layerId = "26A69B60-DC4A-41CE-A0B3-B5D760A97FC8";
name = "24 juil. 23  14:17";
shapes = (
{
closed = 1;
nodes = (
(90,375,l),
(90,660,l),
(47,660,l),
(48,0,l),
(90,0,l),
(90,111,l),
(74,230,l)
);
},
{
closed = 1;
nodes = (
(173,17,o),
(77,101,o),
(77,238,cs),
(77,372,o),
(173,456,o),
(287,456,cs),
(403,456,o),
(479,357,o),
(479,238,cs),
(479,116,o),
(402,17,o),
(287,17,cs)
);
},
{
closed = 1;
nodes = (
(79,174,l),
(100,80,o),
(167,-11,o),
(287,-11,cs),
(430,-11,o),
(521,94,o),
(521,238,cs),
(521,380,o),
(430,484,o),
(287,484,cs),
(166,484,o),
(100,392,o),
(79,299,c)
);
}
);
width = 550;
},
{
layerId = "1FDC7037-1F88-4969-8535-0F79C1EF19DB";
shapes = (
{
closed = 1;
nodes = (
(75,0,l),
(75,125,l),
(61,238,l),
(75,361,l),
(75,660,l),
(49,660,l),
(50,0,l)
);
},
{
closed = 1;
nodes = (
(422,-11,o),
(512,92,o),
(512,238,cs),
(512,381,o),
(422,484,o),
(279,484,cs),
(133,484,o),
(61,340,o),
(61,238,cs),
(61,136,o),
(128,-11,o),
(279,-11,cs)
);
},
{
closed = 1;
nodes = (
(164,5,o),
(63,94,o),
(63,238,cs),
(63,378,o),
(166,469,o),
(285,469,cs),
(406,469,o),
(487,363,o),
(487,238,cs),
(487,110,o),
(405,5,o),
(283,5,cs)
);
}
);
width = 541;
},
{
guides = (
{
pos = (0,-330);
},
{
pos = (0,-220);
},
{
pos = (0,-110);
},
{
},
{
pos = (0,110);
},
{
pos = (0,220);
},
{
pos = (0,330);
},
{
pos = (0,440);
},
{
pos = (0,550);
},
{
pos = (0,660);
},
{
pos = (0,770);
}
);
layerId = "3ED9E848-BE83-4CAC-8EFF-D71BD2B4F667";
shapes = (
{
closed = 1;
nodes = (
(378,440,ls),
(414,440,o),
(385,483,o),
(385,483,cs),
(385,483,o),
(385,483,o),
(385,483,cs),
(358,483,o),
(334,481,o),
(314,475,cs),
(289,469,o),
(333,440,o),
(378,440,cs)
);
},
{
closed = 1;
nodes = (
(9,660,ls),
(-20,660,o),
(-34,645,o),
(-31,615,cs),
(-29,595,ls),
(-26,565,o),
(-8,550,o),
(21,550,cs),
(100,550,ls),
(129,550,o),
(143,566,o),
(140,595,cs),
(134,660,l)
);
},
{
closed = 1;
nodes = (
(391,330,ls),
(359,330,o),
(357,315,o),
(370,283,cs),
(375,269,o),
(379,254,o),
(382,238,cs),
(382,235,o),
(383,232,o),
(383,229,cs),
(384,223,o),
(401,220,o),
(430,220,cs),
(519,220,ls),
(547,220,o),
(561,238,o),
(561,238,cs),
(561,238,o),
(561,238,o),
(561,238,cs),
(558,257,o),
(553,275,o),
(546,293,cs),
(536,318,o),
(516,330,o),
(490,330,cs)
);
},
{
closed = 1;
nodes = (
(28,440,ls),
(-1,440,o),
(-16,424,o),
(-12,395,cs),
(-10,375,ls),
(-7,346,o),
(11,330,o),
(40,330,cs),
(140,330,l),
(139,303,o),
(142,273,o),
(145,238,cs),
(146,232,o),
(147,226,o),
(147,220,c),
(51,220,ls),
(22,220,o),
(8,204,o),
(11,175,cs),
(13,155,ls),
(16,126,o),
(34,110,o),
(63,110,cs),
(167,110,l),
(185,49,o),
(214,15,o),
(270,0,cs),
(292,-5,o),
(316,-8,o),
(346,-8,cs),
(370,-8,o),
(392,-5,o),
(412,0,cs),
(451,10,o),
(485,29,o),
(511,54,cs),
(537,81,o),
(517,110,o),
(478,110,cs),
(178,110,l),
(157,220,l),
(157,220,ls),
(164,220,o),
(166,238,o),
(166,238,cs),
(166,238,o),
(166,238,o),
(166,238,cs),
(164,257,o),
(165,273,o),
(168,288,cs),
(174,316,o),
(174,330,o),
(151,330,cs),
(151,330,l),
(149,393,ls),
(148,423,o),
(131,440,o),
(101,440,cs)
);
},
{
closed = 1;
nodes = (
(234,440,ls),
(210,440,o),
(192,433,o),
(182,412,cs),
(173,390,o),
(167,363,o),
(164,330,c),
(64,330,ls),
(35,330,o),
(19,314,o),
(20,285,cs),
(21,265,ls),
(22,236,o),
(38,220,o),
(67,220,cs),
(163,220,l),
(166,176,o),
(169,140,o),
(175,110,c),
(71,110,ls),
(42,110,o),
(27,94,o),
(28,65,cs),
(28,45,ls),
(29,16,o),
(46,0,o),
(75,0,cs),
(154,0,ls),
(183,0,o),
(199,1,o),
(199,3,cs),
(199,3,l),
(186,110,l),
(523,110,ls),
(548,110,o),
(565,119,o),
(574,143,cs),
(578,152,o),
(581,161,o),
(583,171,cs),
(590,202,o),
(571,220,o),
(540,220,cs),
(451,220,ls),
(424,220,o),
(412,206,o),
(404,180,cs),
(390,139,o),
(357,116,o),
(308,116,cs),
(253,116,o),
(213,137,o),
(196,180,cs),
(185,206,o),
(181,220,o),
(173,220,cs),
(173,220,l),
(171,238,l),
(175,330,l),
(182,330,ls),
(204,330,o),
(217,338,o),
(238,348,cs),
(255,356,o),
(276,360,o),
(300,360,cs),
(320,360,o),
(337,356,o),
(352,349,cs),
(372,338,o),
(388,330,o),
(410,330,cs),
(508,330,ls),
(543,330,o),
(560,355,o),
(538,384,cs),
(527,397,o),
(515,410,o),
(502,421,cs),
(485,436,o),
(468,440,o),
(446,440,cs)
);
},
{
closed = 1;
nodes = (
(3,550,ls),
(-26,550,o),
(-40,534,o),
(-36,505,cs),
(-33,485,ls),
(-30,456,o),
(-11,440,o),
(18,440,cs),
(95,440,ls),
(123,440,o),
(137,454,o),
(136,483,cs),
(136,484,l),
(133,505,ls),
(129,534,o),
(111,550,o),
(82,550,cs)
);
}
);
width = 614;
}
);
note = b;
unicode = 98;
},
{
glyphname = c;
kernLeft = a;
kernRight = c;
lastChange = "2024-07-19 21:21:30 +0000";
layers = (
{
anchors = (
{
name = bottom;
pos = (285,0);
},
{
name = top;
pos = (290,472);
}
);
layerId = "F5467FAD-1970-4982-B3D3-939C01050498";
shapes = (
{
closed = 1;
nodes = (
(389,-13,o),
(462,29,o),
(499,106,c),
(461,121,l),
(433,64,o),
(382,13,o),
(283,13,cs),
(176,13,o),
(78,86,o),
(78,230,cs),
(78,370,o),
(157,457,o),
(290,457,cs),
(370,457,o),
(422,424,o),
(458,365,c),
(494,385,l),
(459,444,o),
(390,484,o),
(290,484,cs),
(138,484,o),
(28,396,o),
(28,230,cs),
(28,68,o),
(146,-13,o),
(283,-13,cs)
);
}
);
width = 527;
},
{
anchors = (
{
name = bottom;
pos = (294,0);
},
{
name = top;
pos = (300,472);
}
);
layerId = "6DD95C5A-998B-41AB-BDFB-84A73C209871";
shapes = (
{
closed = 1;
nodes = (
(420,-11,o),
(505,37,o),
(548,141,c),
(422,191,l),
(404,128,o),
(372,89,o),
(294,89,cs),
(209,89,o),
(164,148,o),
(164,231,cs),
(164,330,o),
(224,383,o),
(300,383,cs),
(363,383,o),
(407,346,o),
(407,286,c),
(533,344,l),
(506,426,o),
(422,482,o),
(300,482,cs),
(145,482,o),
(28,389,o),
(28,231,cs),
(28,74,o),
(156,-11,o),
(294,-11,cs)
);
}
);
width = 565;
},
{
anchors = (
{
name = bottom;
pos = (283,0);
},
{
name = top;
pos = (289,472);
}
);
layerId = "1FDC7037-1F88-4969-8535-0F79C1EF19DB";
shapes = (
{
closed = 1;
nodes = (
(385,-13,o),
(455,28,o),
(491,100,c),
(468,109,l),
(438,54,o),
(384,1,o),
(281,1,cs),
(171,1,o),
(64,75,o),
(64,230,cs),
(64,376,o),
(147,470,o),
(289,470,cs),
(371,470,o),
(425,437,o),
(467,377,c),
(488,391,l),
(452,447,o),
(386,484,o),
(289,484,cs),
(137,484,o),
(28,397,o),
(28,230,cs),
(28,67,o),
(144,-13,o),
(281,-13,cs)
);
}
);
width = 521;
},
{
anchors = (
{
name = bottom;
pos = (297,0);
},
{
name = top;
pos = (303,472);
}
);
guides = (
{
pos = (0,-330);
},
{
pos = (0,-220);
},
{
pos = (0,-110);
},
{
},
{
pos = (0,110);
},
{
pos = (0,220);
},
{
pos = (0,330);
},
{
pos = (0,440);
},
{
pos = (0,550);
},
{
pos = (0,660);
},
{
pos = (0,770);
}
);
layerId = "3ED9E848-BE83-4CAC-8EFF-D71BD2B4F667";
shapes = (
{
closed = 1;
nodes = (
(263,440,ls),
(298,440,o),
(261,482,o),
(261,482,cs),
(261,482,o),
(261,482,o),
(261,482,cs),
(231,482,o),
(203,479,o),
(177,472,cs),
(162,468,o),
(233,440,o),
(263,440,cs)
);
},
{
closed = 1;
nodes = (
(303,0,ls),
(315,0,o),
(298,-11,o),
(298,-11,cs),
(298,-11,o),
(298,-11,o),
(298,-11,cs),
(315,-11,o),
(331,-10,o),
(346,-8,cs),
(337,-9,o),
(285,0,o),
(303,0,cs)
);
},
{
closed = 1;
nodes = (
(503,110,ls),
(528,110,o),
(550,130,o),
(550,130,cs),
(550,130,o),
(550,130,o),
(550,130,cs),
(556,143,o),
(543,156,o),
(515,167,cs),
(454,191,ls),
(427,202,o),
(409,192,o),
(396,164,cs),
(382,135,o),
(361,116,o),
(324,110,c)
);
},
{
closed = 1;
nodes = (
(329,110,l),
(320,109,o),
(311,108,o),
(301,108,cs),
(292,108,o),
(284,109,o),
(276,110,c),
(137,110,ls),
(98,110,o),
(80,80,o),
(108,55,cs),
(130,35,o),
(157,19,o),
(185,8,cs),
(205,1,o),
(220,0,o),
(240,0,cs),
(365,0,ls),
(385,0,o),
(400,1,o),
(420,8,cs),
(449,19,o),
(474,34,o),
(497,54,cs),
(527,81,o),
(510,110,o),
(472,110,cs)
);
},
{
closed = 1;
nodes = (
(60,220,ls),
(30,220,o),
(12,202,o),
(23,172,cs),
(25,162,o),
(29,152,o),
(34,143,cs),
(44,119,o),
(63,110,o),
(88,110,cs),
(179,110,ls),
(220,110,o),
(216,120,o),
(192,155,cs),
(187,162,o),
(183,170,o),
(179,179,cs),
(169,206,o),
(155,220,o),
(128,220,cs)
);
},
{
closed = 1;
nodes = (
(71,330,ls),
(45,330,o),
(26,319,o),
(21,293,cs),
(18,274,o),
(17,253,o),
(18,231,cs),
(18,229,o),
(18,227,o),
(18,226,cs),
(18,222,o),
(35,220,o),
(64,220,cs),
(176,220,l),
(175,224,o),
(175,227,o),
(175,231,cs),
(174,251,o),
(176,269,o),
(181,284,cs),
(188,315,o),
(183,330,o),
(150,330,cs)
);
},
{
closed = 1;
nodes = (
(407,330,ls),
(373,330,o),
(366,300,o),
(366,300,cs),
(366,300,o),
(366,300,o),
(366,300,cs),
(373,279,o),
(387,274,o),
(414,287,cs),
(436,298,ls),
(459,309,o),
(453,330,o),
(426,330,cs)
);
},
{
closed = 1;
nodes = (
(271,440,ls),
(249,440,o),
(233,436,o),
(212,422,cs),
(196,411,o),
(180,398,o),
(166,384,cs),
(137,355,o),
(149,330,o),
(185,330,cs),
(263,330,ls),
(285,330,o),
(302,338,o),
(325,350,cs),
(344,360,o),
(366,365,o),
(387,365,cs),
(407,365,o),
(425,360,o),
(438,351,cs),
(455,339,o),
(467,330,o),
(490,330,cs),
(609,330,l),
(615,332,ls),
(618,333,o),
(620,349,o),
(611,375,cs),
(605,392,o),
(597,407,o),
(584,421,cs),
(572,436,o),
(555,440,o),
(533,440,cs)
);
}
);
width = 574;
}
);
note = c;
unicode = 99;
},
{
glyphname = d;
kernLeft = a;
kernRight = d;
lastChange = "2024-07-19 21:21:30 +0000";
layers = (
{
anchors = (
{
name = bottom;
pos = (302,0);
},
{
name = top;
pos = (502,472);
}
);
layerId = "F5467FAD-1970-4982-B3D3-939C01050498";
shapes = (
{
closed = 1;
nodes = (
(503,660,l),
(460,660,l),
(460,375,l),
(475,238,l),
(460,111,l),
(460,0,l),
(503,0,l)
);
},
{
closed = 1;
nodes = (
(414,-11,o),
(476,127,o),
(476,238,cs),
(476,349,o),
(409,484,o),
(263,484,cs),
(120,484,o),
(28,380,o),
(28,238,cs),
(28,94,o),
(120,-11,o),
(263,-11,cs)
);
},
{
closed = 1;
nodes = (
(148,17,o),
(71,116,o),
(71,238,cs),
(71,357,o),
(146,456,o),
(262,456,cs),
(376,456,o),
(472,372,o),
(472,238,cs),
(472,101,o),
(377,17,o),
(263,17,cs)
);
}
);
width = 550;
},
{
anchors = (
{
name = bottom;
pos = (333,0);
},
{
name = top;
pos = (568,472);
}
);
layerId = "6DD95C5A-998B-41AB-BDFB-84A73C209871";
shapes = (
{
closed = 1;
nodes = (
(568,660,l),
(424,660,l),
(424,462,l),
(443,238,l),
(424,25,l),
(424,0,l),
(568,0,l)
);
},
{
closed = 1;
nodes = (
(421,-8,o),
(450,74,o),
(450,238,cs),
(450,401,o),
(412,483,o),
(268,483,cs),
(118,483,o),
(19,372,o),
(19,238,cs),
(19,105,o),
(118,-8,o),
(268,-8,cs)
);
},
{
closed = 1;
nodes = (
(219,96,o),
(173,153,o),
(173,238,cs),
(173,322,o),
(218,379,o),
(296,379,cs),
(384,379,o),
(434,325,o),
(434,238,cs),
(434,144,o),
(380,96,o),
(296,96,cs)
);
}
);
width = 602;
},
{
anchors = (
{
name = bottom;
pos = (333,0);
},
{
name = top;
pos = (680,472);
}
);
associatedMasterId = "6DD95C5A-998B-41AB-BDFB-84A73C209871";
layerId = "1D074922-2F39-4A43-B83C-D4901F087130";
name = "24 juil. 23  14:32";
shapes = (
{
closed = 1;
nodes = (
(341,-8,o),
(389,8,o),
(424,32,c),
(424,17,l),
(424,0,l),
(568,0,l),
(569,660,l),
(424,660,l),
(424,465,l),
(424,440,l),
(389,467,o),
(340,483,o),
(277,483,cs),
(127,483,o),
(28,372,o),
(28,238,cs),
(28,105,o),
(126,-8,o),
(278,-8,cs)
);
},
{
closed = 1;
nodes = (
(219,96,o),
(173,153,o),
(173,238,cs),
(173,322,o),
(218,379,o),
(296,379,cs),
(384,379,o),
(434,325,o),
(434,238,cs),
(434,144,o),
(380,96,o),
(296,96,cs)
);
}
);
width = 602;
},
{
anchors = (
{
name = bottom;
pos = (302,0);
},
{
name = top;
pos = (632,472);
}
);
associatedMasterId = "F5467FAD-1970-4982-B3D3-939C01050498";
layerId = "0FE110F9-B3B8-41FB-9267-A7A4874DD26C";
name = "24 juil. 23  14:32";
shapes = (
{
closed = 1;
nodes = (
(381,-11,o),
(447,76,o),
(469,169,c),
(463,111,l),
(463,0,l),
(505,0,l),
(505,660,l),
(463,660,l),
(463,375,l),
(469,306,l),
(447,397,o),
(381,484,o),
(263,484,cs),
(120,484,o),
(28,380,o),
(28,238,cs),
(28,94,o),
(120,-11,o),
(263,-11,cs)
);
},
{
closed = 1;
nodes = (
(148,17,o),
(71,116,o),
(71,238,cs),
(71,357,o),
(147,455,o),
(263,455,cs),
(377,455,o),
(472,372,o),
(472,238,cs),
(472,101,o),
(377,17,o),
(263,17,cs)
);
}
);
width = 553;
},
{
anchors = (
{
name = bottom;
pos = (297,0);
},
{
name = top;
pos = (492,472);
}
);
layerId = "1FDC7037-1F88-4969-8535-0F79C1EF19DB";
shapes = (
{
closed = 1;
nodes = (
(492,660,l),
(466,660,l),
(466,361,l),
(480,238,l),
(466,125,l),
(466,0,l),
(492,0,l)
);
},
{
closed = 1;
nodes = (
(413,-11,o),
(480,136,o),
(480,238,cs),
(480,340,o),
(409,484,o),
(262,484,cs),
(120,484,o),
(30,381,o),
(30,238,cs),
(30,92,o),
(120,-11,o),
(262,-11,cs)
);
},
{
closed = 1;
nodes = (
(137,5,o),
(55,110,o),
(55,238,cs),
(55,363,o),
(135,469,o),
(256,469,cs),
(375,469,o),
(477,379,o),
(477,238,cs),
(477,94,o),
(377,5,o),
(257,5,cs)
);
}
);
width = 541;
},
{
anchors = (
{
name = bottom;
pos = (340,0);
},
{
name = top;
pos = (585,472);
}
);
guides = (
{
pos = (0,-330);
},
{
pos = (0,-220);
},
{
pos = (0,-110);
},
{
},
{
pos = (0,110);
},
{
pos = (0,220);
},
{
pos = (0,330);
},
{
pos = (0,440);
},
{
pos = (0,550);
},
{
pos = (0,660);
},
{
pos = (0,770);
}
);
layerId = "3ED9E848-BE83-4CAC-8EFF-D71BD2B4F667";
shapes = (
{
closed = 1;
nodes = (
(453,660,ls),
(424,660,o),
(408,644,o),
(409,615,cs),
(409,595,ls),
(409,566,o),
(426,550,o),
(455,550,cs),
(534,550,ls),
(563,550,o),
(578,566,o),
(578,595,cs),
(577,660,l)
);
},
{
closed = 1;
nodes = (
(274,0,ls),
(286,0,o),
(268,-8,o),
(268,-8,cs),
(268,-8,o),
(268,-8,o),
(268,-8,cs),
(282,-8,o),
(294,-7,o),
(306,-6,cs),
(297,-7,o),
(257,0,o),
(274,0,cs)
);
},
{
closed = 1;
nodes = (
(58,330,ls),
(32,330,o),
(15,318,o),
(10,293,cs),
(7,275,o),
(5,257,o),
(6,238,cs),
(6,235,o),
(6,232,o),
(7,229,cs),
(7,223,o),
(24,220,o),
(52,220,cs),
(143,220,ls),
(172,220,o),
(187,238,o),
(187,238,cs),
(187,238,o),
(187,238,o),
(187,238,cs),
(186,256,o),
(188,273,o),
(191,287,cs),
(199,316,o),
(191,330,o),
(159,330,cs)
);
},
{
closed = 1;
nodes = (
(216,440,ls),
(261,440,o),
(268,481,o),
(221,483,cs),
(216,483,o),
(211,483,o),
(205,483,cs),
(178,483,o),
(153,479,o),
(131,472,cs),
(113,467,o),
(171,440,o),
(204,440,cs)
);
},
{
closed = 1;
nodes = (
(141,440,ls),
(119,440,o),
(102,436,o),
(86,422,cs),
(74,410,o),
(62,398,o),
(52,384,cs),
(32,355,o),
(51,330,o),
(86,330,cs),
(186,330,ls),
(208,330,o),
(223,338,o),
(242,349,cs),
(257,356,o),
(274,360,o),
(294,360,cs),
(318,360,o),
(339,356,o),
(356,348,cs),
(377,338,o),
(391,330,o),
(413,330,cs),
(419,330,l),
(429,238,l),
(427,220,l),
(427,220,ls),
(420,220,o),
(418,206,o),
(409,180,cs),
(394,137,o),
(356,116,o),
(301,116,cs),
(252,116,o),
(218,139,o),
(202,180,cs),
(192,206,o),
(178,220,o),
(151,220,cs),
(60,220,ls),
(29,220,o),
(12,202,o),
(21,172,cs),
(24,162,o),
(27,152,o),
(32,143,cs),
(41,119,o),
(60,110,o),
(85,110,cs),
(422,110,l),
(416,3,l),
(416,2,ls),
(416,1,o),
(432,0,o),
(461,0,cs),
(540,0,ls),
(569,0,o),
(585,16,o),
(584,45,cs),
(583,65,ls),
(582,94,o),
(566,110,o),
(537,110,cs),
(432,110,l),
(436,140,o),
(437,176,o),
(436,220,c),
(533,220,ls),
(562,220,o),
(578,236,o),
(577,265,cs),
(576,285,ls),
(575,314,o),
(559,330,o),
(530,330,cs),
(429,330,l),
(425,363,o),
(417,390,o),
(406,412,cs),
(395,433,o),
(377,440,o),
(353,440,cs)
);
},
{
closed = 1;
nodes = (
(478,440,ls),
(448,440,o),
(433,423,o),
(434,393,cs),
(438,330,l),
(438,330,ls),
(416,330,o),
(418,315,o),
(426,283,cs),
(429,270,o),
(431,255,o),
(430,238,cs),
(430,235,o),
(430,232,o),
(430,229,cs),
(430,223,o),
(433,220,o),
(440,220,cs),
(440,220,l),
(428,110,l),
(128,110,ls),
(89,110,o),
(71,81,o),
(100,54,cs),
(122,35,o),
(147,19,o),
(176,8,cs),
(196,1,o),
(211,0,o),
(231,0,cs),
(316,0,ls),
(336,0,o),
(352,1,o),
(370,10,cs),
(408,28,o),
(428,60,o),
(438,110,c),
(543,110,ls),
(572,110,o),
(588,126,o),
(589,155,cs),
(590,175,ls),
(590,204,o),
(575,220,o),
(546,220,cs),
(449,220,l),
(449,226,o),
(449,232,o),
(449,238,cs),
(450,273,o),
(450,303,o),
(448,330,c),
(549,330,ls),
(578,330,o),
(594,346,o),
(595,375,cs),
(595,395,ls),
(596,424,o),
(580,440,o),
(551,440,cs)
);
},
{
closed = 1;
nodes = (
(382,550,ls),
(353,550,o),
(339,534,o),
(343,505,cs),
(346,484,l),
(346,483,ls),
(354,454,o),
(372,440,o),
(400,440,cs),
(477,440,ls),
(506,440,o),
(519,456,o),
(515,485,cs),
(512,505,ls),
(508,534,o),
(490,550,o),
(461,550,cs)
);
}
);
width = 614;
}
);
note = d;
unicode = 100;
},
{
glyphname = dcroat;
lastChange = "2024-07-19 23:38:59 +0000";
layers = (
{
layerId = "F5467FAD-1970-4982-B3D3-939C01050498";
shapes = (
{
closed = 1;
nodes = (
(553,604,l),
(383,604,l),
(383,564,l),
(553,564,l)
);
},
{
ref = d;
}
);
width = 553;
},
{
layerId = "6DD95C5A-998B-41AB-BDFB-84A73C209871";
shapes = (
{
closed = 1;
nodes = (
(620,597,l),
(306,597,l),
(306,507,l),
(620,507,l)
);
},
{
ref = d;
}
);
width = 602;
},
{
layerId = "1FDC7037-1F88-4969-8535-0F79C1EF19DB";
shapes = (
{
closed = 1;
nodes = (
(541,604,l),
(395,604,l),
(395,573,l),
(541,573,l)
);
},
{
ref = d;
}
);
width = 545;
},
{
guides = (
{
pos = (0,-330);
},
{
pos = (0,-220);
},
{
pos = (0,-110);
},
{
},
{
pos = (0,110);
},
{
pos = (0,220);
},
{
pos = (0,330);
},
{
pos = (0,440);
},
{
pos = (0,550);
},
{
pos = (0,660);
},
{
pos = (0,770);
}
);
layerId = "3ED9E848-BE83-4CAC-8EFF-D71BD2B4F667";
shapes = (
{
closed = 1;
nodes = (
(288,538,ls),
(288,509,o),
(304,493,o),
(333,493,cs),
(592,493,ls),
(621,493,o),
(637,509,o),
(637,538,cs),
(637,550,ls),
(637,579,o),
(621,595,o),
(592,595,cs),
(333,595,ls),
(304,595,o),
(288,579,o),
(288,550,cs),
(288,550,l)
);
},
{
ref = d;
}
);
width = 614;
}
);
unicode = 273;
},
{
glyphname = eth;
lastChange = "2024-07-19 12:08:54 +0000";
layers = (
{
layerId = "F5467FAD-1970-4982-B3D3-939C01050498";
shapes = (
{
closed = 1;
nodes = (
(439,-32,o),
(521,121,o),
(521,294,cs),
(521,481,o),
(421,625,o),
(253,703,c),
(308,751,l),
(290,769,l),
(227,714,l),
(180,733,o),
(129,746,o),
(74,754,c),
(74,720,l),
(118,712,o),
(159,701,o),
(196,687,c),
(141,639,l),
(159,621,l),
(223,676,l),
(384,605,o),
(467,478,o),
(483,327,c),
(443,399,o),
(369,463,o),
(271,463,cs),
(137,463,o),
(36,367,o),
(36,223,cs),
(36,94,o),
(116,-32,o),
(268,-32,cs)
);
},
{
closed = 1;
nodes = (
(160,-4,o),
(80,98,o),
(80,227,cs),
(80,343,o),
(156,436,o),
(273,436,cs),
(385,436,o),
(481,351,o),
(481,208,cs),
(481,88,o),
(395,-4,o),
(273,-4,cs)
);
}
);
width = 540;
},
{
layerId = "6DD95C5A-998B-41AB-BDFB-84A73C209871";
shapes = (
{
closed = 1;
nodes = (
(454,-4,o),
(534,152,o),
(534,307,cs),
(534,458,o),
(455,583,o),
(325,658,c),
(372,698,l),
(312,768,l),
(235,701,l),
(180,720,o),
(120,733,o),
(54,736,c),
(54,627,l),
(82,623,o),
(108,620,o),
(134,613,c),
(97,581,l),
(157,512,l),
(231,576,l),
(278,551,o),
(316,518,o),
(342,478,c),
(320,485,o),
(297,488,o),
(272,488,cs),
(137,488,o),
(24,390,o),
(24,248,cs),
(24,119,o),
(119,-4,o),
(270,-4,cs)
);
},
{
closed = 1;
nodes = (
(216,102,o),
(169,161,o),
(169,252,cs),
(169,331,o),
(213,384,o),
(274,384,cs),
(321,384,o),
(391,348,o),
(391,237,cs),
(391,184,o),
(365,108,o),
(273,102,cs)
);
}
);
width = 540;
},
{
layerId = "1FDC7037-1F88-4969-8535-0F79C1EF19DB";
shapes = (
{
closed = 1;
nodes = (
(438,-37,o),
(520,116,o),
(520,292,cs),
(520,485,o),
(415,633,o),
(241,710,c),
(298,759,l),
(287,769,l),
(226,716,l),
(180,735,o),
(130,749,o),
(76,757,c),
(76,736,l),
(124,726,o),
(167,714,o),
(207,699,c),
(149,649,l),
(159,639,l),
(221,692,l),
(401,614,o),
(490,472,o),
(505,303,c),
(463,385,o),
(380,459,o),
(271,459,cs),
(137,459,o),
(38,363,o),
(38,219,cs),
(38,91,o),
(116,-37,o),
(268,-37,cs)
);
},
{
closed = 1;
nodes = (
(152,-21,o),
(66,88,o),
(66,223,cs),
(66,345,o),
(146,444,o),
(273,444,cs),
(395,444,o),
(495,351,o),
(495,204,cs),
(495,73,o),
(400,-22,o),
(273,-21,cs)
);
}
);
width = 540;
},
{
guides = (
{
pos = (0,-330);
},
{
pos = (0,-220);
},
{
pos = (0,-110);
},
{
},
{
pos = (0,110);
},
{
pos = (0,220);
},
{
pos = (0,330);
},
{
pos = (0,440);
},
{
pos = (0,550);
},
{
pos = (0,660);
},
{
pos = (0,770);
}
);
layerId = "3ED9E848-BE83-4CAC-8EFF-D71BD2B4F667";
shapes = (
{
closed = 1;
nodes = (
(326,660,ls),
(348,660,o),
(362,663,o),
(373,673,cs),
(373,673,ls),
(382,681,o),
(376,697,o),
(358,719,cs),
(347,733,ls),
(328,755,o),
(306,758,o),
(284,738,cs),
(237,697,l),
(193,712,o),
(146,723,o),
(96,728,cs),
(66,732,o),
(49,719,o),
(49,696,cs),
(49,696,ls),
(49,673,o),
(65,660,o),
(94,660,cs)
);
},
{
closed = 1;
nodes = (
(142,110,ls),
(102,110,o),
(86,79,o),
(117,54,cs),
(158,22,o),
(210,3,o),
(270,3,cs),
(336,3,o),
(389,23,o),
(429,54,cs),
(460,79,o),
(444,110,o),
(404,110,cs)
);
},
{
closed = 1;
nodes = (
(407,220,ls),
(381,220,o),
(369,207,o),
(357,183,cs),
(344,156,o),
(319,133,o),
(273,128,cs),
(245,128,o),
(220,147,o),
(204,182,cs),
(193,207,o),
(180,220,o),
(154,220,cs),
(74,220,ls),
(43,220,o),
(25,201,o),
(35,170,cs),
(38,160,o),
(42,150,o),
(47,141,cs),
(58,118,o),
(76,110,o),
(100,110,cs),
(446,110,ls),
(470,110,o),
(488,119,o),
(499,141,cs),
(503,150,o),
(508,159,o),
(512,169,cs),
(523,200,o),
(506,220,o),
(474,220,cs)
);
},
{
closed = 1;
nodes = (
(73,330,ls),
(47,330,o),
(28,318,o),
(24,291,cs),
(22,280,o),
(21,268,o),
(21,255,cs),
(21,249,o),
(21,243,o),
(22,237,cs),
(22,226,o),
(39,220,o),
(67,220,cs),
(146,220,ls),
(176,220,o),
(190,257,o),
(190,257,cs),
(190,257,o),
(190,257,o),
(190,257,cs),
(190,271,o),
(192,283,o),
(194,295,cs),
(200,318,o),
(189,330,o),
(157,330,cs)
);
},
{
closed = 1;
nodes = (
(400,330,ls),
(368,330,o),
(361,313,o),
(367,282,cs),
(369,270,o),
(370,258,o),
(370,243,cs),
(370,239,o),
(370,235,o),
(370,231,cs),
(369,224,o),
(385,220,o),
(415,220,cs),
(486,220,ls),
(513,220,o),
(531,233,o),
(534,261,cs),
(536,277,o),
(537,294,o),
(537,310,cs),
(537,314,o),
(537,317,o),
(537,320,cs),
(537,327,o),
(521,330,o),
(492,330,cs)
);
},
{
closed = 1;
nodes = (
(141,440,ls),
(119,440,o),
(102,435,o),
(86,419,cs),
(76,408,o),
(66,396,o),
(58,383,cs),
(39,353,o),
(58,330,o),
(92,330,cs),
(174,330,ls),
(197,330,o),
(211,340,o),
(230,356,cs),
(243,366,o),
(258,371,o),
(274,371,cs),
(287,371,o),
(306,367,o),
(324,354,cs),
(344,340,o),
(358,330,o),
(381,330,cs),
(489,330,ls),
(519,330,o),
(537,347,o),
(532,377,cs),
(530,386,o),
(528,394,o),
(526,403,cs),
(520,428,o),
(502,440,o),
(476,440,cs)
);
},
{
closed = 1;
nodes = (
(166,550,ls),
(132,550,o),
(114,535,o),
(129,518,cs),
(129,518,ls),
(147,497,o),
(168,495,o),
(190,515,cs),
(194,518,ls),
(212,534,o),
(198,550,o),
(166,550,cs)
);
},
{
closed = 1;
nodes = (
(359,550,ls),
(314,550,o),
(307,516,o),
(307,516,cs),
(307,516,o),
(307,516,o),
(307,516,c),
(290,506,o),
(279,495,o),
(272,495,cs),
(242,495,o),
(213,490,o),
(186,481,cs),
(158,472,o),
(196,440,o),
(241,440,cs),
(457,440,ls),
(491,440,o),
(508,462,o),
(492,493,cs),
(486,503,o),
(480,513,o),
(474,522,cs),
(461,543,o),
(444,550,o),
(420,550,cs)
);
},
{
closed = 1;
nodes = (
(94,660,ls),
(65,660,o),
(49,650,o),
(49,632,cs),
(49,632,ls),
(49,614,o),
(64,604,o),
(91,599,cs),
(101,598,o),
(110,596,o),
(119,594,c),
(119,594,ls),
(98,576,o),
(89,564,o),
(94,559,cs),
(94,559,ls),
(99,553,o),
(111,550,o),
(134,550,cs),
(231,550,l),
(233,552,l),
(234,551,o),
(234,551,o),
(235,551,cs),
(235,551,o),
(245,550,o),
(267,550,cs),
(376,550,ls),
(416,550,o),
(431,580,o),
(400,606,cs),
(383,621,o),
(364,635,o),
(344,648,c),
(351,654,ls),
(354,657,o),
(314,660,o),
(273,660,cs)
);
}
);
width = 540;
}
);
note = eth;
unicode = 240;
},
{
glyphname = e;
kernLeft = a;
kernRight = ae;
lastChange = "2024-07-19 21:21:30 +0000";
layers = (
{
anchors = (
{
name = bottom;
pos = (285,0);
},
{
name = ogonek;
pos = (307,0);
},
{
name = top;
pos = (276,472);
}
);
layerId = "F5467FAD-1970-4982-B3D3-939C01050498";
shapes = (
{
closed = 1;
nodes = (
(74,237,l),
(494,237,l),
(496,250,o),
(497,263,o),
(497,276,cs),
(497,403,o),
(413,484,o),
(276,484,cs),
(141,484,o),
(28,396,o),
(28,241,cs),
(28,68,o),
(147,-13,o),
(283,-13,cs),
(380,-13,o),
(450,18,o),
(495,74,c),
(456,101,l),
(424,55,o),
(379,13,o),
(283,13,cs),
(175,13,o),
(76,88,o),
(78,245,cs),
(80,371,o),
(155,460,o),
(276,460,cs),
(395,460,o),
(452,389,o),
(452,308,cs),
(452,291,o),
(450,279,o),
(446,263,c),
(74,263,l)
);
}
);
width = 535;
},
{
anchors = (
{
name = bottom;
pos = (285,0);
},
{
name = ogonek;
pos = (307,0);
},
{
name = top;
pos = (280,472);
}
);
layerId = "6DD95C5A-998B-41AB-BDFB-84A73C209871";
shapes = (
{
closed = 1;
nodes = (
(152,203,l),
(507,203,l),
(513,228,o),
(516,252,o),
(516,274,cs),
(516,402,o),
(424,482,o),
(276,482,cs),
(130,482,o),
(28,389,o),
(28,240,cs),
(28,74,o),
(134,-11,o),
(286,-11,cs),
(391,-11,o),
(488,33,o),
(521,121,c),
(405,175,l),
(389,124,o),
(355,88,o),
(295,88,cs),
(205,88,o),
(166,141,o),
(166,240,cs),
(166,344,o),
(224,383,o),
(280,383,cs),
(338,383,o),
(372,355,o),
(372,307,cs),
(372,302,o),
(372,296,o),
(371,290,c),
(157,290,l)
);
}
);
width = 559;
},
{
anchors = (
{
name = bottom;
pos = (285,0);
},
{
name = ogonek;
pos = (307,0);
},
{
name = top;
pos = (274,472);
}
);
layerId = "1FDC7037-1F88-4969-8535-0F79C1EF19DB";
shapes = (
{
closed = 1;
nodes = (
(54,242,l),
(492,242,l),
(493,254,o),
(493,265,o),
(493,276,cs),
(493,402,o),
(410,484,o),
(275,484,cs),
(142,484,o),
(28,397,o),
(28,241,cs),
(28,67,o),
(149,-13,o),
(283,-13,cs),
(378,-13,o),
(443,15,o),
(491,66,c),
(465,89,l),
(430,43,o),
(383,1,o),
(281,1,cs),
(171,1,o),
(57,79,o),
(57,246,cs),
(57,374,o),
(143,472,o),
(275,472,cs),
(405,472,o),
(468,394,o),
(468,309,cs),
(468,290,o),
(466,276,o),
(462,258,c),
(53,258,l)
);
}
);
width = 531;
},
{
anchors = (
{
name = bottom;
pos = (285,0);
},
{
name = ogonek;
pos = (307,0);
},
{
name = top;
pos = (281,472);
}
);
guides = (
{
pos = (0,-330);
},
{
pos = (0,-220);
},
{
pos = (0,-110);
},
{
},
{
pos = (0,110);
},
{
pos = (0,220);
},
{
pos = (0,330);
},
{
pos = (0,440);
},
{
pos = (0,550);
},
{
pos = (0,660);
},
{
pos = (0,770);
}
);
layerId = "3ED9E848-BE83-4CAC-8EFF-D71BD2B4F667";
shapes = (
{
closed = 1;
nodes = (
(340,440,ls),
(374,440,o),
(340,482,o),
(340,482,cs),
(340,482,o),
(340,482,o),
(340,482,cs),
(312,482,o),
(285,479,o),
(260,472,cs),
(242,468,o),
(305,440,o),
(340,440,cs)
);
},
{
closed = 1;
nodes = (
(286,0,ls),
(300,0,o),
(289,-11,o),
(289,-11,cs),
(289,-11,o),
(289,-11,o),
(289,-11,cs),
(304,-11,o),
(318,-10,o),
(332,-8,cs),
(325,-9,o),
(273,0,o),
(286,0,cs)
);
},
{
closed = 1;
nodes = (
(542,110,l),
(545,114,o),
(548,117,o),
(549,121,cs),
(554,128,o),
(543,138,o),
(519,150,cs),
(471,174,ls),
(447,186,o),
(428,177,o),
(409,151,cs),
(406,148,o),
(403,145,o),
(401,142,cs),
(377,118,o),
(382,110,o),
(420,110,cs)
);
},
{
closed = 1;
nodes = (
(362,110,ls),
(342,110,o),
(311,106,o),
(307,106,cs),
(306,106,o),
(306,106,o),
(306,106,cs),
(299,106,o),
(293,106,o),
(287,107,cs),
(273,108,o),
(261,110,o),
(241,110,cs),
(132,110,ls),
(95,110,o),
(75,82,o),
(100,55,cs),
(119,35,o),
(142,20,o),
(171,9,cs),
(190,1,o),
(205,0,o),
(225,0,cs),
(346,0,ls),
(366,0,o),
(381,1,o),
(402,9,cs),
(431,20,o),
(459,35,o),
(483,55,cs),
(512,82,o),
(496,110,o),
(459,110,cs)
);
},
{
closed = 1;
nodes = (
(143,330,ls),
(117,330,o),
(96,318,o),
(86,292,cs),
(80,275,o),
(76,258,o),
(73,240,cs),
(72,236,o),
(71,233,o),
(71,230,cs),
(69,223,o),
(86,220,o),
(114,220,cs),
(214,220,l),
(214,220,ls),
(210,204,o),
(224,194,o),
(254,194,cs),
(546,194,l),
(548,198,o),
(550,203,o),
(551,207,cs),
(555,215,o),
(537,220,o),
(506,220,cs),
(229,220,l),
(230,226,o),
(231,232,o),
(232,239,cs),
(236,257,o),
(241,273,o),
(246,287,cs),
(258,315,o),
(253,330,o),
(221,330,cs)
);
},
{
closed = 1;
nodes = (
(364,330,ls),
(333,330,o),
(321,307,o),
(321,307,cs),
(321,307,o),
(321,307,o),
(321,307,cs),
(322,305,o),
(322,300,o),
(321,297,c),
(190,297,ls),
(162,297,o),
(147,282,o),
(149,253,cs),
(150,220,l),
(54,220,ls),
(24,220,o),
(8,202,o),
(17,172,cs),
(20,163,o),
(23,153,o),
(27,144,cs),
(38,120,o),
(57,110,o),
(82,110,cs),
(184,110,ls),
(220,110,o),
(216,115,o),
(193,146,cs),
(179,164,o),
(170,190,o),
(165,220,c),
(451,220,ls),
(479,220,o),
(495,234,o),
(494,262,cs),
(494,266,o),
(493,270,o),
(493,274,cs),
(492,284,o),
(491,293,o),
(488,302,cs),
(484,321,o),
(466,330,o),
(439,330,cs)
);
},
{
closed = 1;
nodes = (
(237,440,ls),
(215,440,o),
(197,436,o),
(179,421,cs),
(163,410,o),
(150,397,o),
(139,383,cs),
(114,354,o),
(127,330,o),
(162,330,cs),
(240,330,ls),
(263,330,o),
(279,340,o),
(301,352,cs),
(317,361,o),
(334,364,o),
(348,364,cs),
(366,364,o),
(381,361,o),
(392,354,cs),
(410,342,o),
(420,330,o),
(443,330,cs),
(518,330,ls),
(552,330,o),
(575,353,o),
(563,382,cs),
(557,397,o),
(548,409,o),
(538,421,cs),
(524,436,o),
(508,440,o),
(486,440,cs)
);
}
);
width = 565;
}
);
note = e;
unicode = 101;
},
{
glyphname = f;
kernLeft = f;
kernRight = f;
lastChange = "2024-07-19 21:21:30 +0000";
layers = (
{
layerId = "F5467FAD-1970-4982-B3D3-939C01050498";
shapes = (
{
closed = 1;
nodes = (
(149,1,l),
(149,439,l),
(326,439,l),
(326,472,l),
(215,472,l),
(116,493,o),
(89,542,o),
(89,586,cs),
(89,651,o),
(142,687,o),
(202,687,cs),
(256,687,o),
(293,655,o),
(312,625,c),
(354,652,l),
(325,678,o),
(266,703,o),
(202,703,cs),
(92,703,o),
(55,636,o),
(55,589,cs),
(55,538,o),
(89,485,o),
(166,472,c),
(8,472,l),
(8,439,l),
(108,439,l),
(108,1,l)
);
}
);
width = 346;
},
{
layerId = "6DD95C5A-998B-41AB-BDFB-84A73C209871";
shapes = (
{
closed = 1;
nodes = (
(232,0,l),
(232,363,l),
(379,363,l),
(379,472,l),
(258,472,ls),
(206,472,o),
(177,507,o),
(177,539,cs),
(177,581,o),
(203,607,o),
(252,607,cs),
(306,607,o),
(326,560,o),
(332,544,c),
(455,596,l),
(439,620,o),
(373,696,o),
(252,696,cs),
(119,696,o),
(45,636,o),
(45,553,cs),
(45,503,o),
(74,480,o),
(88,472,c),
(7,472,l),
(7,363,l),
(90,363,l),
(90,0,l)
);
}
);
width = 374;
},
{
layerId = "1FDC7037-1F88-4969-8535-0F79C1EF19DB";
shapes = (
{
closed = 1;
nodes = (
(136,1,l),
(136,452,l),
(318,452,l),
(318,472,l),
(208,472,l),
(102,497,o),
(74,548,o),
(74,593,cs),
(74,662,o),
(133,699,o),
(194,699,cs),
(247,699,o),
(289,670,o),
(309,638,c),
(338,660,l),
(307,687,o),
(249,704,o),
(194,704,cs),
(89,704,o),
(57,636,o),
(57,595,cs),
(57,543,o),
(91,486,o),
(178,472,c),
(8,472,l),
(8,452,l),
(111,452,l),
(111,1,l)
);
}
);
width = 341;
},
{
guides = (
{
pos = (0,-330);
},
{
pos = (0,-220);
},
{
pos = (0,-110);
},
{
},
{
pos = (0,110);
},
{
pos = (0,220);
},
{
pos = (0,330);
},
{
pos = (0,440);
},
{
pos = (0,550);
},
{
pos = (0,660);
},
{
pos = (0,770);
}
);
layerId = "3ED9E848-BE83-4CAC-8EFF-D71BD2B4F667";
shapes = (
{
closed = 1;
nodes = (
(5,389,ls),
(6,360,o),
(22,344,o),
(51,344,cs),
(84,344,l),
(84,344,ls),
(84,335,o),
(100,330,o),
(129,330,cs),
(252,330,l),
(252,337,ls),
(252,341,o),
(268,344,o),
(297,344,cs),
(346,344,ls),
(375,344,o),
(391,360,o),
(390,389,cs),
(390,427,ls),
(390,456,o),
(374,472,o),
(345,472,cs),
(267,472,ls),
(225,472,o),
(197,499,o),
(197,528,cs),
(197,532,o),
(197,536,o),
(198,539,cs),
(199,546,o),
(182,550,o),
(152,550,cs),
(41,550,l),
(41,548,o),
(41,545,o),
(41,543,cs),
(41,527,o),
(43,514,o),
(46,504,cs),
(53,482,o),
(60,472,o),
(50,472,cs),
(50,472,ls),
(21,472,o),
(5,460,o),
(5,440,cs),
(5,440,l)
);
},
{
closed = 1;
nodes = (
(119,110,ls),
(90,110,o),
(76,94,o),
(78,65,cs),
(80,45,ls),
(83,16,o),
(101,0,o),
(130,0,cs),
(208,0,ls),
(237,0,o),
(251,16,o),
(248,45,cs),
(246,65,ls),
(244,94,o),
(226,110,o),
(197,110,cs)
);
},
{
closed = 1;
nodes = (
(105,220,ls),
(76,220,o),
(62,204,o),
(65,175,cs),
(68,155,ls),
(71,126,o),
(89,110,o),
(118,110,cs),
(196,110,ls),
(225,110,o),
(239,126,o),
(236,155,cs),
(233,175,ls),
(230,204,o),
(212,220,o),
(183,220,cs)
);
},
{
closed = 1;
nodes = (
(125,330,ls),
(96,330,o),
(80,314,o),
(81,285,cs),
(81,265,ls),
(81,236,o),
(98,220,o),
(127,220,cs),
(205,220,ls),
(234,220,o),
(249,236,o),
(249,265,cs),
(249,285,ls),
(248,314,o),
(232,330,o),
(203,330,cs)
);
},
{
closed = 1;
nodes = (
(227,644,o),
(204,624,o),
(186,599,cs),
(167,570,o),
(184,550,o),
(215,550,cs),
(289,550,ls),
(313,550,o),
(326,563,o),
(349,577,cs),
(361,583,o),
(375,587,o),
(393,587,cs),
(427,587,o),
(442,568,o),
(448,550,cs),
(449,546,o),
(450,541,o),
(451,537,cs),
(453,529,o),
(469,530,o),
(498,541,cs),
(555,563,ls),
(588,576,o),
(603,601,o),
(584,624,cs),
(558,656,o),
(506,694,o),
(417,694,cs),
(354,694,o),
(299,682,o),
(258,660,cs)
);
}
);
width = 382;
}
);
note = f;
unicode = 102;
},
